Athiti-700.ufo
<glyph name="exclam" format="1">
  <advance width="286"/>
  <unicode hex="0021"/>
  <note>
	exclam
  </note>
  <outline>
    <contour>
      <point x="212" y="167" type="line"/>
      <point x="220" y="426" type="line"/>
      <point x="220" y="620" type="line"/>
      <point x="66" y="620" type="line"/>
      <point x="66" y="426" type="line"/>
      <point x="74" y="167" type="line"/>
    </contour>
    <contour>
      <point x="220" y="0" type="line"/>
      <point x="220" y="121" type="line"/>
      <point x="66" y="121" type="line"/>
      <point x="66" y="0" type="line"/>
    </contour>
  </outline>
</glyph>
<glyph name="quotedbl" format="1">
  <advance width="391"/>
  <unicode hex="0022"/>
  <note>
	quotedbl
  </note>
  <outline>
    <contour>
      <point x="330" y="413" type="line"/>
      <point x="340" y="544" type="line" smooth="yes"/>
      <point x="341" y="567"/>
      <point x="341" y="590"/>
      <point x="337" y="616" type="curve"/>
      <point x="216" y="616" type="line"/>
      <point x="212" y="590"/>
      <point x="212" y="567"/>
      <point x="213" y="544" type="curve" smooth="yes"/>
      <point x="223" y="413" type="line"/>
    </contour>
    <contour>
      <point x="168" y="413" type="line"/>
      <point x="178" y="544" type="line" smooth="yes"/>
      <point x="179" y="567"/>
      <point x="179" y="590"/>
      <point x="175" y="616" type="curve"/>
      <point x="54" y="616" type="line"/>
      <point x="50" y="590"/>
      <point x="50" y="567"/>
      <point x="51" y="544" type="curve" smooth="yes"/>
      <point x="61" y="413" type="line"/>
    </contour>
  </outline>
</glyph>
<glyph name="numbersign" format="1">
  <advance width="728"/>
  <unicode hex="0023"/>
  <note>
	numbersign
  </note>
  <outline>
    <contour>
      <point x="297" y="141" type="line"/>
      <point x="374" y="141" type="line"/>
      <point x="355" y="0" type="line"/>
      <point x="499" y="-4" type="line"/>
      <point x="518" y="141" type="line"/>
      <point x="645" y="141" type="line"/>
      <point x="645" y="270" type="line"/>
      <point x="536" y="270" type="line"/>
      <point x="546" y="345" type="line"/>
      <point x="668" y="345" type="line"/>
      <point x="668" y="474" type="line"/>
      <point x="563" y="474" type="line"/>
      <point x="583" y="623" type="line"/>
      <point x="441" y="626" type="line"/>
      <point x="420" y="474" type="line"/>
      <point x="342" y="474" type="line"/>
      <point x="362" y="623" type="line"/>
      <point x="220" y="626" type="line"/>
      <point x="199" y="474" type="line"/>
      <point x="74" y="474" type="line"/>
      <point x="74" y="345" type="line"/>
      <point x="181" y="345" type="line"/>
      <point x="171" y="270" type="line"/>
      <point x="50" y="270" type="line"/>
      <point x="50" y="141" type="line"/>
      <point x="153" y="141" type="line"/>
      <point x="134" y="0" type="line"/>
      <point x="278" y="-4" type="line"/>
    </contour>
    <contour>
      <point x="325" y="345" type="line"/>
      <point x="402" y="345" type="line"/>
      <point x="392" y="270" type="line"/>
      <point x="315" y="270" type="line"/>
    </contour>
  </outline>
</glyph>
<glyph name="dollar" format="1">
  <advance width="580"/>
  <unicode hex="0024"/>
  <note>
	dollar
  </note>
  <outline>
    <contour>
      <point x="371" y="-110" type="line"/>
      <point x="371" y="-1" type="line"/>
      <point x="490" y="18"/>
      <point x="540" y="84"/>
      <point x="540" y="177" type="curve" smooth="yes"/>
      <point x="540" y="310"/>
      <point x="466" y="350"/>
      <point x="337" y="377" type="curve" smooth="yes"/>
      <point x="258" y="394"/>
      <point x="221" y="408"/>
      <point x="221" y="449" type="curve" smooth="yes"/>
      <point x="221" y="490"/>
      <point x="255" y="500"/>
      <point x="306" y="500" type="curve" smooth="yes"/>
      <point x="328" y="500"/>
      <point x="345" y="499"/>
      <point x="369" y="495" type="curve"/>
      <point x="378" y="422" type="line"/>
      <point x="502" y="422" type="line"/>
      <point x="511" y="447"/>
      <point x="519" y="518"/>
      <point x="519" y="548" type="curve" smooth="yes"/>
      <point x="519" y="583" type="line"/>
      <point x="482" y="601"/>
      <point x="435" y="620"/>
      <point x="371" y="627" type="curve"/>
      <point x="371" y="716" type="line"/>
      <point x="230" y="716" type="line"/>
      <point x="230" y="622" type="line"/>
      <point x="124" y="601"/>
      <point x="71" y="537"/>
      <point x="71" y="444" type="curve" smooth="yes"/>
      <point x="71" y="304"/>
      <point x="161" y="267"/>
      <point x="298" y="234" type="curve" smooth="yes"/>
      <point x="369" y="217"/>
      <point x="390" y="205"/>
      <point x="390" y="170" type="curve" smooth="yes"/>
      <point x="390" y="153"/>
      <point x="388" y="142"/>
      <point x="382" y="129" type="curve"/>
      <point x="357" y="124"/>
      <point x="337" y="122"/>
      <point x="292" y="122" type="curve" smooth="yes"/>
      <point x="217" y="122"/>
      <point x="148" y="140"/>
      <point x="89" y="171" type="curve"/>
      <point x="40" y="50" type="line"/>
      <point x="90" y="22"/>
      <point x="153" y="1"/>
      <point x="230" y="-5" type="curve"/>
      <point x="230" y="-110" type="line"/>
    </contour>
  </outline>
</glyph>
<glyph name="percent" format="1">
  <advance width="774"/>
  <unicode hex="0025"/>
  <note>
	percent
  </note>
  <outline>
    <contour>
      <point x="630" y="581" type="line"/>
      <point x="513" y="624" type="line"/>
      <point x="147" y="27" type="line"/>
      <point x="260" y="-26" type="line"/>
    </contour>
    <contour>
      <point x="298" y="308"/>
      <point x="348" y="365"/>
      <point x="348" y="464" type="curve" smooth="yes"/>
      <point x="348" y="562"/>
      <point x="288" y="610"/>
      <point x="209" y="610" type="curve" smooth="yes"/>
      <point x="110" y="610"/>
      <point x="60" y="549"/>
      <point x="60" y="450" type="curve" smooth="yes"/>
      <point x="60" y="352"/>
      <point x="120" y="308"/>
      <point x="199" y="308" type="curve" smooth="yes"/>
    </contour>
    <contour>
      <point x="168" y="403"/>
      <point x="163" y="425"/>
      <point x="163" y="462" type="curve" smooth="yes"/>
      <point x="163" y="481"/>
      <point x="164" y="493"/>
      <point x="168" y="509" type="curve"/>
      <point x="179" y="513"/>
      <point x="187" y="515"/>
      <point x="201" y="515" type="curve" smooth="yes"/>
      <point x="227" y="515"/>
      <point x="245" y="505"/>
      <point x="245" y="456" type="curve" smooth="yes"/>
      <point x="245" y="436"/>
      <point x="243" y="422"/>
      <point x="239" y="408" type="curve"/>
      <point x="230" y="405"/>
      <point x="219" y="403"/>
      <point x="207" y="403" type="curve" smooth="yes"/>
    </contour>
    <contour>
      <point x="664" y="-12"/>
      <point x="714" y="45"/>
      <point x="714" y="144" type="curve" smooth="yes"/>
      <point x="714" y="242"/>
      <point x="654" y="290"/>
      <point x="575" y="290" type="curve" smooth="yes"/>
      <point x="476" y="290"/>
      <point x="426" y="229"/>
      <point x="426" y="130" type="curve" smooth="yes"/>
      <point x="426" y="32"/>
      <point x="486" y="-12"/>
      <point x="565" y="-12" type="curve" smooth="yes"/>
    </contour>
    <contour>
      <point x="534" y="83"/>
      <point x="529" y="105"/>
      <point x="529" y="142" type="curve" smooth="yes"/>
      <point x="529" y="161"/>
      <point x="530" y="173"/>
      <point x="534" y="189" type="curve"/>
      <point x="545" y="193"/>
      <point x="553" y="195"/>
      <point x="567" y="195" type="curve" smooth="yes"/>
      <point x="593" y="195"/>
      <point x="611" y="185"/>
      <point x="611" y="136" type="curve" smooth="yes"/>
      <point x="611" y="116"/>
      <point x="609" y="102"/>
      <point x="605" y="88" type="curve"/>
      <point x="596" y="85"/>
      <point x="585" y="83"/>
      <point x="573" y="83" type="curve" smooth="yes"/>
    </contour>
  </outline>
</glyph>
<glyph name="asterisk" format="1">
  <advance width="458"/>
  <unicode hex="002A"/>
  <note>
	asterisk
  </note>
  <outline>
    <contour>
      <point x="227" y="396" type="line"/>
      <point x="231" y="396" type="line"/>
      <point x="291" y="297" type="line"/>
      <point x="379" y="360" type="line"/>
      <point x="302" y="448" type="line"/>
      <point x="304" y="452" type="line"/>
      <point x="408" y="475" type="line"/>
      <point x="373" y="579" type="line"/>
      <point x="276" y="538" type="line"/>
      <point x="273" y="541" type="line"/>
      <point x="285" y="649" type="line"/>
      <point x="173" y="649" type="line"/>
      <point x="185" y="541" type="line"/>
      <point x="181" y="538" type="line"/>
      <point x="85" y="579" type="line"/>
      <point x="50" y="475" type="line"/>
      <point x="154" y="452" type="line"/>
      <point x="156" y="448" type="line"/>
      <point x="79" y="360" type="line"/>
      <point x="167" y="297" type="line"/>
    </contour>
  </outline>
</glyph>
<glyph name="hyphen" format="1">
  <advance width="474"/>
  <unicode hex="002D"/>
  <note>
	hyphen
  </note>
  <outline>
    <contour>
      <point x="409" y="180" type="line"/>
      <point x="409" y="318" type="line"/>
      <point x="65" y="318" type="line"/>
      <point x="65" y="180" type="line"/>
    </contour>
  </outline>
</glyph>
<glyph name="slash" format="1">
  <advance width="491"/>
  <unicode hex="002F"/>
  <note>
	slash
  </note>
  <outline>
    <contour>
      <point x="443" y="638" type="line"/>
      <point x="309" y="672" type="line"/>
      <point x="48" y="-68" type="line"/>
      <point x="182" y="-103" type="line"/>
    </contour>
  </outline>
</glyph>
<glyph name="zero" format="1">
  <advance width="653"/>
  <unicode hex="0030"/>
  <note>
	zero
  </note>
  <outline>
    <contour>
      <point x="508" y="-9"/>
      <point x="608" y="105"/>
      <point x="608" y="311" type="curve" smooth="yes"/>
      <point x="608" y="512"/>
      <point x="513" y="606"/>
      <point x="341" y="606" type="curve" smooth="yes"/>
      <point x="146" y="606"/>
      <point x="45" y="489"/>
      <point x="45" y="286" type="curve" smooth="yes"/>
      <point x="45" y="85"/>
      <point x="142" y="-9"/>
      <point x="313" y="-9" type="curve" smooth="yes"/>
    </contour>
    <contour>
      <point x="215" y="129"/>
      <point x="195" y="192"/>
      <point x="195" y="305" type="curve" smooth="yes"/>
      <point x="195" y="361"/>
      <point x="202" y="404"/>
      <point x="219" y="452" type="curve"/>
      <point x="247" y="462"/>
      <point x="283" y="468"/>
      <point x="327" y="468" type="curve" smooth="yes"/>
      <point x="417" y="468"/>
      <point x="458" y="426"/>
      <point x="458" y="292" type="curve" smooth="yes"/>
      <point x="458" y="232"/>
      <point x="453" y="193"/>
      <point x="438" y="145" type="curve"/>
      <point x="413" y="135"/>
      <point x="374" y="129"/>
      <point x="327" y="129" type="curve" smooth="yes"/>
    </contour>
  </outline>
</glyph>
<glyph name="one" format="1">
  <advance width="409"/>
  <unicode hex="0031"/>
  <note>
	one
  </note>
  <outline>
    <contour>
      <point x="331" y="0" type="line"/>
      <point x="331" y="534" type="line" smooth="yes"/>
      <point x="331" y="558"/>
      <point x="252" y="610"/>
      <point x="206" y="610" type="curve"/>
      <point x="30" y="506" type="line"/>
      <point x="72" y="416" type="line"/>
      <point x="172" y="449" type="line"/>
      <point x="181" y="443" type="line"/>
      <point x="181" y="0" type="line"/>
    </contour>
  </outline>
</glyph>
<glyph name="four" format="1">
  <advance width="604"/>
  <unicode hex="0034"/>
  <note>
	four
  </note>
  <outline>
    <contour>
      <point x="488" y="0" type="line"/>
      <point x="488" y="92" type="line"/>
      <point x="572" y="92" type="line"/>
      <point x="572" y="215" type="line"/>
      <point x="488" y="215" type="line"/>
      <point x="488" y="610" type="line"/>
      <point x="311" y="610" type="line"/>
      <point x="26" y="197" type="line"/>
      <point x="56" y="92" type="line"/>
      <point x="343" y="92" type="line"/>
      <point x="343" y="0" type="line"/>
    </contour>
    <contour>
      <point x="193" y="223" type="line"/>
      <point x="354" y="466" type="line"/>
      <point x="362" y="466" type="line"/>
      <point x="343" y="286" type="line"/>
      <point x="343" y="215" type="line"/>
      <point x="195" y="215" type="line"/>
    </contour>
  </outline>
</glyph>
<glyph name="five" format="1">
  <advance width="566"/>
  <unicode hex="0035"/>
  <note>
	five
  </note>
  <outline>
    <contour>
      <point x="437" y="-10"/>
      <point x="528" y="72"/>
      <point x="528" y="209" type="curve" smooth="yes"/>
      <point x="528" y="339"/>
      <point x="460" y="399"/>
      <point x="328" y="399" type="curve" smooth="yes"/>
      <point x="283" y="399"/>
      <point x="252" y="392"/>
      <point x="217" y="379" type="curve"/>
      <point x="225" y="475" type="line"/>
      <point x="486" y="475" type="line"/>
      <point x="486" y="610" type="line"/>
      <point x="91" y="610" type="line"/>
      <point x="65" y="321" type="line"/>
      <point x="167" y="239" type="line"/>
      <point x="213" y="257"/>
      <point x="240" y="263"/>
      <point x="287" y="263" type="curve" smooth="yes"/>
      <point x="356" y="263"/>
      <point x="378" y="247"/>
      <point x="378" y="202" type="curve" smooth="yes"/>
      <point x="378" y="176"/>
      <point x="375" y="158"/>
      <point x="366" y="139" type="curve"/>
      <point x="333" y="131"/>
      <point x="297" y="127"/>
      <point x="249" y="127" type="curve" smooth="yes"/>
      <point x="181" y="127"/>
      <point x="126" y="136"/>
      <point x="62" y="154" type="curve"/>
      <point x="44" y="18" type="line"/>
      <point x="109" y="-1"/>
      <point x="174" y="-10"/>
      <point x="249" y="-10" type="curve" smooth="yes"/>
    </contour>
  </outline>
</glyph>
<glyph name="seven" format="1">
  <advance width="573"/>
  <unicode hex="0037"/>
  <note>
	seven
  </note>
  <outline>
    <contour>
      <point x="339" y="183"/>
      <point x="395" y="314"/>
      <point x="538" y="465" type="curve"/>
      <point x="538" y="610" type="line"/>
      <point x="38" y="610" type="line"/>
      <point x="38" y="554" type="line" smooth="yes"/>
      <point x="38" y="501"/>
      <point x="45" y="451"/>
      <point x="55" y="417" type="curve"/>
      <point x="179" y="417" type="line"/>
      <point x="179" y="471" type="line"/>
      <point x="379" y="471" type="line"/>
      <point x="379" y="465" type="line"/>
      <point x="261" y="340"/>
      <point x="192" y="227"/>
      <point x="161" y="10" type="curve"/>
      <point x="314" y="0" type="line"/>
    </contour>
  </outline>
</glyph>
<glyph name="eight" format="1">
  <advance width="599"/>
  <unicode hex="0038"/>
  <note>
	eight
  </note>
  <outline>
    <contour>
      <point x="455" y="-9"/>
      <point x="549" y="61"/>
      <point x="549" y="166" type="curve" smooth="yes"/>
      <point x="549" y="230"/>
      <point x="525" y="262"/>
      <point x="469" y="294" type="curve"/>
      <point x="469" y="302" type="line"/>
      <point x="512" y="332"/>
      <point x="538" y="367"/>
      <point x="538" y="432" type="curve" smooth="yes"/>
      <point x="538" y="543"/>
      <point x="457" y="606"/>
      <point x="316" y="606" type="curve" smooth="yes"/>
      <point x="171" y="606"/>
      <point x="65" y="539"/>
      <point x="65" y="432" type="curve" smooth="yes"/>
      <point x="65" y="371"/>
      <point x="90" y="346"/>
      <point x="131" y="319" type="curve"/>
      <point x="131" y="311" type="line"/>
      <point x="85" y="277"/>
      <point x="50" y="242"/>
      <point x="50" y="166" type="curve" smooth="yes"/>
      <point x="50" y="57"/>
      <point x="126" y="-9"/>
      <point x="294" y="-9" type="curve" smooth="yes"/>
    </contour>
    <contour>
      <point x="221" y="115"/>
      <point x="197" y="136"/>
      <point x="197" y="179" type="curve" smooth="yes"/>
      <point x="197" y="202"/>
      <point x="199" y="213"/>
      <point x="208" y="238" type="curve"/>
      <point x="236" y="245"/>
      <point x="258" y="247"/>
      <point x="294" y="247" type="curve" smooth="yes"/>
      <point x="374" y="247"/>
      <point x="402" y="232"/>
      <point x="402" y="176" type="curve" smooth="yes"/>
      <point x="402" y="155"/>
      <point x="401" y="145"/>
      <point x="394" y="126" type="curve"/>
      <point x="369" y="117"/>
      <point x="350" y="115"/>
      <point x="317" y="115" type="curve" smooth="yes"/>
    </contour>
    <contour>
      <point x="237" y="362"/>
      <point x="211" y="378"/>
      <point x="211" y="418" type="curve" smooth="yes"/>
      <point x="211" y="441"/>
      <point x="214" y="457"/>
      <point x="221" y="475" type="curve"/>
      <point x="247" y="480"/>
      <point x="266" y="482"/>
      <point x="294" y="482" type="curve" smooth="yes"/>
      <point x="358" y="482"/>
      <point x="392" y="473"/>
      <point x="392" y="419" type="curve" smooth="yes"/>
      <point x="392" y="397"/>
      <point x="388" y="385"/>
      <point x="380" y="370" type="curve"/>
      <point x="360" y="364"/>
      <point x="344" y="362"/>
      <point x="316" y="362" type="curve" smooth="yes"/>
    </contour>
  </outline>
</glyph>
<glyph name="semicolon" format="1">
  <advance width="308"/>
  <unicode hex="003B"/>
  <note>
	semicolon
  </note>
  <outline>
    <contour>
      <point x="218" y="-32"/>
      <point x="243" y="16"/>
      <point x="243" y="62" type="curve" smooth="yes"/>
      <point x="243" y="120"/>
      <point x="213" y="148"/>
      <point x="150" y="148" type="curve" smooth="yes"/>
      <point x="120" y="148"/>
      <point x="87" y="142"/>
      <point x="65" y="134" type="curve"/>
      <point x="65" y="33" type="line"/>
      <point x="118" y="33" type="line"/>
      <point x="115" y="6"/>
      <point x="107" y="-15"/>
      <point x="88" y="-45" type="curve"/>
      <point x="184" y="-66" type="line"/>
    </contour>
    <contour>
      <point x="223" y="298" type="line"/>
      <point x="223" y="439" type="line"/>
      <point x="69" y="439" type="line"/>
      <point x="69" y="298" type="line"/>
    </contour>
  </outline>
</glyph>
<glyph name="equal" format="1">
  <advance width="604"/>
  <unicode hex="003D"/>
  <note>
	equal
  </note>
  <outline>
    <contour>
      <point x="544" y="286" type="line"/>
      <point x="544" y="424" type="line"/>
      <point x="60" y="424" type="line"/>
      <point x="60" y="286" type="line"/>
    </contour>
    <contour>
      <point x="544" y="76" type="line"/>
      <point x="544" y="214" type="line"/>
      <point x="60" y="214" type="line"/>
      <point x="60" y="76" type="line"/>
    </contour>
  </outline>
</glyph>
<glyph name="B" format="1">
  <advance width="590"/>
  <unicode hex="0042"/>
  <note>
	B
  </note>
  <outline>
    <contour>
      <point x="291" y="0" type="line" smooth="yes"/>
      <point x="489" y="0"/>
      <point x="555" y="59"/>
      <point x="555" y="174" type="curve" smooth="yes"/>
      <point x="555" y="245"/>
      <point x="520" y="289"/>
      <point x="436" y="310" type="curve"/>
      <point x="436" y="316" type="line"/>
      <point x="499" y="347"/>
      <point x="525" y="385"/>
      <point x="525" y="448" type="curve" smooth="yes"/>
      <point x="525" y="570"/>
      <point x="431" y="626"/>
      <point x="267" y="626" type="curve" smooth="yes"/>
      <point x="188" y="626"/>
      <point x="124" y="615"/>
      <point x="65" y="594" type="curve"/>
      <point x="65" y="0" type="line"/>
    </contour>
    <contour>
      <point x="214" y="245" type="line"/>
      <point x="317" y="245" type="line" smooth="yes"/>
      <point x="380" y="245"/>
      <point x="406" y="229"/>
      <point x="406" y="186" type="curve" smooth="yes"/>
      <point x="406" y="146"/>
      <point x="383" y="126"/>
      <point x="307" y="126" type="curve" smooth="yes"/>
      <point x="214" y="126" type="line"/>
    </contour>
    <contour>
      <point x="214" y="493" type="line"/>
      <point x="232" y="498"/>
      <point x="247" y="500"/>
      <point x="269" y="500" type="curve" smooth="yes"/>
      <point x="345" y="500"/>
      <point x="376" y="485"/>
      <point x="376" y="430" type="curve" smooth="yes"/>
      <point x="376" y="405"/>
      <point x="371" y="390"/>
      <point x="356" y="369" type="curve"/>
      <point x="214" y="369" type="line"/>
    </contour>
  </outline>
</glyph>
<glyph name="I" format="1">
  <advance width="286"/>
  <unicode hex="0049"/>
  <note>
	I
  </note>
  <outline>
    <contour>
      <point x="218" y="0" type="line"/>
      <point x="218" y="620" type="line"/>
      <point x="68" y="620" type="line"/>
      <point x="68" y="0" type="line"/>
    </contour>
  </outline>
</glyph>
<glyph name="J" format="1">
  <advance width="483"/>
  <unicode hex="004A"/>
  <note>
	J
  </note>
  <outline>
    <contour>
      <point x="373" y="-10"/>
      <point x="420" y="62"/>
      <point x="420" y="186" type="curve" smooth="yes"/>
      <point x="420" y="620" type="line"/>
      <point x="270" y="620" type="line"/>
      <point x="270" y="209" type="line" smooth="yes"/>
      <point x="270" y="182"/>
      <point x="268" y="159"/>
      <point x="264" y="141" type="curve"/>
      <point x="242" y="133"/>
      <point x="218" y="130"/>
      <point x="178" y="130" type="curve" smooth="yes"/>
      <point x="136" y="130"/>
      <point x="95" y="138"/>
      <point x="54" y="153" type="curve"/>
      <point x="20" y="25" type="line"/>
      <point x="66" y="2"/>
      <point x="130" y="-10"/>
      <point x="191" y="-10" type="curve" smooth="yes"/>
    </contour>
  </outline>
</glyph>
<glyph name="N" format="1">
  <advance width="669"/>
  <unicode hex="004E"/>
  <note>
	N
  </note>
  <outline>
    <contour>
      <point x="214" y="0" type="line"/>
      <point x="214" y="298" type="line"/>
      <point x="202" y="461" type="line"/>
      <point x="210" y="463" type="line"/>
      <point x="407" y="0" type="line"/>
      <point x="604" y="0" type="line"/>
      <point x="604" y="620" type="line"/>
      <point x="455" y="620" type="line"/>
      <point x="455" y="322" type="line"/>
      <point x="467" y="159" type="line"/>
      <point x="459" y="157" type="line"/>
      <point x="262" y="620" type="line"/>
      <point x="65" y="620" type="line"/>
      <point x="65" y="0" type="line"/>
    </contour>
  </outline>
</glyph>
<glyph name="P" format="1">
  <advance width="573"/>
  <unicode hex="0050"/>
  <note>
	P
  </note>
  <outline>
    <contour>
      <point x="214" y="0" type="line"/>
      <point x="214" y="171" type="line"/>
      <point x="280" y="171" type="line" smooth="yes"/>
      <point x="466" y="171"/>
      <point x="551" y="258"/>
      <point x="551" y="408" type="curve" smooth="yes"/>
      <point x="551" y="564"/>
      <point x="460" y="626"/>
      <point x="286" y="626" type="curve" smooth="yes"/>
      <point x="205" y="626"/>
      <point x="125" y="614"/>
      <point x="65" y="594" type="curve"/>
      <point x="65" y="0" type="line"/>
    </contour>
    <contour>
      <point x="214" y="481" type="line"/>
      <point x="241" y="487"/>
      <point x="263" y="489"/>
      <point x="294" y="489" type="curve" smooth="yes"/>
      <point x="374" y="489"/>
      <point x="402" y="464"/>
      <point x="402" y="400" type="curve" smooth="yes"/>
      <point x="402" y="368"/>
      <point x="398" y="345"/>
      <point x="388" y="320" type="curve"/>
      <point x="351" y="309"/>
      <point x="314" y="307"/>
      <point x="257" y="307" type="curve" smooth="yes"/>
      <point x="214" y="307" type="line"/>
    </contour>
  </outline>
</glyph>
<glyph name="S" format="1">
  <advance width="582"/>
  <unicode hex="0053"/>
  <note>
	S
  </note>
  <outline>
    <contour>
      <point x="467" y="-8"/>
      <point x="540" y="65"/>
      <point x="540" y="177" type="curve" smooth="yes"/>
      <point x="540" y="310"/>
      <point x="466" y="350"/>
      <point x="337" y="377" type="curve" smooth="yes"/>
      <point x="258" y="394"/>
      <point x="221" y="408"/>
      <point x="221" y="449" type="curve" smooth="yes"/>
      <point x="221" y="490"/>
      <point x="255" y="500"/>
      <point x="306" y="500" type="curve" smooth="yes"/>
      <point x="328" y="500"/>
      <point x="345" y="499"/>
      <point x="369" y="495" type="curve"/>
      <point x="378" y="422" type="line"/>
      <point x="502" y="422" type="line"/>
      <point x="511" y="447"/>
      <point x="519" y="518"/>
      <point x="519" y="548" type="curve" smooth="yes"/>
      <point x="519" y="583" type="line"/>
      <point x="471" y="607"/>
      <point x="407" y="630"/>
      <point x="311" y="630" type="curve" smooth="yes"/>
      <point x="152" y="630"/>
      <point x="71" y="559"/>
      <point x="71" y="444" type="curve" smooth="yes"/>
      <point x="71" y="304"/>
      <point x="161" y="267"/>
      <point x="298" y="234" type="curve" smooth="yes"/>
      <point x="369" y="217"/>
      <point x="390" y="205"/>
      <point x="390" y="170" type="curve" smooth="yes"/>
      <point x="390" y="153"/>
      <point x="388" y="142"/>
      <point x="382" y="129" type="curve"/>
      <point x="357" y="124"/>
      <point x="337" y="122"/>
      <point x="292" y="122" type="curve" smooth="yes"/>
      <point x="217" y="122"/>
      <point x="148" y="140"/>
      <point x="89" y="171" type="curve"/>
      <point x="40" y="50" type="line"/>
      <point x="102" y="15"/>
      <point x="185" y="-8"/>
      <point x="287" y="-8" type="curve" smooth="yes"/>
    </contour>
  </outline>
</glyph>
<glyph name="T" format="1">
  <advance width="598"/>
  <unicode hex="0054"/>
  <note>
	T
  </note>
  <outline>
    <contour>
      <point x="374" y="0" type="line"/>
      <point x="374" y="480" type="line"/>
      <point x="572" y="480" type="line"/>
      <point x="572" y="620" type="line"/>
      <point x="26" y="620" type="line"/>
      <point x="26" y="480" type="line"/>
      <point x="224" y="480" type="line"/>
      <point x="224" y="0" type="line"/>
    </contour>
  </outline>
</glyph>
<glyph name="U" format="1">
  <advance width="653"/>
  <unicode hex="0055"/>
  <note>
	U
  </note>
  <outline>
    <contour>
      <point x="469" y="-10"/>
      <point x="590" y="31"/>
      <point x="590" y="135" type="curve" smooth="yes"/>
      <point x="590" y="620" type="line"/>
      <point x="440" y="620" type="line"/>
      <point x="440" y="144" type="line"/>
      <point x="407" y="133"/>
      <point x="378" y="128"/>
      <point x="324" y="128" type="curve" smooth="yes"/>
      <point x="238" y="128"/>
      <point x="213" y="159"/>
      <point x="213" y="253" type="curve" smooth="yes"/>
      <point x="213" y="620" type="line"/>
      <point x="63" y="620" type="line"/>
      <point x="63" y="220" type="line" smooth="yes"/>
      <point x="63" y="81"/>
      <point x="130" y="-10"/>
      <point x="317" y="-10" type="curve" smooth="yes"/>
    </contour>
  </outline>
</glyph>
<glyph name="Z" format="1">
  <advance width="601"/>
  <unicode hex="005A"/>
  <note>
	Z
  </note>
  <outline>
    <contour>
      <point x="563" y="0" type="line"/>
      <point x="563" y="49" type="line" smooth="yes"/>
      <point x="563" y="109"/>
      <point x="557" y="166"/>
      <point x="546" y="210" type="curve"/>
      <point x="424" y="210" type="line"/>
      <point x="424" y="133" type="line"/>
      <point x="212" y="133" type="line"/>
      <point x="212" y="142" type="line"/>
      <point x="550" y="458" type="line"/>
      <point x="550" y="620" type="line"/>
      <point x="49" y="620" type="line"/>
      <point x="49" y="571" type="line" smooth="yes"/>
      <point x="49" y="511"/>
      <point x="55" y="454"/>
      <point x="66" y="410" type="curve"/>
      <point x="188" y="410" type="line"/>
      <point x="188" y="486" type="line"/>
      <point x="392" y="486" type="line"/>
      <point x="392" y="476" type="line"/>
      <point x="40" y="146" type="line"/>
      <point x="40" y="0" type="line"/>
    </contour>
  </outline>
</glyph>
<glyph name="bracketright" format="1">
  <advance width="339"/>
  <unicode hex="005D"/>
  <note>
	bracketright
  </note>
  <outline>
    <contour>
      <point x="274" y="-85" type="line"/>
      <point x="274" y="707" type="line"/>
      <point x="62" y="707" type="line"/>
      <point x="62" y="567" type="line"/>
      <point x="126" y="567" type="line"/>
      <point x="126" y="55" type="line"/>
      <point x="62" y="55" type="line"/>
      <point x="62" y="-85" type="line"/>
    </contour>
  </outline>
</glyph>
<glyph name="asciicircum" format="1">
  <advance width="635"/>
  <unicode hex="005E"/>
  <note>
	asciicircum
  </note>
  <outline>
    <contour>
      <point x="315" y="492" type="line"/>
      <point x="321" y="492" type="line"/>
      <point x="437" y="247" type="line"/>
      <point x="577" y="299" type="line"/>
      <point x="395" y="616" type="line"/>
      <point x="241" y="616" type="line"/>
      <point x="58" y="299" type="line"/>
      <point x="199" y="247" type="line"/>
    </contour>
  </outline>
</glyph>
<glyph name="grave" format="1">
  <advance width="323"/>
  <unicode hex="0060"/>
  <note>
	grave
  </note>
  <outline>
    <contour>
      <point x="250" y="752" type="line"/>
      <point x="163" y="907" type="line"/>
      <point x="-7" y="888" type="line"/>
      <point x="127" y="732" type="line"/>
    </contour>
  </outline>
</glyph>
<glyph name="f" format="1">
  <advance width="406"/>
  <unicode hex="0066"/>
  <note>
	f
  </note>
  <outline>
    <contour>
      <point x="242" y="0" type="line"/>
      <point x="242" y="346" type="line"/>
      <point x="338" y="346" type="line"/>
      <point x="358" y="472" type="line"/>
      <point x="242" y="472" type="line"/>
      <point x="242" y="479" type="line" smooth="yes"/>
      <point x="242" y="494"/>
      <point x="244" y="513"/>
      <point x="249" y="526" type="curve"/>
      <point x="265" y="532"/>
      <point x="284" y="535"/>
      <point x="307" y="535" type="curve" smooth="yes"/>
      <point x="330" y="535"/>
      <point x="350" y="532"/>
      <point x="374" y="523" type="curve"/>
      <point x="413" y="653" type="line"/>
      <point x="383" y="666"/>
      <point x="344" y="675"/>
      <point x="305" y="675" type="curve" smooth="yes"/>
      <point x="271" y="675"/>
      <point x="238" y="673"/>
      <point x="203" y="666" type="curve"/>
      <point x="152" y="642"/>
      <point x="95" y="597"/>
      <point x="95" y="542" type="curve" smooth="yes"/>
      <point x="95" y="472" type="line"/>
      <point x="40" y="472" type="line"/>
      <point x="20" y="346" type="line"/>
      <point x="95" y="346" type="line"/>
      <point x="95" y="0" type="line"/>
    </contour>
  </outline>
</glyph>
<glyph name="l" format="1">
  <advance width="335"/>
  <unicode hex="006C"/>
  <note>
	l
  </note>
  <outline>
    <contour>
      <point x="234" y="-6"/>
      <point x="300" y="52"/>
      <point x="327" y="96" type="curve"/>
      <point x="280" y="162" type="line"/>
      <point x="226" y="133" type="line"/>
      <point x="212" y="133" type="line"/>
      <point x="208" y="144"/>
      <point x="206" y="157"/>
      <point x="206" y="177" type="curve" smooth="yes"/>
      <point x="206" y="671" type="line"/>
      <point x="58" y="671" type="line"/>
      <point x="58" y="97" type="line" smooth="yes"/>
      <point x="58" y="55"/>
      <point x="136" y="6"/>
      <point x="182" y="-6" type="curve"/>
    </contour>
  </outline>
</glyph>
<glyph name="n" format="1">
  <advance width="585"/>
  <unicode hex="006E"/>
  <note>
	n
  </note>
  <outline>
    <contour>
      <point x="222" y="0" type="line"/>
      <point x="222" y="310" type="line"/>
      <point x="245" y="330"/>
      <point x="280" y="342"/>
      <point x="325" y="342" type="curve" smooth="yes"/>
      <point x="348" y="342"/>
      <point x="365" y="339"/>
      <point x="378" y="333" type="curve"/>
      <point x="378" y="0" type="line"/>
      <point x="525" y="0" type="line"/>
      <point x="525" y="344" type="line" smooth="yes"/>
      <point x="525" y="432"/>
      <point x="477" y="482"/>
      <point x="386" y="482" type="curve" smooth="yes"/>
      <point x="310" y="482"/>
      <point x="260" y="446"/>
      <point x="225" y="398" type="curve"/>
      <point x="217" y="398" type="line"/>
      <point x="211" y="472" type="line"/>
      <point x="75" y="472" type="line"/>
      <point x="75" y="0" type="line"/>
    </contour>
  </outline>
</glyph>
<glyph name="x" format="1">
  <advance width="540"/>
  <unicode hex="0078"/>
  <note>
	x
  </note>
  <outline>
    <contour>
      <point x="209" y="69"/>
      <point x="220" y="96"/>
      <point x="262" y="161" type="curve"/>
      <point x="275" y="161" type="line"/>
      <point x="309" y="101"/>
      <point x="322" y="67"/>
      <point x="346" y="-8" type="curve"/>
      <point x="513" y="7" type="line"/>
      <point x="485" y="88"/>
      <point x="439" y="174"/>
      <point x="389" y="238" type="curve"/>
      <point x="445" y="307"/>
      <point x="484" y="380"/>
      <point x="522" y="465" type="curve"/>
      <point x="358" y="478" type="line"/>
      <point x="330" y="399"/>
      <point x="319" y="374"/>
      <point x="276" y="308" type="curve"/>
      <point x="262" y="308" type="line"/>
      <point x="226" y="370"/>
      <point x="213" y="401"/>
      <point x="190" y="478" type="curve"/>
      <point x="21" y="464" type="line"/>
      <point x="55" y="387"/>
      <point x="101" y="294"/>
      <point x="149" y="231" type="curve"/>
      <point x="95" y="165"/>
      <point x="51" y="90"/>
      <point x="18" y="7" type="curve"/>
      <point x="182" y="-8" type="line"/>
    </contour>
  </outline>
</glyph>
<glyph name="braceleft" format="1">
  <advance width="461"/>
  <unicode hex="007B"/>
  <note>
	braceleft
  </note>
  <outline>
    <contour>
      <point x="421" y="11" type="line"/>
      <point x="377" y="11"/>
      <point x="334" y="14"/>
      <point x="308" y="22" type="curve"/>
      <point x="304" y="47"/>
      <point x="305" y="53"/>
      <point x="307" y="88" type="curve" smooth="yes"/>
      <point x="311" y="182" type="line" smooth="yes"/>
      <point x="315" y="258"/>
      <point x="286" y="294"/>
      <point x="221" y="314" type="curve"/>
      <point x="221" y="318" type="line"/>
      <point x="286" y="338"/>
      <point x="315" y="374"/>
      <point x="311" y="450" type="curve" smooth="yes"/>
      <point x="307" y="534" type="line" smooth="yes"/>
      <point x="305" y="569"/>
      <point x="304" y="575"/>
      <point x="308" y="600" type="curve"/>
      <point x="334" y="608"/>
      <point x="377" y="611"/>
      <point x="421" y="611" type="curve"/>
      <point x="421" y="744" type="line"/>
      <point x="258" y="744"/>
      <point x="156" y="689"/>
      <point x="164" y="536" type="curve" smooth="yes"/>
      <point x="168" y="463" type="line" smooth="yes"/>
      <point x="171" y="403"/>
      <point x="152" y="372"/>
      <point x="50" y="372" type="curve"/>
      <point x="50" y="260" type="line"/>
      <point x="152" y="260"/>
      <point x="171" y="229"/>
      <point x="168" y="169" type="curve" smooth="yes"/>
      <point x="164" y="86" type="line" smooth="yes"/>
      <point x="156" y="-67"/>
      <point x="258" y="-122"/>
      <point x="421" y="-122" type="curve"/>
    </contour>
  </outline>
</glyph>
<glyph name="braceright" format="1">
  <advance width="461"/>
  <unicode hex="007D"/>
  <note>
	braceright
  </note>
  <outline>
    <contour>
      <point x="203" y="-122"/>
      <point x="305" y="-67"/>
      <point x="297" y="86" type="curve" smooth="yes"/>
      <point x="293" y="169" type="line" smooth="yes"/>
      <point x="290" y="229"/>
      <point x="309" y="260"/>
      <point x="411" y="260" type="curve"/>
      <point x="411" y="372" type="line"/>
      <point x="309" y="372"/>
      <point x="290" y="403"/>
      <point x="293" y="463" type="curve" smooth="yes"/>
      <point x="297" y="536" type="line" smooth="yes"/>
      <point x="305" y="689"/>
      <point x="203" y="744"/>
      <point x="40" y="744" type="curve"/>
      <point x="40" y="611" type="line"/>
      <point x="84" y="611"/>
      <point x="127" y="608"/>
      <point x="153" y="600" type="curve"/>
      <point x="157" y="575"/>
      <point x="156" y="569"/>
      <point x="154" y="534" type="curve" smooth="yes"/>
      <point x="150" y="450" type="line" smooth="yes"/>
      <point x="146" y="374"/>
      <point x="175" y="338"/>
      <point x="240" y="318" type="curve"/>
      <point x="240" y="314" type="line"/>
      <point x="175" y="294"/>
      <point x="146" y="258"/>
      <point x="150" y="182" type="curve" smooth="yes"/>
      <point x="154" y="88" type="line" smooth="yes"/>
      <point x="156" y="53"/>
      <point x="157" y="47"/>
      <point x="153" y="22" type="curve"/>
      <point x="127" y="14"/>
      <point x="84" y="11"/>
      <point x="40" y="11" type="curve"/>
      <point x="40" y="-122" type="line"/>
    </contour>
  </outline>
</glyph>
<glyph name="asciitilde" format="1">
  <advance width="481"/>
  <unicode hex="007E"/>
  <note>
	asciitilde
  </note>
  <outline>
    <contour>
      <point x="156" y="227"/>
      <point x="164" y="244"/>
      <point x="193" y="244" type="curve" smooth="yes"/>
      <point x="225" y="244"/>
      <point x="259" y="198"/>
      <point x="328" y="198" type="curve" smooth="yes"/>
      <point x="413" y="198"/>
      <point x="441" y="260"/>
      <point x="441" y="373" type="curve"/>
      <point x="330" y="383" type="line"/>
      <point x="327" y="347"/>
      <point x="319" y="330"/>
      <point x="290" y="330" type="curve" smooth="yes"/>
      <point x="250" y="330"/>
      <point x="221" y="376"/>
      <point x="155" y="376" type="curve" smooth="yes"/>
      <point x="81" y="376"/>
      <point x="33" y="321"/>
      <point x="42" y="206" type="curve"/>
      <point x="155" y="190" type="line"/>
    </contour>
  </outline>
</glyph>
<glyph name="exclamdown" format="1">
  <advance width="286"/>
  <unicode hex="00A1"/>
  <note>
	exclamdown
  </note>
  <outline>
    <contour>
      <point x="220" y="-4" type="line"/>
      <point x="220" y="190" type="line"/>
      <point x="212" y="449" type="line"/>
      <point x="74" y="449" type="line"/>
      <point x="66" y="190" type="line"/>
      <point x="66" y="-4" type="line"/>
    </contour>
    <contour>
      <point x="220" y="495" type="line"/>
      <point x="220" y="616" type="line"/>
      <point x="66" y="616" type="line"/>
      <point x="66" y="495" type="line"/>
    </contour>
  </outline>
</glyph>
<glyph name="cent" format="1">
  <advance width="498"/>
  <unicode hex="00A2"/>
  <note>
	cent
  </note>
  <outline>
    <contour>
      <point x="345" y="-144" type="line"/>
      <point x="345" y="-5" type="line"/>
      <point x="403" y="6"/>
      <point x="447" y="33"/>
      <point x="482" y="65" type="curve"/>
      <point x="416" y="172" type="line"/>
      <point x="381" y="144"/>
      <point x="340" y="129"/>
      <point x="291" y="129" type="curve" smooth="yes"/>
      <point x="211" y="129"/>
      <point x="188" y="165"/>
      <point x="188" y="235" type="curve" smooth="yes"/>
      <point x="188" y="271"/>
      <point x="192" y="300"/>
      <point x="202" y="333" type="curve"/>
      <point x="222" y="339"/>
      <point x="242" y="341"/>
      <point x="269" y="341" type="curve" smooth="yes"/>
      <point x="285" y="341"/>
      <point x="302" y="340"/>
      <point x="317" y="337" type="curve"/>
      <point x="325" y="292" type="line"/>
      <point x="448" y="292" type="line"/>
      <point x="456" y="325"/>
      <point x="461" y="367"/>
      <point x="461" y="401" type="curve" smooth="yes"/>
      <point x="461" y="437" type="line"/>
      <point x="431" y="454"/>
      <point x="392" y="468"/>
      <point x="343" y="474" type="curve"/>
      <point x="343" y="620" type="line"/>
      <point x="212" y="620" type="line"/>
      <point x="212" y="470" type="line"/>
      <point x="104" y="444"/>
      <point x="40" y="355"/>
      <point x="40" y="229" type="curve" smooth="yes"/>
      <point x="40" y="106"/>
      <point x="87" y="21"/>
      <point x="210" y="-3" type="curve"/>
      <point x="210" y="-144" type="line"/>
    </contour>
  </outline>
</glyph>
<glyph name="currency" format="1">
  <advance width="618"/>
  <unicode hex="00A4"/>
  <note>
	currency
  </note>
  <outline>
    <contour>
      <point x="212" y="108" type="line"/>
      <point x="247" y="90"/>
      <point x="274" y="84"/>
      <point x="311" y="84" type="curve" smooth="yes"/>
      <point x="348" y="84"/>
      <point x="375" y="90"/>
      <point x="410" y="108" type="curve"/>
      <point x="484" y="35" type="line"/>
      <point x="569" y="118" type="line"/>
      <point x="494" y="192" type="line"/>
      <point x="514" y="227"/>
      <point x="521" y="254"/>
      <point x="521" y="291" type="curve" smooth="yes"/>
      <point x="521" y="330"/>
      <point x="514" y="357"/>
      <point x="494" y="392" type="curve"/>
      <point x="569" y="466" type="line"/>
      <point x="484" y="549" type="line"/>
      <point x="410" y="476" type="line"/>
      <point x="375" y="494"/>
      <point x="348" y="500"/>
      <point x="311" y="500" type="curve" smooth="yes"/>
      <point x="274" y="500"/>
      <point x="247" y="494"/>
      <point x="212" y="476" type="curve"/>
      <point x="138" y="549" type="line"/>
      <point x="53" y="466" type="line"/>
      <point x="128" y="392" type="line"/>
      <point x="108" y="357"/>
      <point x="101" y="330"/>
      <point x="101" y="291" type="curve" smooth="yes"/>
      <point x="101" y="254"/>
      <point x="108" y="227"/>
      <point x="128" y="192" type="curve"/>
      <point x="53" y="118" type="line"/>
      <point x="138" y="35" type="line"/>
    </contour>
    <contour>
      <point x="255" y="201"/>
      <point x="221" y="233"/>
      <point x="221" y="292" type="curve" smooth="yes"/>
      <point x="221" y="351"/>
      <point x="255" y="383"/>
      <point x="311" y="383" type="curve" smooth="yes"/>
      <point x="367" y="383"/>
      <point x="401" y="351"/>
      <point x="401" y="292" type="curve" smooth="yes"/>
      <point x="401" y="233"/>
      <point x="367" y="201"/>
      <point x="311" y="201" type="curve" smooth="yes"/>
    </contour>
  </outline>
</glyph>
<glyph name="dieresis" format="1">
  <advance width="370"/>
  <unicode hex="00A8"/>
  <note>
	dieresis
  </note>
  <outline>
    <contour>
      <point x="320" y="443"/>
      <point x="347" y="469"/>
      <point x="347" y="511" type="curve" smooth="yes"/>
      <point x="347" y="557"/>
      <point x="320" y="582"/>
      <point x="274" y="582" type="curve" smooth="yes"/>
      <point x="228" y="582"/>
      <point x="201" y="557"/>
      <point x="201" y="511" type="curve" smooth="yes"/>
      <point x="201" y="469"/>
      <point x="228" y="443"/>
      <point x="274" y="443" type="curve" smooth="yes"/>
    </contour>
    <contour>
      <point x="142" y="443"/>
      <point x="169" y="469"/>
      <point x="169" y="511" type="curve" smooth="yes"/>
      <point x="169" y="557"/>
      <point x="142" y="582"/>
      <point x="96" y="582" type="curve" smooth="yes"/>
      <point x="50" y="582"/>
      <point x="23" y="557"/>
      <point x="23" y="511" type="curve" smooth="yes"/>
      <point x="23" y="469"/>
      <point x="50" y="443"/>
      <point x="96" y="443" type="curve" smooth="yes"/>
    </contour>
  </outline>
</glyph>
<glyph name="guillemotleft" format="1">
  <advance width="520"/>
  <unicode hex="00AB"/>
  <note>
	guillemotleft
  </note>
  <outline>
    <contour>
      <point x="291" y="113" type="line"/>
      <point x="192" y="248" type="line"/>
      <point x="192" y="254" type="line"/>
      <point x="291" y="389" type="line"/>
      <point x="184" y="440" type="line"/>
      <point x="45" y="251" type="line"/>
      <point x="184" y="62" type="line"/>
    </contour>
    <contour>
      <point x="477" y="124" type="line"/>
      <point x="384" y="248" type="line"/>
      <point x="384" y="254" type="line"/>
      <point x="477" y="378" type="line"/>
      <point x="370" y="429" type="line"/>
      <point x="237" y="251" type="line"/>
      <point x="370" y="73" type="line"/>
    </contour>
  </outline>
</glyph>
<glyph name="registered" format="1">
  <advance width="736"/>
  <unicode hex="00AE"/>
  <note>
	registered
  </note>
  <outline>
    <contour>
      <point x="556" y="-4"/>
      <point x="686" y="127"/>
      <point x="686" y="308" type="curve" smooth="yes"/>
      <point x="686" y="489"/>
      <point x="556" y="620"/>
      <point x="368" y="620" type="curve" smooth="yes"/>
      <point x="180" y="620"/>
      <point x="50" y="489"/>
      <point x="50" y="308" type="curve" smooth="yes"/>
      <point x="50" y="127"/>
      <point x="180" y="-4"/>
      <point x="368" y="-4" type="curve" smooth="yes"/>
    </contour>
    <contour>
      <point x="205" y="56"/>
      <point x="115" y="151"/>
      <point x="115" y="308" type="curve" smooth="yes"/>
      <point x="115" y="465"/>
      <point x="205" y="560"/>
      <point x="368" y="560" type="curve" smooth="yes"/>
      <point x="531" y="560"/>
      <point x="621" y="465"/>
      <point x="621" y="308" type="curve" smooth="yes"/>
      <point x="621" y="151"/>
      <point x="531" y="56"/>
      <point x="368" y="56" type="curve" smooth="yes"/>
    </contour>
    <contour>
      <point x="503" y="133"/>
      <point x="513" y="137"/>
      <point x="532" y="142" type="curve"/>
      <point x="532" y="202" type="line"/>
      <point x="498" y="207" type="line"/>
      <point x="473" y="247" type="line" smooth="yes"/>
      <point x="465" y="259"/>
      <point x="462" y="263"/>
      <point x="453" y="268" type="curve"/>
      <point x="453" y="273" type="line"/>
      <point x="494" y="292"/>
      <point x="516" y="327"/>
      <point x="516" y="378" type="curve" smooth="yes"/>
      <point x="516" y="463"/>
      <point x="462" y="502"/>
      <point x="347" y="502" type="curve" smooth="yes"/>
      <point x="303" y="502"/>
      <point x="248" y="493"/>
      <point x="216" y="483" type="curve"/>
      <point x="216" y="136" type="line"/>
      <point x="326" y="136" type="line"/>
      <point x="326" y="256" type="line"/>
      <point x="362" y="256" type="line"/>
      <point x="366" y="250"/>
      <point x="369" y="242"/>
      <point x="373" y="234" type="curve" smooth="yes"/>
      <point x="399" y="175" type="line" smooth="yes"/>
      <point x="411" y="148"/>
      <point x="434" y="133"/>
      <point x="474" y="133" type="curve" smooth="yes"/>
    </contour>
    <contour>
      <point x="326" y="406" type="line"/>
      <point x="338" y="409"/>
      <point x="344" y="410"/>
      <point x="360" y="410" type="curve" smooth="yes"/>
      <point x="392" y="410"/>
      <point x="405" y="398"/>
      <point x="405" y="375" type="curve" smooth="yes"/>
      <point x="405" y="350"/>
      <point x="391" y="341"/>
      <point x="349" y="341" type="curve" smooth="yes"/>
      <point x="326" y="341" type="line"/>
    </contour>
  </outline>
</glyph>
<glyph name="degree" format="1">
  <advance width="431"/>
  <unicode hex="00B0"/>
  <note>
	degree
  </note>
  <outline>
    <contour>
      <point x="340" y="281"/>
      <point x="424" y="345"/>
      <point x="424" y="455" type="curve" smooth="yes"/>
      <point x="424" y="567"/>
      <point x="354" y="616"/>
      <point x="242" y="616" type="curve" smooth="yes"/>
      <point x="120" y="616"/>
      <point x="35" y="552"/>
      <point x="35" y="442" type="curve" smooth="yes"/>
      <point x="35" y="330"/>
      <point x="107" y="281"/>
      <point x="217" y="281" type="curve" smooth="yes"/>
    </contour>
    <contour>
      <point x="170" y="388"/>
      <point x="159" y="413"/>
      <point x="159" y="454" type="curve" smooth="yes"/>
      <point x="159" y="474"/>
      <point x="160" y="482"/>
      <point x="166" y="501" type="curve"/>
      <point x="190" y="507"/>
      <point x="201" y="509"/>
      <point x="227" y="509" type="curve" smooth="yes"/>
      <point x="292" y="509"/>
      <point x="300" y="484"/>
      <point x="300" y="443" type="curve" smooth="yes"/>
      <point x="300" y="423"/>
      <point x="297" y="412"/>
      <point x="290" y="396" type="curve"/>
      <point x="269" y="389"/>
      <point x="258" y="388"/>
      <point x="232" y="388" type="curve" smooth="yes"/>
    </contour>
  </outline>
</glyph>
<glyph name="plusminus" format="1">
  <advance width="634"/>
  <unicode hex="00B1"/>
  <note>
	plusminus
  </note>
  <outline>
    <contour>
      <point x="391" y="151" type="line"/>
      <point x="391" y="293" type="line"/>
      <point x="569" y="293" type="line"/>
      <point x="569" y="427" type="line"/>
      <point x="391" y="427" type="line"/>
      <point x="391" y="571" type="line"/>
      <point x="243" y="571" type="line"/>
      <point x="243" y="427" type="line"/>
      <point x="65" y="427" type="line"/>
      <point x="65" y="293" type="line"/>
      <point x="243" y="293" type="line"/>
      <point x="243" y="151" type="line"/>
    </contour>
    <contour>
      <point x="568" y="0" type="line"/>
      <point x="568" y="111" type="line"/>
      <point x="74" y="111" type="line"/>
      <point x="74" y="0" type="line"/>
    </contour>
  </outline>
</glyph>
<glyph name="threesuperior" format="1">
  <advance width="336"/>
  <unicode hex="00B3"/>
  <note>
	threesuperior
  </note>
  <outline>
    <contour>
      <point x="258" y="330"/>
      <point x="311" y="367"/>
      <point x="311" y="427" type="curve" smooth="yes"/>
      <point x="311" y="468"/>
      <point x="290" y="493"/>
      <point x="245" y="510" type="curve"/>
      <point x="245" y="513" type="line"/>
      <point x="285" y="531"/>
      <point x="306" y="555"/>
      <point x="306" y="602" type="curve" smooth="yes"/>
      <point x="306" y="664"/>
      <point x="258" y="701"/>
      <point x="163" y="701" type="curve" smooth="yes"/>
      <point x="107" y="701"/>
      <point x="57" y="687"/>
      <point x="18" y="669" type="curve"/>
      <point x="18" y="651" type="line" smooth="yes"/>
      <point x="18" y="624"/>
      <point x="25" y="597"/>
      <point x="34" y="574" type="curve"/>
      <point x="129" y="574" type="line"/>
      <point x="129" y="601" type="line"/>
      <point x="140" y="604"/>
      <point x="146" y="605"/>
      <point x="158" y="605" type="curve" smooth="yes"/>
      <point x="178" y="605"/>
      <point x="185" y="597"/>
      <point x="185" y="581" type="curve" smooth="yes"/>
      <point x="185" y="563"/>
      <point x="175" y="550"/>
      <point x="148" y="550" type="curve" smooth="yes"/>
      <point x="75" y="550" type="line"/>
      <point x="75" y="467" type="line"/>
      <point x="149" y="467" type="line" smooth="yes"/>
      <point x="179" y="467"/>
      <point x="190" y="466"/>
      <point x="190" y="448" type="curve" smooth="yes"/>
      <point x="190" y="441"/>
      <point x="189" y="435"/>
      <point x="186" y="427" type="curve"/>
      <point x="170" y="425"/>
      <point x="152" y="424"/>
      <point x="128" y="424" type="curve" smooth="yes"/>
      <point x="95" y="424"/>
      <point x="63" y="430"/>
      <point x="29" y="440" type="curve"/>
      <point x="16" y="350" type="line"/>
      <point x="50" y="338"/>
      <point x="91" y="330"/>
      <point x="146" y="330" type="curve" smooth="yes"/>
    </contour>
  </outline>
</glyph>
<glyph name="mu" format="1">
  <advance width="567"/>
  <unicode hex="00B5"/>
  <note>
	mu
  </note>
  <outline>
    <contour>
      <point x="196" y="-213" type="line"/>
      <point x="196" y="10" type="line"/>
      <point x="201" y="10" type="line"/>
      <point x="216" y="-1"/>
      <point x="238" y="-8"/>
      <point x="259" y="-8" type="curve" smooth="yes"/>
      <point x="308" y="-8"/>
      <point x="332" y="12"/>
      <point x="359" y="53" type="curve"/>
      <point x="367" y="53" type="line"/>
      <point x="374" y="0" type="line"/>
      <point x="507" y="0" type="line"/>
      <point x="507" y="472" type="line"/>
      <point x="361" y="472" type="line"/>
      <point x="361" y="170" type="line"/>
      <point x="327" y="133"/>
      <point x="295" y="124"/>
      <point x="252" y="124" type="curve" smooth="yes"/>
      <point x="231" y="124"/>
      <point x="222" y="125"/>
      <point x="211" y="129" type="curve"/>
      <point x="211" y="472" type="line"/>
      <point x="64" y="472" type="line"/>
      <point x="64" y="-213" type="line"/>
    </contour>
  </outline>
</glyph>
<glyph name="guillemotright" format="1">
  <advance width="520"/>
  <unicode hex="00BB"/>
  <note>
	guillemotright
  </note>
  <outline>
    <contour>
      <point x="475" y="251" type="line"/>
      <point x="336" y="440" type="line"/>
      <point x="229" y="389" type="line"/>
      <point x="328" y="254" type="line"/>
      <point x="328" y="248" type="line"/>
      <point x="229" y="113" type="line"/>
      <point x="336" y="62" type="line"/>
    </contour>
    <contour>
      <point x="283" y="251" type="line"/>
      <point x="150" y="429" type="line"/>
      <point x="43" y="378" type="line"/>
      <point x="136" y="254" type="line"/>
      <point x="136" y="248" type="line"/>
      <point x="43" y="124" type="line"/>
      <point x="150" y="73" type="line"/>
    </contour>
  </outline>
</glyph>
<glyph name="onehalf" format="1">
  <advance width="824"/>
  <unicode hex="00BD"/>
  <note>
	onehalf
  </note>
  <outline>
    <contour>
      <point x="633" y="585" type="line"/>
      <point x="514" y="624" type="line"/>
      <point x="144" y="18" type="line"/>
      <point x="266" y="-18" type="line"/>
    </contour>
    <contour>
      <point x="248" y="256" type="line"/>
      <point x="248" y="575" type="line" smooth="yes"/>
      <point x="248" y="596"/>
      <point x="188" y="622"/>
      <point x="155" y="624" type="curve"/>
      <point x="45" y="567" type="line"/>
      <point x="71" y="494" type="line"/>
      <point x="122" y="507" type="line"/>
      <point x="127" y="503" type="line"/>
      <point x="127" y="256" type="line"/>
    </contour>
    <contour>
      <point x="816" y="-4" type="line"/>
      <point x="816" y="26" type="line" smooth="yes"/>
      <point x="816" y="51"/>
      <point x="811" y="90"/>
      <point x="803" y="112" type="curve"/>
      <point x="711" y="112" type="line"/>
      <point x="711" y="87" type="line"/>
      <point x="625" y="87" type="line"/>
      <point x="625" y="89" type="line"/>
      <point x="731" y="131"/>
      <point x="804" y="173"/>
      <point x="804" y="260" type="curve" smooth="yes"/>
      <point x="804" y="323"/>
      <point x="753" y="362"/>
      <point x="664" y="362" type="curve" smooth="yes"/>
      <point x="609" y="362"/>
      <point x="560" y="349"/>
      <point x="518" y="327" type="curve"/>
      <point x="518" y="304" type="line" smooth="yes"/>
      <point x="518" y="276"/>
      <point x="524" y="249"/>
      <point x="532" y="229" type="curve"/>
      <point x="629" y="229" type="line"/>
      <point x="629" y="247" type="line"/>
      <point x="638" y="251"/>
      <point x="647" y="253"/>
      <point x="659" y="253" type="curve" smooth="yes"/>
      <point x="675" y="253"/>
      <point x="683" y="248"/>
      <point x="683" y="235" type="curve" smooth="yes"/>
      <point x="683" y="200"/>
      <point x="622" y="158"/>
      <point x="506" y="126" type="curve"/>
      <point x="506" y="-4" type="line"/>
    </contour>
  </outline>
</glyph>
<glyph name="questiondown" format="1">
  <advance width="567"/>
  <unicode hex="00BF"/>
  <note>
	questiondown
  </note>
  <outline>
    <contour>
      <point x="377" y="-110"/>
      <point x="457" y="-83"/>
      <point x="513" y="-53" type="curve"/>
      <point x="513" y="-32" type="line" smooth="yes"/>
      <point x="513" y="7"/>
      <point x="508" y="55"/>
      <point x="499" y="89" type="curve"/>
      <point x="372" y="89" type="line"/>
      <point x="372" y="42" type="line"/>
      <point x="342" y="33"/>
      <point x="322" y="30"/>
      <point x="282" y="30" type="curve" smooth="yes"/>
      <point x="228" y="30"/>
      <point x="198" y="35"/>
      <point x="198" y="75" type="curve" smooth="yes"/>
      <point x="198" y="100" type="line"/>
      <point x="351" y="206" type="line" smooth="yes"/>
      <point x="375" y="223"/>
      <point x="383" y="238"/>
      <point x="383" y="268" type="curve" smooth="yes"/>
      <point x="383" y="360" type="line"/>
      <point x="234" y="360" type="line"/>
      <point x="234" y="305" type="line" smooth="yes"/>
      <point x="234" y="284"/>
      <point x="233" y="273"/>
      <point x="219" y="264" type="curve" smooth="yes"/>
      <point x="118" y="198" type="line"/>
      <point x="65" y="158"/>
      <point x="50" y="120"/>
      <point x="50" y="58" type="curve" smooth="yes"/>
      <point x="50" y="-49"/>
      <point x="130" y="-110"/>
      <point x="280" y="-110" type="curve" smooth="yes"/>
    </contour>
    <contour>
      <point x="384" y="400" type="line"/>
      <point x="384" y="521" type="line"/>
      <point x="230" y="521" type="line"/>
      <point x="230" y="400" type="line"/>
    </contour>
  </outline>
</glyph>
<glyph name="Atilde" format="1">
  <advance width="651"/>
  <unicode hex="00C3"/>
  <note>
	Atilde
  </note>
  <outline>
    <contour>
      <point x="194" y="57"/>
      <point x="209" y="114"/>
      <point x="223" y="168" type="curve"/>
      <point x="428" y="168" type="line"/>
      <point x="441" y="112"/>
      <point x="454" y="56"/>
      <point x="470" y="0" type="curve"/>
      <point x="626" y="9" type="line"/>
      <point x="573" y="211"/>
      <point x="500" y="445"/>
      <point x="432" y="620" type="curve"/>
      <point x="219" y="620" type="line"/>
      <point x="151" y="445"/>
      <point x="78" y="211"/>
      <point x="25" y="9" type="curve"/>
      <point x="181" y="0" type="line"/>
    </contour>
    <contour>
      <point x="279" y="370"/>
      <point x="299" y="432"/>
      <point x="318" y="485" type="curve"/>
      <point x="333" y="485" type="line"/>
      <point x="351" y="432"/>
      <point x="371" y="370"/>
      <point x="391" y="301" type="curve"/>
      <point x="259" y="301" type="line"/>
    </contour>
    <contour>
      <point x="240" y="685"/>
      <point x="243" y="706"/>
      <point x="269" y="706" type="curve" smooth="yes"/>
      <point x="304" y="706"/>
      <point x="340" y="665"/>
      <point x="387" y="665" type="curve" smooth="yes"/>
      <point x="460" y="665"/>
      <point x="483" y="720"/>
      <point x="484" y="803" type="curve"/>
      <point x="392" y="828" type="line"/>
      <point x="391" y="800"/>
      <point x="388" y="779"/>
      <point x="362" y="779" type="curve" smooth="yes"/>
      <point x="333" y="779"/>
      <point x="299" y="820"/>
      <point x="249" y="820" type="curve" smooth="yes"/>
      <point x="171" y="820"/>
      <point x="148" y="765"/>
      <point x="147" y="682" type="curve"/>
      <point x="239" y="657" type="line"/>
    </contour>
  </outline>
</glyph>
<glyph name="Eacute" format="1">
  <advance width="581"/>
  <unicode hex="00C9"/>
  <note>
	Eacute
  </note>
  <outline>
    <contour>
      <point x="413" y="-10"/>
      <point x="484" y="-1"/>
      <point x="535" y="12" type="curve"/>
      <point x="516" y="146" type="line"/>
      <point x="460" y="133"/>
      <point x="402" y="127"/>
      <point x="333" y="127" type="curve" smooth="yes"/>
      <point x="288" y="127"/>
      <point x="256" y="129"/>
      <point x="215" y="137" type="curve"/>
      <point x="215" y="241" type="line"/>
      <point x="479" y="241" type="line"/>
      <point x="479" y="372" type="line"/>
      <point x="215" y="372" type="line"/>
      <point x="215" y="483" type="line"/>
      <point x="530" y="483" type="line"/>
      <point x="530" y="620" type="line"/>
      <point x="65" y="620" type="line"/>
      <point x="65" y="121" type="line" smooth="yes"/>
      <point x="65" y="16"/>
      <point x="176" y="-10"/>
      <point x="328" y="-10" type="curve" smooth="yes"/>
    </contour>
    <contour>
      <point x="466" y="835" type="line"/>
      <point x="310" y="851" type="line"/>
      <point x="228" y="686" type="line"/>
      <point x="332" y="666" type="line"/>
    </contour>
  </outline>
</glyph>
<glyph name="Ecircumflex" format="1">
  <advance width="581"/>
  <unicode hex="00CA"/>
  <note>
	Ecircumflex
  </note>
  <outline>
    <contour>
      <point x="413" y="-10"/>
      <point x="484" y="-1"/>
      <point x="535" y="12" type="curve"/>
      <point x="516" y="146" type="line"/>
      <point x="460" y="133"/>
      <point x="402" y="127"/>
      <point x="333" y="127" type="curve" smooth="yes"/>
      <point x="288" y="127"/>
      <point x="256" y="129"/>
      <point x="215" y="137" type="curve"/>
      <point x="215" y="241" type="line"/>
      <point x="479" y="241" type="line"/>
      <point x="479" y="372" type="line"/>
      <point x="215" y="372" type="line"/>
      <point x="215" y="483" type="line"/>
      <point x="530" y="483" type="line"/>
      <point x="530" y="620" type="line"/>
      <point x="65" y="620" type="line"/>
      <point x="65" y="121" type="line" smooth="yes"/>
      <point x="65" y="16"/>
      <point x="176" y="-10"/>
      <point x="328" y="-10" type="curve" smooth="yes"/>
    </contour>
    <contour>
      <point x="287" y="725" type="line"/>
      <point x="294" y="725" type="line"/>
      <point x="364" y="665" type="line"/>
      <point x="447" y="680" type="line"/>
      <point x="352" y="823" type="line"/>
      <point x="229" y="823" type="line"/>
      <point x="133" y="680" type="line"/>
      <point x="214" y="665" type="line"/>
    </contour>
  </outline>
</glyph>
<glyph name="Igrave" format="1">
  <advance width="286"/>
  <unicode hex="00CC"/>
  <note>
	Igrave
  </note>
  <outline>
    <contour>
      <point x="218" y="0" type="line"/>
      <point x="218" y="620" type="line"/>
      <point x="68" y="620" type="line"/>
      <point x="68" y="0" type="line"/>
    </contour>
    <contour>
      <point x="215" y="685" type="line"/>
      <point x="128" y="840" type="line"/>
      <point x="-42" y="821" type="line"/>
      <point x="92" y="665" type="line"/>
    </contour>
  </outline>
</glyph>
<glyph name="Icircumflex" format="1">
  <advance width="286"/>
  <unicode hex="00CE"/>
  <note>
	Icircumflex
  </note>
  <outline>
    <contour>
      <point x="218" y="0" type="line"/>
      <point x="218" y="620" type="line"/>
      <point x="68" y="620" type="line"/>
      <point x="68" y="0" type="line"/>
    </contour>
    <contour>
      <point x="140" y="725" type="line"/>
      <point x="147" y="725" type="line"/>
      <point x="217" y="665" type="line"/>
      <point x="300" y="680" type="line"/>
      <point x="205" y="823" type="line"/>
      <point x="82" y="823" type="line"/>
      <point x="-14" y="680" type="line"/>
      <point x="67" y="665" type="line"/>
    </contour>
  </outline>
</glyph>
<glyph name="Eth" format="1">
  <advance width="689"/>
  <unicode hex="00D0"/>
  <note>
	Eth
  </note>
  <outline>
    <contour>
      <point x="299" y="0" type="line" smooth="yes"/>
      <point x="567" y="0"/>
      <point x="653" y="127"/>
      <point x="653" y="323" type="curve" smooth="yes"/>
      <point x="653" y="517"/>
      <point x="570" y="630"/>
      <point x="339" y="630" type="curve" smooth="yes"/>
      <point x="261" y="630"/>
      <point x="182" y="621"/>
      <point x="123" y="605" type="curve"/>
      <point x="123" y="384" type="line"/>
      <point x="65" y="384" type="line"/>
      <point x="65" y="260" type="line"/>
      <point x="123" y="260" type="line"/>
      <point x="123" y="0" type="line"/>
    </contour>
    <contour>
      <point x="271" y="260" type="line"/>
      <point x="345" y="260" type="line"/>
      <point x="345" y="384" type="line"/>
      <point x="271" y="384" type="line"/>
      <point x="271" y="486" type="line"/>
      <point x="300" y="490"/>
      <point x="322" y="492"/>
      <point x="351" y="492" type="curve" smooth="yes"/>
      <point x="455" y="492"/>
      <point x="503" y="451"/>
      <point x="503" y="308" type="curve" smooth="yes"/>
      <point x="503" y="255"/>
      <point x="497" y="201"/>
      <point x="482" y="158" type="curve"/>
      <point x="438" y="143"/>
      <point x="385" y="138"/>
      <point x="322" y="138" type="curve" smooth="yes"/>
      <point x="271" y="138" type="line"/>
    </contour>
  </outline>
</glyph>
<glyph name="Ntilde" format="1">
  <advance width="669"/>
  <unicode hex="00D1"/>
  <note>
	Ntilde
  </note>
  <outline>
    <contour>
      <point x="214" y="0" type="line"/>
      <point x="214" y="298" type="line"/>
      <point x="202" y="461" type="line"/>
      <point x="210" y="463" type="line"/>
      <point x="407" y="0" type="line"/>
      <point x="604" y="0" type="line"/>
      <point x="604" y="620" type="line"/>
      <point x="455" y="620" type="line"/>
      <point x="455" y="322" type="line"/>
      <point x="467" y="159" type="line"/>
      <point x="459" y="157" type="line"/>
      <point x="262" y="620" type="line"/>
      <point x="65" y="620" type="line"/>
      <point x="65" y="0" type="line"/>
    </contour>
    <contour>
      <point x="259" y="691"/>
      <point x="262" y="712"/>
      <point x="288" y="712" type="curve" smooth="yes"/>
      <point x="323" y="712"/>
      <point x="359" y="671"/>
      <point x="406" y="671" type="curve" smooth="yes"/>
      <point x="479" y="671"/>
      <point x="502" y="726"/>
      <point x="503" y="809" type="curve"/>
      <point x="411" y="834" type="line"/>
      <point x="410" y="806"/>
      <point x="407" y="785"/>
      <point x="381" y="785" type="curve" smooth="yes"/>
      <point x="352" y="785"/>
      <point x="318" y="826"/>
      <point x="268" y="826" type="curve" smooth="yes"/>
      <point x="190" y="826"/>
      <point x="167" y="771"/>
      <point x="166" y="688" type="curve"/>
      <point x="258" y="663" type="line"/>
    </contour>
  </outline>
</glyph>
<glyph name="Ocircumflex" format="1">
  <advance width="665"/>
  <unicode hex="00D4"/>
  <note>
	Ocircumflex
  </note>
  <outline>
    <contour>
      <point x="512" y="-9"/>
      <point x="623" y="101"/>
      <point x="623" y="321" type="curve" smooth="yes"/>
      <point x="623" y="522"/>
      <point x="533" y="630"/>
      <point x="348" y="630" type="curve" smooth="yes"/>
      <point x="153" y="630"/>
      <point x="42" y="520"/>
      <point x="42" y="300" type="curve" smooth="yes"/>
      <point x="42" y="99"/>
      <point x="132" y="-9"/>
      <point x="317" y="-9" type="curve" smooth="yes"/>
    </contour>
    <contour>
      <point x="214" y="129"/>
      <point x="190" y="194"/>
      <point x="190" y="315" type="curve" smooth="yes"/>
      <point x="190" y="378"/>
      <point x="197" y="424"/>
      <point x="218" y="474" type="curve"/>
      <point x="248" y="486"/>
      <point x="280" y="492"/>
      <point x="327" y="492" type="curve" smooth="yes"/>
      <point x="451" y="492"/>
      <point x="475" y="427"/>
      <point x="475" y="306" type="curve" smooth="yes"/>
      <point x="475" y="243"/>
      <point x="467" y="197"/>
      <point x="447" y="147" type="curve"/>
      <point x="417" y="135"/>
      <point x="385" y="129"/>
      <point x="338" y="129" type="curve" smooth="yes"/>
    </contour>
    <contour>
      <point x="329" y="725" type="line"/>
      <point x="336" y="725" type="line"/>
      <point x="406" y="665" type="line"/>
      <point x="489" y="680" type="line"/>
      <point x="394" y="823" type="line"/>
      <point x="271" y="823" type="line"/>
      <point x="175" y="680" type="line"/>
      <point x="256" y="665" type="line"/>
    </contour>
  </outline>
</glyph>
<glyph name="Oslash" format="1">
  <advance width="665"/>
  <unicode hex="00D8"/>
  <note>
	Oslash
  </note>
  <outline>
    <contour>
      <point x="261" y="-5" type="line"/>
      <point x="278" y="-8"/>
      <point x="297" y="-9"/>
      <point x="317" y="-9" type="curve" smooth="yes"/>
      <point x="512" y="-9"/>
      <point x="623" y="101"/>
      <point x="623" y="321" type="curve" smooth="yes"/>
      <point x="623" y="441"/>
      <point x="590" y="528"/>
      <point x="524" y="579" type="curve"/>
      <point x="564" y="666" type="line"/>
      <point x="430" y="698" type="line"/>
      <point x="398" y="627" type="line"/>
      <point x="382" y="629"/>
      <point x="365" y="630"/>
      <point x="348" y="630" type="curve" smooth="yes"/>
      <point x="153" y="630"/>
      <point x="42" y="520"/>
      <point x="42" y="300" type="curve" smooth="yes"/>
      <point x="42" y="182"/>
      <point x="73" y="97"/>
      <point x="135" y="46" type="curve"/>
      <point x="89" y="-57" type="line"/>
      <point x="223" y="-90" type="line"/>
    </contour>
    <contour>
      <point x="193" y="230"/>
      <point x="190" y="268"/>
      <point x="190" y="315" type="curve" smooth="yes"/>
      <point x="190" y="378"/>
      <point x="197" y="424"/>
      <point x="218" y="474" type="curve"/>
      <point x="248" y="486"/>
      <point x="280" y="492"/>
      <point x="327" y="492" type="curve" smooth="yes"/>
      <point x="330" y="492"/>
      <point x="334" y="492"/>
      <point x="337" y="492" type="curve"/>
      <point x="205" y="200" type="line"/>
    </contour>
    <contour>
      <point x="456" y="428" type="line"/>
      <point x="470" y="397"/>
      <point x="475" y="357"/>
      <point x="475" y="306" type="curve" smooth="yes"/>
      <point x="475" y="243"/>
      <point x="467" y="197"/>
      <point x="447" y="147" type="curve"/>
      <point x="417" y="135"/>
      <point x="385" y="129"/>
      <point x="338" y="129" type="curve" smooth="yes"/>
      <point x="333" y="129"/>
      <point x="327" y="129"/>
      <point x="322" y="129" type="curve"/>
    </contour>
  </outline>
</glyph>
<glyph name="Ugrave" format="1">
  <advance width="653"/>
  <unicode hex="00D9"/>
  <note>
	Ugrave
  </note>
  <outline>
    <contour>
      <point x="469" y="-10"/>
      <point x="590" y="31"/>
      <point x="590" y="135" type="curve" smooth="yes"/>
      <point x="590" y="620" type="line"/>
      <point x="440" y="620" type="line"/>
      <point x="440" y="144" type="line"/>
      <point x="407" y="133"/>
      <point x="378" y="128"/>
      <point x="324" y="128" type="curve" smooth="yes"/>
      <point x="238" y="128"/>
      <point x="213" y="159"/>
      <point x="213" y="253" type="curve" smooth="yes"/>
      <point x="213" y="620" type="line"/>
      <point x="63" y="620" type="line"/>
      <point x="63" y="220" type="line" smooth="yes"/>
      <point x="63" y="81"/>
      <point x="130" y="-10"/>
      <point x="317" y="-10" type="curve" smooth="yes"/>
    </contour>
    <contour>
      <point x="408" y="685" type="line"/>
      <point x="321" y="840" type="line"/>
      <point x="151" y="821" type="line"/>
      <point x="285" y="665" type="line"/>
    </contour>
  </outline>
</glyph>
<glyph name="Udieresis" format="1">
  <advance width="653"/>
  <unicode hex="00DC"/>
  <note>
	Udieresis
  </note>
  <outline>
    <contour>
      <point x="469" y="-10"/>
      <point x="590" y="31"/>
      <point x="590" y="135" type="curve" smooth="yes"/>
      <point x="590" y="620" type="line"/>
      <point x="440" y="620" type="line"/>
      <point x="440" y="144" type="line"/>
      <point x="407" y="133"/>
      <point x="378" y="128"/>
      <point x="324" y="128" type="curve" smooth="yes"/>
      <point x="238" y="128"/>
      <point x="213" y="159"/>
      <point x="213" y="253" type="curve" smooth="yes"/>
      <point x="213" y="620" type="line"/>
      <point x="63" y="620" type="line"/>
      <point x="63" y="220" type="line" smooth="yes"/>
      <point x="63" y="81"/>
      <point x="130" y="-10"/>
      <point x="317" y="-10" type="curve" smooth="yes"/>
    </contour>
    <contour>
      <point x="283" y="665"/>
      <point x="310" y="691"/>
      <point x="310" y="733" type="curve" smooth="yes"/>
      <point x="310" y="779"/>
      <point x="283" y="804"/>
      <point x="237" y="804" type="curve" smooth="yes"/>
      <point x="191" y="804"/>
      <point x="164" y="779"/>
      <point x="164" y="733" type="curve" smooth="yes"/>
      <point x="164" y="691"/>
      <point x="191" y="665"/>
      <point x="237" y="665" type="curve" smooth="yes"/>
    </contour>
    <contour>
      <point x="461" y="665"/>
      <point x="488" y="691"/>
      <point x="488" y="733" type="curve" smooth="yes"/>
      <point x="488" y="779"/>
      <point x="461" y="804"/>
      <point x="415" y="804" type="curve" smooth="yes"/>
      <point x="369" y="804"/>
      <point x="342" y="779"/>
      <point x="342" y="733" type="curve" smooth="yes"/>
      <point x="342" y="691"/>
      <point x="369" y="665"/>
      <point x="415" y="665" type="curve" smooth="yes"/>
    </contour>
  </outline>
</glyph>
<glyph name="germandbls" format="1">
  <advance width="593"/>
  <unicode hex="00DF"/>
  <note>
	germandbls
  </note>
  <outline>
    <contour>
      <point x="467" y="-9"/>
      <point x="537" y="61"/>
      <point x="537" y="175" type="curve" smooth="yes"/>
      <point x="537" y="276"/>
      <point x="494" y="320"/>
      <point x="398" y="352" type="curve"/>
      <point x="398" y="358" type="line"/>
      <point x="460" y="381"/>
      <point x="499" y="421"/>
      <point x="499" y="499" type="curve" smooth="yes"/>
      <point x="499" y="600"/>
      <point x="421" y="664"/>
      <point x="284" y="664" type="curve" smooth="yes"/>
      <point x="148" y="664"/>
      <point x="62" y="594"/>
      <point x="62" y="469" type="curve" smooth="yes"/>
      <point x="62" y="0" type="line"/>
      <point x="209" y="0" type="line"/>
      <point x="209" y="516" type="line"/>
      <point x="230" y="522"/>
      <point x="251" y="525"/>
      <point x="279" y="525" type="curve" smooth="yes"/>
      <point x="327" y="525"/>
      <point x="351" y="512"/>
      <point x="351" y="471" type="curve" smooth="yes"/>
      <point x="351" y="426"/>
      <point x="323" y="415"/>
      <point x="244" y="415" type="curve"/>
      <point x="244" y="281" type="line"/>
      <point x="359" y="281"/>
      <point x="389" y="251"/>
      <point x="389" y="192" type="curve" smooth="yes"/>
      <point x="389" y="166"/>
      <point x="386" y="148"/>
      <point x="379" y="130" type="curve"/>
      <point x="360" y="126"/>
      <point x="344" y="125"/>
      <point x="319" y="125" type="curve" smooth="yes"/>
      <point x="295" y="125"/>
      <point x="274" y="127"/>
      <point x="248" y="134" type="curve"/>
      <point x="227" y="6" type="line"/>
      <point x="256" y="-3"/>
      <point x="290" y="-9"/>
      <point x="337" y="-9" type="curve" smooth="yes"/>
    </contour>
  </outline>
</glyph>
<glyph name="aring" format="1">
  <advance width="522"/>
  <unicode hex="00E5"/>
  <note>
	aring
  </note>
  <outline>
    <contour>
      <point x="245" y="-8"/>
      <point x="286" y="18"/>
      <point x="321" y="66" type="curve"/>
      <point x="329" y="66" type="line"/>
      <point x="338" y="0" type="line"/>
      <point x="464" y="0" type="line"/>
      <point x="464" y="331" type="line" smooth="yes"/>
      <point x="464" y="430"/>
      <point x="395" y="478"/>
      <point x="274" y="478" type="curve" smooth="yes"/>
      <point x="179" y="478"/>
      <point x="120" y="457"/>
      <point x="66" y="428" type="curve"/>
      <point x="66" y="403" type="line" smooth="yes"/>
      <point x="66" y="371"/>
      <point x="70" y="343"/>
      <point x="79" y="313" type="curve"/>
      <point x="203" y="313" type="line"/>
      <point x="213" y="361" type="line"/>
      <point x="229" y="364"/>
      <point x="242" y="365"/>
      <point x="261" y="365" type="curve" smooth="yes"/>
      <point x="300" y="365"/>
      <point x="314" y="357"/>
      <point x="314" y="322" type="curve" smooth="yes"/>
      <point x="314" y="278" type="line"/>
      <point x="292" y="280"/>
      <point x="283" y="281"/>
      <point x="262" y="281" type="curve" smooth="yes"/>
      <point x="124" y="281"/>
      <point x="30" y="239"/>
      <point x="30" y="126" type="curve" smooth="yes"/>
      <point x="30" y="39"/>
      <point x="73" y="-8"/>
      <point x="171" y="-8" type="curve" smooth="yes"/>
    </contour>
    <contour>
      <point x="196" y="113"/>
      <point x="183" y="125"/>
      <point x="183" y="148" type="curve" smooth="yes"/>
      <point x="183" y="160"/>
      <point x="184" y="170"/>
      <point x="189" y="182" type="curve"/>
      <point x="209" y="187"/>
      <point x="224" y="189"/>
      <point x="248" y="189" type="curve" smooth="yes"/>
      <point x="280" y="189"/>
      <point x="294" y="188"/>
      <point x="316" y="184" type="curve"/>
      <point x="316" y="149" type="line"/>
      <point x="291" y="127"/>
      <point x="264" y="113"/>
      <point x="223" y="113" type="curve" smooth="yes"/>
    </contour>
    <contour>
      <point x="360" y="515"/>
      <point x="417" y="560"/>
      <point x="417" y="631" type="curve" smooth="yes"/>
      <point x="417" y="695"/>
      <point x="375" y="743"/>
      <point x="292" y="743" type="curve" smooth="yes"/>
      <point x="181" y="743"/>
      <point x="135" y="684"/>
      <point x="135" y="622" type="curve" smooth="yes"/>
      <point x="135" y="562"/>
      <point x="174" y="515"/>
      <point x="260" y="515" type="curve" smooth="yes"/>
    </contour>
    <contour>
      <point x="251" y="599"/>
      <point x="240" y="612"/>
      <point x="240" y="628" type="curve" smooth="yes"/>
      <point x="240" y="639"/>
      <point x="241" y="645"/>
      <point x="244" y="655" type="curve"/>
      <point x="255" y="658"/>
      <point x="264" y="659"/>
      <point x="278" y="659" type="curve" smooth="yes"/>
      <point x="304" y="659"/>
      <point x="312" y="645"/>
      <point x="312" y="622" type="curve" smooth="yes"/>
      <point x="312" y="616"/>
      <point x="311" y="609"/>
      <point x="309" y="604" type="curve"/>
      <point x="297" y="600"/>
      <point x="290" y="599"/>
      <point x="275" y="599" type="curve" smooth="yes"/>
    </contour>
  </outline>
</glyph>
<glyph name="ae" format="1">
  <advance width="812"/>
  <unicode hex="00E6"/>
  <note>
	ae
  </note>
  <outline>
    <contour>
      <point x="288" y="-8"/>
      <point x="347" y="20"/>
      <point x="394" y="64" type="curve"/>
      <point x="433" y="17"/>
      <point x="493" y="-6"/>
      <point x="570" y="-6" type="curve" smooth="yes"/>
      <point x="668" y="-6"/>
      <point x="727" y="15"/>
      <point x="774" y="46" type="curve"/>
      <point x="738" y="160" type="line"/>
      <point x="696" y="136"/>
      <point x="649" y="119"/>
      <point x="575" y="119" type="curve" smooth="yes"/>
      <point x="495" y="119"/>
      <point x="468" y="144"/>
      <point x="468" y="189" type="curve"/>
      <point x="700" y="187" type="line"/>
      <point x="773" y="259" type="line"/>
      <point x="783" y="395"/>
      <point x="713" y="482"/>
      <point x="567" y="482" type="curve" smooth="yes"/>
      <point x="504" y="482"/>
      <point x="453" y="462"/>
      <point x="417" y="428" type="curve"/>
      <point x="385" y="460"/>
      <point x="335" y="478"/>
      <point x="270" y="478" type="curve" smooth="yes"/>
      <point x="178" y="478"/>
      <point x="120" y="457"/>
      <point x="66" y="428" type="curve"/>
      <point x="66" y="403" type="line" smooth="yes"/>
      <point x="66" y="371"/>
      <point x="70" y="343"/>
      <point x="79" y="313" type="curve"/>
      <point x="203" y="313" type="line"/>
      <point x="213" y="361" type="line"/>
      <point x="229" y="364"/>
      <point x="242" y="365"/>
      <point x="261" y="365" type="curve" smooth="yes"/>
      <point x="300" y="365"/>
      <point x="314" y="357"/>
      <point x="314" y="322" type="curve" smooth="yes"/>
      <point x="314" y="278" type="line"/>
      <point x="292" y="280"/>
      <point x="283" y="281"/>
      <point x="262" y="281" type="curve" smooth="yes"/>
      <point x="124" y="281"/>
      <point x="30" y="239"/>
      <point x="30" y="126" type="curve" smooth="yes"/>
      <point x="30" y="39"/>
      <point x="93" y="-8"/>
      <point x="191" y="-8" type="curve" smooth="yes"/>
    </contour>
    <contour>
      <point x="196" y="113"/>
      <point x="183" y="125"/>
      <point x="183" y="148" type="curve" smooth="yes"/>
      <point x="183" y="160"/>
      <point x="184" y="170"/>
      <point x="189" y="182" type="curve"/>
      <point x="209" y="187"/>
      <point x="224" y="189"/>
      <point x="248" y="189" type="curve" smooth="yes"/>
      <point x="280" y="189"/>
      <point x="294" y="188"/>
      <point x="316" y="184" type="curve"/>
      <point x="316" y="149" type="line"/>
      <point x="291" y="127"/>
      <point x="264" y="113"/>
      <point x="223" y="113" type="curve" smooth="yes"/>
    </contour>
    <contour>
      <point x="470" y="327"/>
      <point x="491" y="358"/>
      <point x="558" y="358" type="curve" smooth="yes"/>
      <point x="603" y="358"/>
      <point x="636" y="338"/>
      <point x="636" y="304" type="curve" smooth="yes"/>
      <point x="636" y="298"/>
      <point x="635" y="293"/>
      <point x="633" y="286" type="curve"/>
      <point x="467" y="282" type="line"/>
    </contour>
  </outline>
</glyph>
<glyph name="edieresis" format="1">
  <advance width="528"/>
  <unicode hex="00EB"/>
  <note>
	edieresis
  </note>
  <outline>
    <contour>
      <point x="384" y="-6"/>
      <point x="443" y="15"/>
      <point x="490" y="46" type="curve"/>
      <point x="454" y="160" type="line"/>
      <point x="412" y="136"/>
      <point x="365" y="119"/>
      <point x="291" y="119" type="curve" smooth="yes"/>
      <point x="211" y="119"/>
      <point x="184" y="144"/>
      <point x="184" y="189" type="curve"/>
      <point x="416" y="187" type="line"/>
      <point x="489" y="259" type="line"/>
      <point x="499" y="395"/>
      <point x="423" y="482"/>
      <point x="277" y="482" type="curve" smooth="yes"/>
      <point x="124" y="482"/>
      <point x="40" y="395"/>
      <point x="40" y="231" type="curve" smooth="yes"/>
      <point x="40" y="74"/>
      <point x="128" y="-6"/>
      <point x="286" y="-6" type="curve" smooth="yes"/>
    </contour>
    <contour>
      <point x="186" y="327"/>
      <point x="207" y="358"/>
      <point x="274" y="358" type="curve" smooth="yes"/>
      <point x="319" y="358"/>
      <point x="352" y="338"/>
      <point x="352" y="304" type="curve" smooth="yes"/>
      <point x="352" y="298"/>
      <point x="351" y="293"/>
      <point x="349" y="286" type="curve"/>
      <point x="183" y="282" type="line"/>
    </contour>
    <contour>
      <point x="231" y="520"/>
      <point x="258" y="546"/>
      <point x="258" y="588" type="curve" smooth="yes"/>
      <point x="258" y="634"/>
      <point x="231" y="659"/>
      <point x="185" y="659" type="curve" smooth="yes"/>
      <point x="139" y="659"/>
      <point x="112" y="634"/>
      <point x="112" y="588" type="curve" smooth="yes"/>
      <point x="112" y="546"/>
      <point x="139" y="520"/>
      <point x="185" y="520" type="curve" smooth="yes"/>
    </contour>
    <contour>
      <point x="409" y="520"/>
      <point x="436" y="546"/>
      <point x="436" y="588" type="curve" smooth="yes"/>
      <point x="436" y="634"/>
      <point x="409" y="659"/>
      <point x="363" y="659" type="curve" smooth="yes"/>
      <point x="317" y="659"/>
      <point x="290" y="634"/>
      <point x="290" y="588" type="curve" smooth="yes"/>
      <point x="290" y="546"/>
      <point x="317" y="520"/>
      <point x="363" y="520" type="curve" smooth="yes"/>
    </contour>
  </outline>
</glyph>
<glyph name="icircumflex" format="1">
  <advance width="274"/>
  <unicode hex="00EE"/>
  <note>
	icircumflex
  </note>
  <outline>
    <contour>
      <point x="211" y="0" type="line"/>
      <point x="211" y="472" type="line"/>
      <point x="63" y="472" type="line"/>
      <point x="63" y="0" type="line"/>
    </contour>
    <contour>
      <point x="135" y="580" type="line"/>
      <point x="142" y="580" type="line"/>
      <point x="212" y="520" type="line"/>
      <point x="295" y="535" type="line"/>
      <point x="200" y="678" type="line"/>
      <point x="77" y="678" type="line"/>
      <point x="-19" y="535" type="line"/>
      <point x="62" y="520" type="line"/>
    </contour>
  </outline>
</glyph>
<glyph name="eth" format="1">
  <advance width="603"/>
  <unicode hex="00F0"/>
  <note>
	eth
  </note>
  <outline>
    <contour>
      <point x="464" y="-16"/>
      <point x="533" y="98"/>
      <point x="533" y="248" type="curve" smooth="yes"/>
      <point x="533" y="343"/>
      <point x="514" y="419"/>
      <point x="471" y="482" type="curve"/>
      <point x="548" y="510" type="line"/>
      <point x="505" y="597" type="line"/>
      <point x="400" y="556" type="line"/>
      <point x="370" y="580"/>
      <point x="334" y="601"/>
      <point x="292" y="621" type="curve"/>
      <point x="206" y="548" type="line"/>
      <point x="232" y="536"/>
      <point x="256" y="524"/>
      <point x="277" y="509" type="curve"/>
      <point x="201" y="480" type="line"/>
      <point x="236" y="396" type="line"/>
      <point x="351" y="438" type="line"/>
      <point x="371" y="407"/>
      <point x="383" y="374"/>
      <point x="383" y="336" type="curve"/>
      <point x="377" y="336" type="line"/>
      <point x="346" y="365"/>
      <point x="312" y="379"/>
      <point x="266" y="379" type="curve" smooth="yes"/>
      <point x="152" y="379"/>
      <point x="65" y="316"/>
      <point x="65" y="185" type="curve" smooth="yes"/>
      <point x="65" y="50"/>
      <point x="152" y="-16"/>
      <point x="284" y="-16" type="curve" smooth="yes"/>
    </contour>
    <contour>
      <point x="230" y="111"/>
      <point x="210" y="139"/>
      <point x="210" y="184" type="curve" smooth="yes"/>
      <point x="210" y="227"/>
      <point x="236" y="251"/>
      <point x="296" y="251" type="curve" smooth="yes"/>
      <point x="337" y="251"/>
      <point x="355" y="247"/>
      <point x="384" y="236" type="curve"/>
      <point x="386" y="222"/>
      <point x="387" y="205"/>
      <point x="387" y="190" type="curve" smooth="yes"/>
      <point x="387" y="160"/>
      <point x="384" y="139"/>
      <point x="377" y="118" type="curve"/>
      <point x="346" y="113"/>
      <point x="332" y="111"/>
      <point x="298" y="111" type="curve" smooth="yes"/>
    </contour>
  </outline>
</glyph>
<glyph name="otilde" format="1">
  <advance width="557"/>
  <unicode hex="00F5"/>
  <note>
	otilde
  </note>
  <outline>
    <contour>
      <point x="442" y="-9"/>
      <point x="517" y="99"/>
      <point x="517" y="244" type="curve" smooth="yes"/>
      <point x="517" y="388"/>
      <point x="456" y="482"/>
      <point x="295" y="482" type="curve" smooth="yes"/>
      <point x="133" y="482"/>
      <point x="40" y="374"/>
      <point x="40" y="226" type="curve" smooth="yes"/>
      <point x="40" y="82"/>
      <point x="101" y="-9"/>
      <point x="262" y="-9" type="curve" smooth="yes"/>
    </contour>
    <contour>
      <point x="210" y="116"/>
      <point x="186" y="144"/>
      <point x="186" y="233" type="curve" smooth="yes"/>
      <point x="186" y="278"/>
      <point x="191" y="315"/>
      <point x="203" y="345" type="curve"/>
      <point x="227" y="351"/>
      <point x="252" y="354"/>
      <point x="277" y="354" type="curve" smooth="yes"/>
      <point x="348" y="354"/>
      <point x="371" y="324"/>
      <point x="371" y="237" type="curve" smooth="yes"/>
      <point x="371" y="192"/>
      <point x="366" y="156"/>
      <point x="354" y="126" type="curve"/>
      <point x="330" y="119"/>
      <point x="305" y="116"/>
      <point x="280" y="116" type="curve" smooth="yes"/>
    </contour>
    <contour>
      <point x="203" y="540"/>
      <point x="206" y="561"/>
      <point x="232" y="561" type="curve" smooth="yes"/>
      <point x="267" y="561"/>
      <point x="303" y="520"/>
      <point x="350" y="520" type="curve" smooth="yes"/>
      <point x="423" y="520"/>
      <point x="446" y="575"/>
      <point x="447" y="658" type="curve"/>
      <point x="355" y="683" type="line"/>
      <point x="354" y="655"/>
      <point x="351" y="634"/>
      <point x="325" y="634" type="curve" smooth="yes"/>
      <point x="296" y="634"/>
      <point x="262" y="675"/>
      <point x="212" y="675" type="curve" smooth="yes"/>
      <point x="134" y="675"/>
      <point x="111" y="620"/>
      <point x="110" y="537" type="curve"/>
      <point x="202" y="512" type="line"/>
    </contour>
  </outline>
</glyph>
<glyph name="thorn" format="1">
  <advance width="539"/>
  <unicode hex="00FE"/>
  <note>
	thorn
  </note>
  <outline>
    <contour>
      <point x="214" y="-180" type="line"/>
      <point x="214" y="91" type="line"/>
      <point x="221" y="91" type="line"/>
      <point x="258" y="68"/>
      <point x="289" y="55"/>
      <point x="339" y="55" type="curve" smooth="yes"/>
      <point x="457" y="55"/>
      <point x="509" y="147"/>
      <point x="509" y="265" type="curve" smooth="yes"/>
      <point x="509" y="383"/>
      <point x="457" y="475"/>
      <point x="339" y="475" type="curve" smooth="yes"/>
      <point x="289" y="475"/>
      <point x="256" y="463"/>
      <point x="221" y="439" type="curve"/>
      <point x="214" y="439" type="line"/>
      <point x="214" y="676" type="line"/>
      <point x="65" y="676" type="line"/>
      <point x="65" y="-180" type="line"/>
    </contour>
    <contour>
      <point x="256" y="191"/>
      <point x="237" y="197"/>
      <point x="214" y="209" type="curve"/>
      <point x="214" y="324" type="line"/>
      <point x="238" y="334"/>
      <point x="256" y="339"/>
      <point x="290" y="339" type="curve" smooth="yes"/>
      <point x="331" y="339"/>
      <point x="361" y="324"/>
      <point x="361" y="265" type="curve" smooth="yes"/>
      <point x="361" y="209"/>
      <point x="338" y="191"/>
      <point x="287" y="191" type="curve" smooth="yes"/>
    </contour>
  </outline>
</glyph>
<glyph name="Abreve" format="1">
  <advance width="651"/>
  <unicode hex="0102"/>
  <note>
	Abreve
  </note>
  <outline>
    <contour>
      <point x="194" y="57"/>
      <point x="209" y="114"/>
      <point x="223" y="168" type="curve"/>
      <point x="428" y="168" type="line"/>
      <point x="441" y="112"/>
      <point x="454" y="56"/>
      <point x="470" y="0" type="curve"/>
      <point x="626" y="9" type="line"/>
      <point x="573" y="211"/>
      <point x="500" y="445"/>
      <point x="432" y="620" type="curve"/>
      <point x="219" y="620" type="line"/>
      <point x="151" y="445"/>
      <point x="78" y="211"/>
      <point x="25" y="9" type="curve"/>
      <point x="181" y="0" type="line"/>
    </contour>
    <contour>
      <point x="279" y="370"/>
      <point x="299" y="432"/>
      <point x="318" y="485" type="curve"/>
      <point x="333" y="485" type="line"/>
      <point x="351" y="432"/>
      <point x="371" y="370"/>
      <point x="391" y="301" type="curve"/>
      <point x="259" y="301" type="line"/>
    </contour>
    <contour>
      <point x="436" y="665"/>
      <point x="481" y="712"/>
      <point x="489" y="807" type="curve"/>
      <point x="363" y="826" type="line"/>
      <point x="362" y="799"/>
      <point x="351" y="781"/>
      <point x="325" y="781" type="curve" smooth="yes"/>
      <point x="299" y="781"/>
      <point x="288" y="799"/>
      <point x="287" y="826" type="curve"/>
      <point x="161" y="807" type="line"/>
      <point x="169" y="712"/>
      <point x="214" y="665"/>
      <point x="325" y="665" type="curve" smooth="yes"/>
    </contour>
  </outline>
</glyph>
<glyph name="aogonek" format="1">
  <advance width="522"/>
  <unicode hex="0105"/>
  <note>
	aogonek
  </note>
  <outline>
    <contour>
      <point x="245" y="-8"/>
      <point x="286" y="18"/>
      <point x="321" y="66" type="curve"/>
      <point x="329" y="66" type="line"/>
      <point x="339" y="0" type="line"/>
      <point x="464" y="0" type="line"/>
      <point x="464" y="331" type="line" smooth="yes"/>
      <point x="464" y="430"/>
      <point x="395" y="478"/>
      <point x="274" y="478" type="curve" smooth="yes"/>
      <point x="179" y="478"/>
      <point x="120" y="457"/>
      <point x="66" y="428" type="curve"/>
      <point x="66" y="403" type="line" smooth="yes"/>
      <point x="66" y="371"/>
      <point x="70" y="343"/>
      <point x="79" y="313" type="curve"/>
      <point x="203" y="313" type="line"/>
      <point x="213" y="361" type="line"/>
      <point x="229" y="364"/>
      <point x="242" y="365"/>
      <point x="261" y="365" type="curve" smooth="yes"/>
      <point x="300" y="365"/>
      <point x="314" y="357"/>
      <point x="314" y="322" type="curve" smooth="yes"/>
      <point x="314" y="278" type="line"/>
      <point x="292" y="280"/>
      <point x="283" y="281"/>
      <point x="262" y="281" type="curve" smooth="yes"/>
      <point x="124" y="281"/>
      <point x="30" y="239"/>
      <point x="30" y="126" type="curve" smooth="yes"/>
      <point x="30" y="39"/>
      <point x="73" y="-8"/>
      <point x="171" y="-8" type="curve" smooth="yes"/>
    </contour>
    <contour>
      <point x="435" y="-187"/>
      <point x="469" y="-179"/>
      <point x="491" y="-168" type="curve"/>
      <point x="467" y="-70" type="line"/>
      <point x="454" y="-75"/>
      <point x="443" y="-77"/>
      <point x="431" y="-77" type="curve" smooth="yes"/>
      <point x="417" y="-77"/>
      <point x="408" y="-76"/>
      <point x="398" y="-73" type="curve"/>
      <point x="396" y="-67"/>
      <point x="395" y="-63"/>
      <point x="395" y="-56" type="curve" smooth="yes"/>
      <point x="395" y="-29"/>
      <point x="408" y="-12"/>
      <point x="458" y="6" type="curve"/>
      <point x="358" y="16" type="line"/>
      <point x="287" y="-11"/>
      <point x="262" y="-47"/>
      <point x="262" y="-97" type="curve" smooth="yes"/>
      <point x="262" y="-154"/>
      <point x="300" y="-187"/>
      <point x="398" y="-187" type="curve" smooth="yes"/>
    </contour>
    <contour>
      <point x="196" y="113"/>
      <point x="183" y="125"/>
      <point x="183" y="148" type="curve" smooth="yes"/>
      <point x="183" y="160"/>
      <point x="184" y="170"/>
      <point x="189" y="182" type="curve"/>
      <point x="209" y="187"/>
      <point x="224" y="189"/>
      <point x="248" y="189" type="curve" smooth="yes"/>
      <point x="280" y="189"/>
      <point x="294" y="188"/>
      <point x="316" y="184" type="curve"/>
      <point x="316" y="149" type="line"/>
      <point x="291" y="127"/>
      <point x="264" y="113"/>
      <point x="223" y="113" type="curve" smooth="yes"/>
    </contour>
  </outline>
</glyph>
<glyph name="Ccircumflex" format="1">
  <advance width="628"/>
  <unicode hex="0108"/>
  <note>
	Ccircumflex
  </note>
  <outline>
    <contour>
      <point x="464" y="-10"/>
      <point x="535" y="16"/>
      <point x="596" y="60" type="curve"/>
      <point x="538" y="177" type="line"/>
      <point x="492" y="149"/>
      <point x="438" y="129"/>
      <point x="360" y="129" type="curve" smooth="yes"/>
      <point x="238" y="129"/>
      <point x="194" y="181"/>
      <point x="194" y="297" type="curve" smooth="yes"/>
      <point x="194" y="364"/>
      <point x="201" y="420"/>
      <point x="218" y="479" type="curve"/>
      <point x="259" y="488"/>
      <point x="290" y="491"/>
      <point x="328" y="491" type="curve" smooth="yes"/>
      <point x="364" y="491"/>
      <point x="385" y="489"/>
      <point x="410" y="483" type="curve"/>
      <point x="420" y="409" type="line"/>
      <point x="544" y="409" type="line"/>
      <point x="553" y="441"/>
      <point x="557" y="500"/>
      <point x="557" y="541" type="curve" smooth="yes"/>
      <point x="557" y="583" type="line"/>
      <point x="507" y="609"/>
      <point x="442" y="630"/>
      <point x="342" y="630" type="curve" smooth="yes"/>
      <point x="137" y="630"/>
      <point x="44" y="488"/>
      <point x="44" y="291" type="curve" smooth="yes"/>
      <point x="44" y="89"/>
      <point x="154" y="-10"/>
      <point x="350" y="-10" type="curve" smooth="yes"/>
    </contour>
    <contour>
      <point x="331" y="725" type="line"/>
      <point x="338" y="725" type="line"/>
      <point x="408" y="665" type="line"/>
      <point x="491" y="680" type="line"/>
      <point x="396" y="823" type="line"/>
      <point x="273" y="823" type="line"/>
      <point x="177" y="680" type="line"/>
      <point x="258" y="665" type="line"/>
    </contour>
  </outline>
</glyph>
<glyph name="Cdotaccent" format="1">
  <advance width="628"/>
  <unicode hex="010A"/>
  <note>
	Cdotaccent
  </note>
  <outline>
    <contour>
      <point x="464" y="-10"/>
      <point x="535" y="16"/>
      <point x="596" y="60" type="curve"/>
      <point x="538" y="177" type="line"/>
      <point x="492" y="149"/>
      <point x="438" y="129"/>
      <point x="360" y="129" type="curve" smooth="yes"/>
      <point x="238" y="129"/>
      <point x="194" y="181"/>
      <point x="194" y="297" type="curve" smooth="yes"/>
      <point x="194" y="364"/>
      <point x="201" y="420"/>
      <point x="218" y="479" type="curve"/>
      <point x="259" y="488"/>
      <point x="290" y="491"/>
      <point x="328" y="491" type="curve" smooth="yes"/>
      <point x="364" y="491"/>
      <point x="385" y="489"/>
      <point x="410" y="483" type="curve"/>
      <point x="420" y="409" type="line"/>
      <point x="544" y="409" type="line"/>
      <point x="553" y="441"/>
      <point x="557" y="500"/>
      <point x="557" y="541" type="curve" smooth="yes"/>
      <point x="557" y="583" type="line"/>
      <point x="507" y="609"/>
      <point x="442" y="630"/>
      <point x="342" y="630" type="curve" smooth="yes"/>
      <point x="137" y="630"/>
      <point x="44" y="488"/>
      <point x="44" y="291" type="curve" smooth="yes"/>
      <point x="44" y="89"/>
      <point x="154" y="-10"/>
      <point x="350" y="-10" type="curve" smooth="yes"/>
    </contour>
    <contour>
      <point x="391" y="665"/>
      <point x="421" y="694"/>
      <point x="421" y="741" type="curve" smooth="yes"/>
      <point x="421" y="792"/>
      <point x="391" y="820"/>
      <point x="340" y="820" type="curve" smooth="yes"/>
      <point x="288" y="820"/>
      <point x="258" y="792"/>
      <point x="258" y="741" type="curve" smooth="yes"/>
      <point x="258" y="694"/>
      <point x="288" y="665"/>
      <point x="340" y="665" type="curve" smooth="yes"/>
    </contour>
  </outline>
</glyph>
<glyph name="Ccaron" format="1">
  <advance width="628"/>
  <unicode hex="010C"/>
  <note>
	Ccaron
  </note>
  <outline>
    <contour>
      <point x="464" y="-10"/>
      <point x="535" y="16"/>
      <point x="596" y="60" type="curve"/>
      <point x="538" y="177" type="line"/>
      <point x="492" y="149"/>
      <point x="438" y="129"/>
      <point x="360" y="129" type="curve" smooth="yes"/>
      <point x="238" y="129"/>
      <point x="194" y="181"/>
      <point x="194" y="297" type="curve" smooth="yes"/>
      <point x="194" y="364"/>
      <point x="201" y="420"/>
      <point x="218" y="479" type="curve"/>
      <point x="259" y="488"/>
      <point x="290" y="491"/>
      <point x="328" y="491" type="curve" smooth="yes"/>
      <point x="364" y="491"/>
      <point x="385" y="489"/>
      <point x="410" y="483" type="curve"/>
      <point x="420" y="409" type="line"/>
      <point x="544" y="409" type="line"/>
      <point x="553" y="441"/>
      <point x="557" y="500"/>
      <point x="557" y="541" type="curve" smooth="yes"/>
      <point x="557" y="583" type="line"/>
      <point x="507" y="609"/>
      <point x="442" y="630"/>
      <point x="342" y="630" type="curve" smooth="yes"/>
      <point x="137" y="630"/>
      <point x="44" y="488"/>
      <point x="44" y="291" type="curve" smooth="yes"/>
      <point x="44" y="89"/>
      <point x="154" y="-10"/>
      <point x="350" y="-10" type="curve" smooth="yes"/>
    </contour>
    <contour>
      <point x="406" y="665" type="line"/>
      <point x="501" y="808" type="line"/>
      <point x="418" y="823" type="line"/>
      <point x="348" y="763" type="line"/>
      <point x="341" y="763" type="line"/>
      <point x="268" y="823" type="line"/>
      <point x="187" y="808" type="line"/>
      <point x="283" y="665" type="line"/>
    </contour>
  </outline>
</glyph>
<glyph name="dcaron" format="1">
  <advance width="746"/>
  <unicode hex="010F"/>
  <note>
	dcaron
  </note>
  <outline>
    <contour>
      <point x="299" y="-8"/>
      <point x="331" y="23"/>
      <point x="361" y="64" type="curve"/>
      <point x="369" y="64" type="line"/>
      <point x="373" y="0" type="line"/>
      <point x="514" y="0" type="line"/>
      <point x="514" y="671" type="line"/>
      <point x="364" y="671" type="line"/>
      <point x="364" y="507" type="line"/>
      <point x="372" y="413" type="line"/>
      <point x="366" y="413" type="line"/>
      <point x="331" y="454"/>
      <point x="302" y="478"/>
      <point x="227" y="478" type="curve" smooth="yes"/>
      <point x="95" y="478"/>
      <point x="40" y="356"/>
      <point x="40" y="235" type="curve" smooth="yes"/>
      <point x="40" y="80"/>
      <point x="99" y="-8"/>
      <point x="224" y="-8" type="curve" smooth="yes"/>
    </contour>
    <contour>
      <point x="211" y="130"/>
      <point x="194" y="161"/>
      <point x="194" y="232" type="curve" smooth="yes"/>
      <point x="194" y="318"/>
      <point x="225" y="340"/>
      <point x="269" y="340" type="curve" smooth="yes"/>
      <point x="315" y="340"/>
      <point x="338" y="328"/>
      <point x="364" y="305" type="curve"/>
      <point x="364" y="176" type="line"/>
      <point x="342" y="145"/>
      <point x="312" y="130"/>
      <point x="265" y="130" type="curve" smooth="yes"/>
    </contour>
    <contour>
      <point x="711" y="497"/>
      <point x="736" y="545"/>
      <point x="736" y="591" type="curve" smooth="yes"/>
      <point x="736" y="649"/>
      <point x="706" y="677"/>
      <point x="643" y="677" type="curve" smooth="yes"/>
      <point x="613" y="677"/>
      <point x="580" y="671"/>
      <point x="558" y="663" type="curve"/>
      <point x="558" y="562" type="line"/>
      <point x="611" y="562" type="line"/>
      <point x="608" y="535"/>
      <point x="600" y="514"/>
      <point x="581" y="484" type="curve"/>
      <point x="677" y="463" type="line"/>
    </contour>
  </outline>
</glyph>
<glyph name="Dcroat" format="1">
  <advance width="682"/>
  <unicode hex="0110"/>
  <note>
	Dcroat
  </note>
  <outline>
    <contour>
      <point x="292" y="0" type="line" smooth="yes"/>
      <point x="560" y="0"/>
      <point x="646" y="127"/>
      <point x="646" y="323" type="curve" smooth="yes"/>
      <point x="646" y="517"/>
      <point x="563" y="630"/>
      <point x="332" y="630" type="curve" smooth="yes"/>
      <point x="254" y="630"/>
      <point x="175" y="621"/>
      <point x="116" y="605" type="curve"/>
      <point x="116" y="372" type="line"/>
      <point x="35" y="372" type="line"/>
      <point x="35" y="237" type="line"/>
      <point x="116" y="237" type="line"/>
      <point x="116" y="0" type="line"/>
    </contour>
    <contour>
      <point x="264" y="237" type="line"/>
      <point x="362" y="237" type="line"/>
      <point x="362" y="372" type="line"/>
      <point x="264" y="372" type="line"/>
      <point x="264" y="486" type="line"/>
      <point x="293" y="490"/>
      <point x="315" y="492"/>
      <point x="344" y="492" type="curve" smooth="yes"/>
      <point x="448" y="492"/>
      <point x="496" y="451"/>
      <point x="496" y="308" type="curve" smooth="yes"/>
      <point x="496" y="255"/>
      <point x="490" y="201"/>
      <point x="475" y="158" type="curve"/>
      <point x="431" y="143"/>
      <point x="378" y="138"/>
      <point x="315" y="138" type="curve" smooth="yes"/>
      <point x="264" y="138" type="line"/>
    </contour>
  </outline>
</glyph>
<glyph name="emacron" format="1">
  <advance width="528"/>
  <unicode hex="0113"/>
  <note>
	emacron
  </note>
  <outline>
    <contour>
      <point x="384" y="-6"/>
      <point x="443" y="15"/>
      <point x="490" y="46" type="curve"/>
      <point x="454" y="160" type="line"/>
      <point x="412" y="136"/>
      <point x="365" y="119"/>
      <point x="291" y="119" type="curve" smooth="yes"/>
      <point x="211" y="119"/>
      <point x="184" y="144"/>
      <point x="184" y="189" type="curve"/>
      <point x="416" y="187" type="line"/>
      <point x="489" y="259" type="line"/>
      <point x="499" y="395"/>
      <point x="423" y="482"/>
      <point x="277" y="482" type="curve" smooth="yes"/>
      <point x="124" y="482"/>
      <point x="40" y="395"/>
      <point x="40" y="231" type="curve" smooth="yes"/>
      <point x="40" y="74"/>
      <point x="128" y="-6"/>
      <point x="286" y="-6" type="curve" smooth="yes"/>
    </contour>
    <contour>
      <point x="186" y="327"/>
      <point x="207" y="358"/>
      <point x="274" y="358" type="curve" smooth="yes"/>
      <point x="319" y="358"/>
      <point x="352" y="338"/>
      <point x="352" y="304" type="curve" smooth="yes"/>
      <point x="352" y="298"/>
      <point x="351" y="293"/>
      <point x="349" y="286" type="curve"/>
      <point x="183" y="282" type="line"/>
    </contour>
    <contour>
      <point x="407" y="520" type="line"/>
      <point x="407" y="631" type="line"/>
      <point x="140" y="631" type="line"/>
      <point x="140" y="520" type="line"/>
    </contour>
  </outline>
</glyph>
<glyph name="Ebreve" format="1">
  <advance width="581"/>
  <unicode hex="0114"/>
  <note>
	Ebreve
  </note>
  <outline>
    <contour>
      <point x="413" y="-10"/>
      <point x="484" y="-1"/>
      <point x="535" y="12" type="curve"/>
      <point x="516" y="146" type="line"/>
      <point x="460" y="133"/>
      <point x="402" y="127"/>
      <point x="333" y="127" type="curve" smooth="yes"/>
      <point x="288" y="127"/>
      <point x="256" y="129"/>
      <point x="215" y="137" type="curve"/>
      <point x="215" y="241" type="line"/>
      <point x="479" y="241" type="line"/>
      <point x="479" y="372" type="line"/>
      <point x="215" y="372" type="line"/>
      <point x="215" y="483" type="line"/>
      <point x="530" y="483" type="line"/>
      <point x="530" y="620" type="line"/>
      <point x="65" y="620" type="line"/>
      <point x="65" y="121" type="line" smooth="yes"/>
      <point x="65" y="16"/>
      <point x="176" y="-10"/>
      <point x="328" y="-10" type="curve" smooth="yes"/>
    </contour>
    <contour>
      <point x="410" y="665"/>
      <point x="455" y="712"/>
      <point x="463" y="807" type="curve"/>
      <point x="337" y="826" type="line"/>
      <point x="336" y="799"/>
      <point x="325" y="781"/>
      <point x="299" y="781" type="curve" smooth="yes"/>
      <point x="273" y="781"/>
      <point x="262" y="799"/>
      <point x="261" y="826" type="curve"/>
      <point x="135" y="807" type="line"/>
      <point x="143" y="712"/>
      <point x="188" y="665"/>
      <point x="299" y="665" type="curve" smooth="yes"/>
    </contour>
  </outline>
</glyph>
<glyph name="Eogonek" format="1">
  <advance width="581"/>
  <unicode hex="0118"/>
  <note>
	Eogonek
  </note>
  <outline>
    <contour>
      <point x="499" y="-182"/>
      <point x="533" y="-174"/>
      <point x="555" y="-163" type="curve"/>
      <point x="531" y="-65" type="line"/>
      <point x="518" y="-70"/>
      <point x="507" y="-72"/>
      <point x="495" y="-72" type="curve" smooth="yes"/>
      <point x="481" y="-72"/>
      <point x="472" y="-71"/>
      <point x="462" y="-68" type="curve"/>
      <point x="460" y="-62"/>
      <point x="459" y="-58"/>
      <point x="459" y="-51" type="curve" smooth="yes"/>
      <point x="459" y="-30"/>
      <point x="468" y="-13"/>
      <point x="504" y="5" type="curve"/>
      <point x="513" y="7"/>
      <point x="526" y="10"/>
      <point x="535" y="12" type="curve"/>
      <point x="516" y="146" type="line"/>
      <point x="460" y="133"/>
      <point x="402" y="127"/>
      <point x="333" y="127" type="curve" smooth="yes"/>
      <point x="288" y="127"/>
      <point x="256" y="129"/>
      <point x="215" y="137" type="curve"/>
      <point x="215" y="241" type="line"/>
      <point x="479" y="241" type="line"/>
      <point x="479" y="372" type="line"/>
      <point x="215" y="372" type="line"/>
      <point x="215" y="483" type="line"/>
      <point x="530" y="483" type="line"/>
      <point x="530" y="620" type="line"/>
      <point x="65" y="620" type="line"/>
      <point x="65" y="121" type="line" smooth="yes"/>
      <point x="65" y="16"/>
      <point x="176" y="-10"/>
      <point x="328" y="-10" type="curve" smooth="yes"/>
      <point x="340" y="-10"/>
      <point x="353" y="-10"/>
      <point x="365" y="-9" type="curve"/>
      <point x="337" y="-32"/>
      <point x="326" y="-59"/>
      <point x="326" y="-92" type="curve" smooth="yes"/>
      <point x="326" y="-149"/>
      <point x="364" y="-182"/>
      <point x="462" y="-182" type="curve" smooth="yes"/>
    </contour>
  </outline>
</glyph>
<glyph name="eogonek" format="1">
  <advance width="528"/>
  <unicode hex="0119"/>
  <note>
	eogonek
  </note>
  <outline>
    <contour>
      <point x="413" y="-175"/>
      <point x="447" y="-167"/>
      <point x="469" y="-156" type="curve"/>
      <point x="445" y="-58" type="line"/>
      <point x="432" y="-63"/>
      <point x="421" y="-65"/>
      <point x="409" y="-65" type="curve" smooth="yes"/>
      <point x="395" y="-65"/>
      <point x="386" y="-64"/>
      <point x="376" y="-61" type="curve"/>
      <point x="374" y="-55"/>
      <point x="373" y="-51"/>
      <point x="373" y="-44" type="curve" smooth="yes"/>
      <point x="373" y="-22"/>
      <point x="381" y="-6"/>
      <point x="416" y="11" type="curve"/>
      <point x="445" y="20"/>
      <point x="468" y="32"/>
      <point x="490" y="46" type="curve"/>
      <point x="454" y="160" type="line"/>
      <point x="412" y="136"/>
      <point x="365" y="119"/>
      <point x="291" y="119" type="curve" smooth="yes"/>
      <point x="211" y="119"/>
      <point x="184" y="144"/>
      <point x="184" y="189" type="curve"/>
      <point x="416" y="187" type="line"/>
      <point x="489" y="259" type="line"/>
      <point x="499" y="395"/>
      <point x="423" y="482"/>
      <point x="277" y="482" type="curve" smooth="yes"/>
      <point x="124" y="482"/>
      <point x="40" y="395"/>
      <point x="40" y="231" type="curve" smooth="yes"/>
      <point x="40" y="78"/>
      <point x="123" y="-1"/>
      <point x="271" y="-6" type="curve" smooth="yes"/>
      <point x="272" y="-6"/>
      <point x="274" y="-6"/>
      <point x="275" y="-6" type="curve"/>
      <point x="250" y="-27"/>
      <point x="240" y="-53"/>
      <point x="240" y="-85" type="curve" smooth="yes"/>
      <point x="240" y="-142"/>
      <point x="278" y="-175"/>
      <point x="376" y="-175" type="curve" smooth="yes"/>
    </contour>
    <contour>
      <point x="186" y="327"/>
      <point x="207" y="358"/>
      <point x="274" y="358" type="curve" smooth="yes"/>
      <point x="319" y="358"/>
      <point x="352" y="338"/>
      <point x="352" y="304" type="curve" smooth="yes"/>
      <point x="352" y="298"/>
      <point x="351" y="293"/>
      <point x="349" y="286" type="curve"/>
      <point x="183" y="282" type="line"/>
    </contour>
  </outline>
</glyph>
<glyph name="Gdotaccent" format="1">
  <advance width="642"/>
  <unicode hex="0120"/>
  <note>
	Gdotaccent
  </note>
  <outline>
    <contour>
      <point x="495" y="-10"/>
      <point x="594" y="44"/>
      <point x="594" y="133" type="curve" smooth="yes"/>
      <point x="594" y="295" type="line"/>
      <point x="520" y="355" type="line"/>
      <point x="313" y="355" type="line"/>
      <point x="313" y="230" type="line"/>
      <point x="446" y="230" type="line"/>
      <point x="446" y="135" type="line"/>
      <point x="415" y="129"/>
      <point x="399" y="127"/>
      <point x="358" y="127" type="curve" smooth="yes"/>
      <point x="236" y="127"/>
      <point x="194" y="174"/>
      <point x="194" y="297" type="curve" smooth="yes"/>
      <point x="194" y="361"/>
      <point x="201" y="420"/>
      <point x="218" y="479" type="curve"/>
      <point x="259" y="488"/>
      <point x="290" y="491"/>
      <point x="328" y="491" type="curve" smooth="yes"/>
      <point x="377" y="491"/>
      <point x="406" y="489"/>
      <point x="437" y="483" type="curve"/>
      <point x="447" y="413" type="line"/>
      <point x="570" y="413" type="line"/>
      <point x="579" y="445"/>
      <point x="583" y="500"/>
      <point x="583" y="541" type="curve" smooth="yes"/>
      <point x="583" y="583" type="line"/>
      <point x="529" y="609"/>
      <point x="458" y="630"/>
      <point x="357" y="630" type="curve" smooth="yes"/>
      <point x="146" y="630"/>
      <point x="44" y="488"/>
      <point x="44" y="291" type="curve" smooth="yes"/>
      <point x="44" y="89"/>
      <point x="141" y="-10"/>
      <point x="344" y="-10" type="curve" smooth="yes"/>
    </contour>
    <contour>
      <point x="392" y="665"/>
      <point x="422" y="694"/>
      <point x="422" y="741" type="curve" smooth="yes"/>
      <point x="422" y="792"/>
      <point x="392" y="820"/>
      <point x="341" y="820" type="curve" smooth="yes"/>
      <point x="289" y="820"/>
      <point x="259" y="792"/>
      <point x="259" y="741" type="curve" smooth="yes"/>
      <point x="259" y="694"/>
      <point x="289" y="665"/>
      <point x="341" y="665" type="curve" smooth="yes"/>
    </contour>
  </outline>
</glyph>
<glyph name="Hbar" format="1">
  <advance width="719"/>
  <unicode hex="0126"/>
  <note>
	Hbar
  </note>
  <outline>
    <contour>
      <point x="250" y="0" type="line"/>
      <point x="250" y="230" type="line"/>
      <point x="466" y="230" type="line"/>
      <point x="466" y="0" type="line"/>
      <point x="616" y="0" type="line"/>
      <point x="616" y="416" type="line"/>
      <point x="679" y="416" type="line"/>
      <point x="679" y="532" type="line"/>
      <point x="616" y="532" type="line"/>
      <point x="616" y="620" type="line"/>
      <point x="466" y="620" type="line"/>
      <point x="466" y="532" type="line"/>
      <point x="250" y="532" type="line"/>
      <point x="250" y="620" type="line"/>
      <point x="100" y="620" type="line"/>
      <point x="100" y="532" type="line"/>
      <point x="40" y="532" type="line"/>
      <point x="40" y="416" type="line"/>
      <point x="100" y="416" type="line"/>
      <point x="100" y="0" type="line"/>
    </contour>
    <contour>
      <point x="250" y="416" type="line"/>
      <point x="466" y="416" type="line"/>
      <point x="466" y="370" type="line"/>
      <point x="250" y="370" type="line"/>
    </contour>
  </outline>
</glyph>
<glyph name="hbar" format="1">
  <advance width="583"/>
  <unicode hex="0127"/>
  <note>
	hbar
  </note>
  <outline>
    <contour>
      <point x="212" y="0" type="line"/>
      <point x="212" y="308" type="line"/>
      <point x="240" y="330"/>
      <point x="274" y="340"/>
      <point x="317" y="340" type="curve" smooth="yes"/>
      <point x="337" y="340"/>
      <point x="358" y="338"/>
      <point x="375" y="331" type="curve"/>
      <point x="375" y="0" type="line"/>
      <point x="523" y="0" type="line"/>
      <point x="523" y="344" type="line" smooth="yes"/>
      <point x="523" y="437"/>
      <point x="468" y="482"/>
      <point x="377" y="482" type="curve" smooth="yes"/>
      <point x="305" y="482"/>
      <point x="254" y="451"/>
      <point x="213" y="402" type="curve"/>
      <point x="207" y="402" type="line"/>
      <point x="212" y="488" type="line"/>
      <point x="212" y="517" type="line"/>
      <point x="341" y="517" type="line"/>
      <point x="341" y="617" type="line"/>
      <point x="212" y="617" type="line"/>
      <point x="212" y="671" type="line"/>
      <point x="64" y="671" type="line"/>
      <point x="64" y="617" type="line"/>
      <point x="2" y="617" type="line"/>
      <point x="2" y="517" type="line"/>
      <point x="64" y="517" type="line"/>
      <point x="64" y="0" type="line"/>
    </contour>
  </outline>
</glyph>
<glyph name="itilde" format="1">
  <advance width="274"/>
  <unicode hex="0129"/>
  <note>
	itilde
  </note>
  <outline>
    <contour>
      <point x="211" y="0" type="line"/>
      <point x="211" y="472" type="line"/>
      <point x="63" y="472" type="line"/>
      <point x="63" y="0" type="line"/>
    </contour>
    <contour>
      <point x="62" y="540"/>
      <point x="65" y="561"/>
      <point x="91" y="561" type="curve" smooth="yes"/>
      <point x="126" y="561"/>
      <point x="162" y="520"/>
      <point x="209" y="520" type="curve" smooth="yes"/>
      <point x="282" y="520"/>
      <point x="305" y="575"/>
      <point x="306" y="658" type="curve"/>
      <point x="214" y="683" type="line"/>
      <point x="213" y="655"/>
      <point x="210" y="634"/>
      <point x="184" y="634" type="curve" smooth="yes"/>
      <point x="155" y="634"/>
      <point x="121" y="675"/>
      <point x="71" y="675" type="curve" smooth="yes"/>
      <point x="-7" y="675"/>
      <point x="-30" y="620"/>
      <point x="-31" y="537" type="curve"/>
      <point x="61" y="512" type="line"/>
    </contour>
  </outline>
</glyph>
<glyph name="Imacron" format="1">
  <advance width="286"/>
  <unicode hex="012A"/>
  <note>
	Imacron
  </note>
  <outline>
    <contour>
      <point x="218" y="0" type="line"/>
      <point x="218" y="620" type="line"/>
      <point x="68" y="620" type="line"/>
      <point x="68" y="0" type="line"/>
    </contour>
    <contour>
      <point x="329" y="665" type="line"/>
      <point x="329" y="803" type="line"/>
      <point x="-43" y="803" type="line"/>
      <point x="-43" y="665" type="line"/>
    </contour>
  </outline>
</glyph>
<glyph name="Ibreve" format="1">
  <advance width="286"/>
  <unicode hex="012C"/>
  <note>
	Ibreve
  </note>
  <outline>
    <contour>
      <point x="218" y="0" type="line"/>
      <point x="218" y="620" type="line"/>
      <point x="68" y="620" type="line"/>
      <point x="68" y="0" type="line"/>
    </contour>
    <contour>
      <point x="254" y="665"/>
      <point x="299" y="712"/>
      <point x="307" y="807" type="curve"/>
      <point x="181" y="826" type="line"/>
      <point x="180" y="799"/>
      <point x="169" y="781"/>
      <point x="143" y="781" type="curve" smooth="yes"/>
      <point x="117" y="781"/>
      <point x="106" y="799"/>
      <point x="105" y="826" type="curve"/>
      <point x="-21" y="807" type="line"/>
      <point x="-13" y="712"/>
      <point x="32" y="665"/>
      <point x="143" y="665" type="curve" smooth="yes"/>
    </contour>
  </outline>
</glyph>
<glyph name="Iogonek" format="1">
  <advance width="286"/>
  <unicode hex="012E"/>
  <note>
	Iogonek
  </note>
  <outline>
    <contour>
      <point x="218" y="0" type="line"/>
      <point x="218" y="620" type="line"/>
      <point x="68" y="620" type="line"/>
      <point x="68" y="0" type="line"/>
    </contour>
    <contour>
      <point x="212" y="-187"/>
      <point x="246" y="-179"/>
      <point x="268" y="-168" type="curve"/>
      <point x="244" y="-70" type="line"/>
      <point x="231" y="-75"/>
      <point x="220" y="-77"/>
      <point x="208" y="-77" type="curve" smooth="yes"/>
      <point x="194" y="-77"/>
      <point x="185" y="-76"/>
      <point x="175" y="-73" type="curve"/>
      <point x="173" y="-67"/>
      <point x="172" y="-63"/>
      <point x="172" y="-56" type="curve" smooth="yes"/>
      <point x="172" y="-29"/>
      <point x="185" y="-12"/>
      <point x="218" y="0" type="curve"/>
      <point x="119" y="10" type="line"/>
      <point x="61" y="-17"/>
      <point x="39" y="-51"/>
      <point x="39" y="-97" type="curve" smooth="yes"/>
      <point x="39" y="-154"/>
      <point x="77" y="-187"/>
      <point x="175" y="-187" type="curve" smooth="yes"/>
    </contour>
  </outline>
</glyph>
<glyph name="iogonek" format="1">
  <advance width="276"/>
  <unicode hex="012F"/>
  <note>
	iogonek
  </note>
  <outline>
    <contour>
      <point x="212" y="0" type="line"/>
      <point x="212" y="468" type="line"/>
      <point x="64" y="468" type="line"/>
      <point x="64" y="0" type="line"/>
    </contour>
    <contour>
      <point x="213" y="524" type="line"/>
      <point x="213" y="658" type="line"/>
      <point x="63" y="658" type="line"/>
      <point x="63" y="524" type="line"/>
    </contour>
    <contour>
      <point x="206" y="-187"/>
      <point x="240" y="-179"/>
      <point x="262" y="-168" type="curve"/>
      <point x="238" y="-70" type="line"/>
      <point x="225" y="-75"/>
      <point x="214" y="-77"/>
      <point x="202" y="-77" type="curve" smooth="yes"/>
      <point x="188" y="-77"/>
      <point x="179" y="-76"/>
      <point x="169" y="-73" type="curve"/>
      <point x="167" y="-67"/>
      <point x="166" y="-63"/>
      <point x="166" y="-56" type="curve" smooth="yes"/>
      <point x="166" y="-29"/>
      <point x="179" y="-12"/>
      <point x="212" y="0" type="curve"/>
      <point x="113" y="10" type="line"/>
      <point x="55" y="-17"/>
      <point x="33" y="-51"/>
      <point x="33" y="-97" type="curve" smooth="yes"/>
      <point x="33" y="-154"/>
      <point x="71" y="-187"/>
      <point x="169" y="-187" type="curve" smooth="yes"/>
    </contour>
  </outline>
</glyph>
<glyph name="IJ" format="1">
  <advance width="769"/>
  <unicode hex="0132"/>
  <note>
	IJ
  </note>
  <outline>
    <contour>
      <point x="659" y="-10"/>
      <point x="706" y="62"/>
      <point x="706" y="186" type="curve" smooth="yes"/>
      <point x="706" y="620" type="line"/>
      <point x="556" y="620" type="line"/>
      <point x="556" y="209" type="line" smooth="yes"/>
      <point x="556" y="182"/>
      <point x="554" y="159"/>
      <point x="550" y="141" type="curve"/>
      <point x="528" y="133"/>
      <point x="504" y="130"/>
      <point x="464" y="130" type="curve" smooth="yes"/>
      <point x="422" y="130"/>
      <point x="381" y="138"/>
      <point x="340" y="153" type="curve"/>
      <point x="306" y="25" type="line"/>
      <point x="352" y="2"/>
      <point x="416" y="-10"/>
      <point x="477" y="-10" type="curve" smooth="yes"/>
    </contour>
    <contour>
      <point x="218" y="0" type="line"/>
      <point x="218" y="620" type="line"/>
      <point x="68" y="620" type="line"/>
      <point x="68" y="0" type="line"/>
    </contour>
  </outline>
</glyph>
<glyph name="ij" format="1">
  <advance width="571"/>
  <unicode hex="0133"/>
  <note>
	ij
  </note>
  <outline>
    <contour>
      <point x="468" y="-198"/>
      <point x="510" y="-116"/>
      <point x="510" y="-7" type="curve" smooth="yes"/>
      <point x="510" y="468" type="line"/>
      <point x="362" y="468" type="line"/>
      <point x="362" y="6" type="line" smooth="yes"/>
      <point x="362" y="-16"/>
      <point x="360" y="-36"/>
      <point x="354" y="-51" type="curve"/>
      <point x="338" y="-56"/>
      <point x="323" y="-58"/>
      <point x="303" y="-58" type="curve" smooth="yes"/>
      <point x="277" y="-58"/>
      <point x="257" y="-53"/>
      <point x="226" y="-42" type="curve"/>
      <point x="187" y="-169" type="line"/>
      <point x="225" y="-185"/>
      <point x="280" y="-198"/>
      <point x="324" y="-198" type="curve" smooth="yes"/>
    </contour>
    <contour>
      <point x="212" y="0" type="line"/>
      <point x="212" y="468" type="line"/>
      <point x="64" y="468" type="line"/>
      <point x="64" y="0" type="line"/>
    </contour>
    <contour>
      <point x="213" y="524" type="line"/>
      <point x="213" y="658" type="line"/>
      <point x="63" y="658" type="line"/>
      <point x="63" y="524" type="line"/>
    </contour>
    <contour>
      <point x="511" y="524" type="line"/>
      <point x="511" y="658" type="line"/>
      <point x="361" y="658" type="line"/>
      <point x="361" y="524" type="line"/>
    </contour>
  </outline>
</glyph>
<glyph name="Jcircumflex" format="1">
  <advance width="483"/>
  <unicode hex="0134"/>
  <note>
	Jcircumflex
  </note>
  <outline>
    <contour>
      <point x="373" y="-10"/>
      <point x="420" y="62"/>
      <point x="420" y="186" type="curve" smooth="yes"/>
      <point x="420" y="620" type="line"/>
      <point x="270" y="620" type="line"/>
      <point x="270" y="209" type="line" smooth="yes"/>
      <point x="270" y="182"/>
      <point x="268" y="159"/>
      <point x="264" y="141" type="curve"/>
      <point x="242" y="133"/>
      <point x="218" y="130"/>
      <point x="178" y="130" type="curve" smooth="yes"/>
      <point x="136" y="130"/>
      <point x="95" y="138"/>
      <point x="54" y="153" type="curve"/>
      <point x="20" y="25" type="line"/>
      <point x="66" y="2"/>
      <point x="130" y="-10"/>
      <point x="191" y="-10" type="curve" smooth="yes"/>
    </contour>
    <contour>
      <point x="343" y="725" type="line"/>
      <point x="350" y="725" type="line"/>
      <point x="420" y="665" type="line"/>
      <point x="503" y="680" type="line"/>
      <point x="408" y="823" type="line"/>
      <point x="285" y="823" type="line"/>
      <point x="189" y="680" type="line"/>
      <point x="270" y="665" type="line"/>
    </contour>
  </outline>
</glyph>
<glyph name="Lacute" format="1">
  <advance width="502"/>
  <unicode hex="0139"/>
  <note>
	Lacute
  </note>
  <outline>
    <contour>
      <point x="488" y="0" type="line"/>
      <point x="488" y="140" type="line"/>
      <point x="215" y="140" type="line"/>
      <point x="215" y="620" type="line"/>
      <point x="65" y="620" type="line"/>
      <point x="65" y="0" type="line"/>
    </contour>
    <contour>
      <point x="334" y="834" type="line"/>
      <point x="178" y="850" type="line"/>
      <point x="96" y="685" type="line"/>
      <point x="200" y="665" type="line"/>
    </contour>
  </outline>
</glyph>
<glyph name="Lcommaaccent" format="1">
  <advance width="502"/>
  <unicode hex="013B"/>
  <note>
	Lcommaaccent
  </note>
  <outline>
    <contour>
      <point x="488" y="0" type="line"/>
      <point x="488" y="140" type="line"/>
      <point x="215" y="140" type="line"/>
      <point x="215" y="620" type="line"/>
      <point x="65" y="620" type="line"/>
      <point x="65" y="0" type="line"/>
    </contour>
    <contour>
      <point x="346" y="-210"/>
      <point x="371" y="-162"/>
      <point x="371" y="-116" type="curve" smooth="yes"/>
      <point x="371" y="-58"/>
      <point x="341" y="-30"/>
      <point x="278" y="-30" type="curve" smooth="yes"/>
      <point x="248" y="-30"/>
      <point x="215" y="-36"/>
      <point x="193" y="-44" type="curve"/>
      <point x="193" y="-145" type="line"/>
      <point x="246" y="-145" type="line"/>
      <point x="243" y="-172"/>
      <point x="235" y="-193"/>
      <point x="216" y="-223" type="curve"/>
      <point x="312" y="-244" type="line"/>
    </contour>
  </outline>
</glyph>
<glyph name="lcommaaccent" format="1">
  <advance width="335"/>
  <unicode hex="013C"/>
  <note>
	lcommaaccent
  </note>
  <outline>
    <contour>
      <point x="234" y="-6"/>
      <point x="300" y="52"/>
      <point x="327" y="96" type="curve"/>
      <point x="280" y="162" type="line"/>
      <point x="226" y="133" type="line"/>
      <point x="212" y="133" type="line"/>
      <point x="208" y="144"/>
      <point x="206" y="157"/>
      <point x="206" y="177" type="curve" smooth="yes"/>
      <point x="206" y="675" type="line"/>
      <point x="58" y="675" type="line"/>
      <point x="58" y="97" type="line" smooth="yes"/>
      <point x="58" y="55"/>
      <point x="136" y="6"/>
      <point x="182" y="-6" type="curve"/>
    </contour>
    <contour>
      <point x="232" y="-210"/>
      <point x="257" y="-162"/>
      <point x="257" y="-116" type="curve" smooth="yes"/>
      <point x="257" y="-58"/>
      <point x="227" y="-30"/>
      <point x="164" y="-30" type="curve" smooth="yes"/>
      <point x="134" y="-30"/>
      <point x="101" y="-36"/>
      <point x="79" y="-44" type="curve"/>
      <point x="79" y="-145" type="line"/>
      <point x="132" y="-145" type="line"/>
      <point x="129" y="-172"/>
      <point x="121" y="-193"/>
      <point x="102" y="-223" type="curve"/>
      <point x="198" y="-244" type="line"/>
    </contour>
  </outline>
</glyph>
<glyph name="Lcaron" format="1">
  <advance width="502"/>
  <unicode hex="013D"/>
  <note>
	Lcaron
  </note>
  <outline>
    <contour>
      <point x="488" y="0" type="line"/>
      <point x="488" y="140" type="line"/>
      <point x="215" y="140" type="line"/>
      <point x="215" y="620" type="line"/>
      <point x="65" y="620" type="line"/>
      <point x="65" y="0" type="line"/>
    </contour>
    <contour>
      <point x="427" y="444"/>
      <point x="452" y="492"/>
      <point x="452" y="538" type="curve" smooth="yes"/>
      <point x="452" y="596"/>
      <point x="422" y="624"/>
      <point x="359" y="624" type="curve" smooth="yes"/>
      <point x="329" y="624"/>
      <point x="296" y="618"/>
      <point x="274" y="610" type="curve"/>
      <point x="274" y="509" type="line"/>
      <point x="327" y="509" type="line"/>
      <point x="324" y="482"/>
      <point x="316" y="461"/>
      <point x="297" y="431" type="curve"/>
      <point x="393" y="410" type="line"/>
    </contour>
  </outline>
</glyph>
<glyph name="lcaron" format="1">
  <advance width="425"/>
  <unicode hex="013E"/>
  <note>
	lcaron
  </note>
  <outline>
    <contour>
      <point x="234" y="-6"/>
      <point x="300" y="52"/>
      <point x="327" y="96" type="curve"/>
      <point x="280" y="162" type="line"/>
      <point x="226" y="133" type="line"/>
      <point x="212" y="133" type="line"/>
      <point x="208" y="144"/>
      <point x="206" y="157"/>
      <point x="206" y="177" type="curve" smooth="yes"/>
      <point x="206" y="675" type="line"/>
      <point x="58" y="675" type="line"/>
      <point x="58" y="97" type="line" smooth="yes"/>
      <point x="58" y="55"/>
      <point x="136" y="6"/>
      <point x="182" y="-6" type="curve"/>
    </contour>
    <contour>
      <point x="405" y="472"/>
      <point x="430" y="520"/>
      <point x="430" y="566" type="curve" smooth="yes"/>
      <point x="430" y="624"/>
      <point x="400" y="652"/>
      <point x="337" y="652" type="curve" smooth="yes"/>
      <point x="307" y="652"/>
      <point x="274" y="646"/>
      <point x="252" y="638" type="curve"/>
      <point x="252" y="537" type="line"/>
      <point x="305" y="537" type="line"/>
      <point x="302" y="510"/>
      <point x="294" y="489"/>
      <point x="275" y="459" type="curve"/>
      <point x="371" y="438" type="line"/>
    </contour>
  </outline>
</glyph>
<glyph name="Ldot" format="1">
  <advance width="502"/>
  <unicode hex="013F"/>
  <note>
	Ldot
  </note>
  <outline>
    <contour>
      <point x="488" y="0" type="line"/>
      <point x="488" y="140" type="line"/>
      <point x="215" y="140" type="line"/>
      <point x="215" y="620" type="line"/>
      <point x="65" y="620" type="line"/>
      <point x="65" y="0" type="line"/>
    </contour>
    <contour>
      <point x="404" y="248"/>
      <point x="434" y="278"/>
      <point x="434" y="320" type="curve" smooth="yes"/>
      <point x="434" y="362"/>
      <point x="404" y="392"/>
      <point x="360" y="392" type="curve" smooth="yes"/>
      <point x="316" y="392"/>
      <point x="286" y="362"/>
      <point x="286" y="320" type="curve" smooth="yes"/>
      <point x="286" y="278"/>
      <point x="316" y="248"/>
      <point x="360" y="248" type="curve" smooth="yes"/>
    </contour>
  </outline>
</glyph>
<glyph name="lslash" format="1">
  <advance width="373"/>
  <unicode hex="0142"/>
  <note>
	lslash
  </note>
  <outline>
    <contour>
      <point x="273" y="-6"/>
      <point x="339" y="52"/>
      <point x="366" y="96" type="curve"/>
      <point x="319" y="162" type="line"/>
      <point x="265" y="133" type="line"/>
      <point x="251" y="133" type="line"/>
      <point x="247" y="144"/>
      <point x="245" y="157"/>
      <point x="245" y="177" type="curve" smooth="yes"/>
      <point x="245" y="292" type="line"/>
      <point x="372" y="333" type="line"/>
      <point x="334" y="454" type="line"/>
      <point x="245" y="425" type="line"/>
      <point x="245" y="652" type="line"/>
      <point x="97" y="652" type="line"/>
      <point x="97" y="378" type="line"/>
      <point x="-30" y="338" type="line"/>
      <point x="8" y="217" type="line"/>
      <point x="97" y="245" type="line"/>
      <point x="97" y="97" type="line" smooth="yes"/>
      <point x="97" y="55"/>
      <point x="175" y="6"/>
      <point x="221" y="-6" type="curve"/>
    </contour>
  </outline>
</glyph>
<glyph name="Ncaron" format="1">
  <advance width="669"/>
  <unicode hex="0147"/>
  <note>
	Ncaron
  </note>
  <outline>
    <contour>
      <point x="214" y="0" type="line"/>
      <point x="214" y="298" type="line"/>
      <point x="202" y="461" type="line"/>
      <point x="210" y="463" type="line"/>
      <point x="407" y="0" type="line"/>
      <point x="604" y="0" type="line"/>
      <point x="604" y="620" type="line"/>
      <point x="455" y="620" type="line"/>
      <point x="455" y="322" type="line"/>
      <point x="467" y="159" type="line"/>
      <point x="459" y="157" type="line"/>
      <point x="262" y="620" type="line"/>
      <point x="65" y="620" type="line"/>
      <point x="65" y="0" type="line"/>
    </contour>
    <contour>
      <point x="396" y="665" type="line"/>
      <point x="491" y="808" type="line"/>
      <point x="408" y="823" type="line"/>
      <point x="338" y="763" type="line"/>
      <point x="331" y="763" type="line"/>
      <point x="258" y="823" type="line"/>
      <point x="177" y="808" type="line"/>
      <point x="273" y="665" type="line"/>
    </contour>
  </outline>
</glyph>
<glyph name="Eng" format="1">
  <advance width="669"/>
  <unicode hex="014A"/>
  <note>
	Eng
  </note>
  <outline>
    <contour>
      <point x="550" y="-218"/>
      <point x="604" y="-122"/>
      <point x="604" y="20" type="curve" smooth="yes"/>
      <point x="604" y="620" type="line"/>
      <point x="455" y="620" type="line"/>
      <point x="455" y="322" type="line"/>
      <point x="467" y="159" type="line"/>
      <point x="459" y="157" type="line"/>
      <point x="262" y="620" type="line"/>
      <point x="65" y="620" type="line"/>
      <point x="65" y="0" type="line"/>
      <point x="214" y="0" type="line"/>
      <point x="214" y="298" type="line"/>
      <point x="202" y="461" type="line"/>
      <point x="210" y="463" type="line"/>
      <point x="426" y="0" type="line"/>
      <point x="426" y="-24" type="line" smooth="yes"/>
      <point x="426" y="-45"/>
      <point x="425" y="-62"/>
      <point x="420" y="-77" type="curve"/>
      <point x="383" y="-95"/>
      <point x="337" y="-105"/>
      <point x="288" y="-111" type="curve"/>
      <point x="326" y="-249" type="line"/>
    </contour>
  </outline>
</glyph>
<glyph name="Obreve" format="1">
  <advance width="665"/>
  <unicode hex="014E"/>
  <note>
	Obreve
  </note>
  <outline>
    <contour>
      <point x="512" y="-9"/>
      <point x="623" y="101"/>
      <point x="623" y="321" type="curve" smooth="yes"/>
      <point x="623" y="522"/>
      <point x="533" y="630"/>
      <point x="348" y="630" type="curve" smooth="yes"/>
      <point x="153" y="630"/>
      <point x="42" y="520"/>
      <point x="42" y="300" type="curve" smooth="yes"/>
      <point x="42" y="99"/>
      <point x="132" y="-9"/>
      <point x="317" y="-9" type="curve" smooth="yes"/>
    </contour>
    <contour>
      <point x="214" y="129"/>
      <point x="190" y="194"/>
      <point x="190" y="315" type="curve" smooth="yes"/>
      <point x="190" y="378"/>
      <point x="197" y="424"/>
      <point x="218" y="474" type="curve"/>
      <point x="248" y="486"/>
      <point x="280" y="492"/>
      <point x="327" y="492" type="curve" smooth="yes"/>
      <point x="451" y="492"/>
      <point x="475" y="427"/>
      <point x="475" y="306" type="curve" smooth="yes"/>
      <point x="475" y="243"/>
      <point x="467" y="197"/>
      <point x="447" y="147" type="curve"/>
      <point x="417" y="135"/>
      <point x="385" y="129"/>
      <point x="338" y="129" type="curve" smooth="yes"/>
    </contour>
    <contour>
      <point x="438" y="665"/>
      <point x="483" y="712"/>
      <point x="491" y="807" type="curve"/>
      <point x="365" y="826" type="line"/>
      <point x="364" y="799"/>
      <point x="353" y="781"/>
      <point x="327" y="781" type="curve" smooth="yes"/>
      <point x="301" y="781"/>
      <point x="290" y="799"/>
      <point x="289" y="826" type="curve"/>
      <point x="163" y="807" type="line"/>
      <point x="171" y="712"/>
      <point x="216" y="665"/>
      <point x="327" y="665" type="curve" smooth="yes"/>
    </contour>
  </outline>
</glyph>
<glyph name="Ohungarumlaut" format="1">
  <advance width="665"/>
  <unicode hex="0150"/>
  <note>
	Ohungarumlaut
  </note>
  <outline>
    <contour>
      <point x="512" y="-9"/>
      <point x="623" y="101"/>
      <point x="623" y="321" type="curve" smooth="yes"/>
      <point x="623" y="522"/>
      <point x="533" y="630"/>
      <point x="348" y="630" type="curve" smooth="yes"/>
      <point x="153" y="630"/>
      <point x="42" y="520"/>
      <point x="42" y="300" type="curve" smooth="yes"/>
      <point x="42" y="99"/>
      <point x="132" y="-9"/>
      <point x="317" y="-9" type="curve" smooth="yes"/>
    </contour>
    <contour>
      <point x="214" y="129"/>
      <point x="190" y="194"/>
      <point x="190" y="315" type="curve" smooth="yes"/>
      <point x="190" y="378"/>
      <point x="197" y="424"/>
      <point x="218" y="474" type="curve"/>
      <point x="248" y="486"/>
      <point x="280" y="492"/>
      <point x="327" y="492" type="curve" smooth="yes"/>
      <point x="451" y="492"/>
      <point x="475" y="427"/>
      <point x="475" y="306" type="curve" smooth="yes"/>
      <point x="475" y="243"/>
      <point x="467" y="197"/>
      <point x="447" y="147" type="curve"/>
      <point x="417" y="135"/>
      <point x="385" y="129"/>
      <point x="338" y="129" type="curve" smooth="yes"/>
    </contour>
    <contour>
      <point x="308" y="699"/>
      <point x="333" y="747"/>
      <point x="333" y="793" type="curve" smooth="yes"/>
      <point x="333" y="851"/>
      <point x="303" y="879"/>
      <point x="240" y="879" type="curve" smooth="yes"/>
      <point x="210" y="879"/>
      <point x="177" y="873"/>
      <point x="155" y="865" type="curve"/>
      <point x="155" y="764" type="line"/>
      <point x="208" y="764" type="line"/>
      <point x="205" y="737"/>
      <point x="197" y="716"/>
      <point x="178" y="686" type="curve"/>
      <point x="274" y="665" type="line"/>
    </contour>
    <contour>
      <point x="507" y="699"/>
      <point x="532" y="747"/>
      <point x="532" y="793" type="curve" smooth="yes"/>
      <point x="532" y="851"/>
      <point x="502" y="879"/>
      <point x="439" y="879" type="curve" smooth="yes"/>
      <point x="409" y="879"/>
      <point x="376" y="873"/>
      <point x="354" y="865" type="curve"/>
      <point x="354" y="764" type="line"/>
      <point x="407" y="764" type="line"/>
      <point x="404" y="737"/>
      <point x="396" y="716"/>
      <point x="377" y="686" type="curve"/>
      <point x="473" y="665" type="line"/>
    </contour>
  </outline>
</glyph>
<glyph name="OE" format="1">
  <advance width="922"/>
  <unicode hex="0152"/>
  <note>
	OE
  </note>
  <outline>
    <contour>
      <point x="767" y="-10"/>
      <point x="838" y="-1"/>
      <point x="889" y="12" type="curve"/>
      <point x="870" y="146" type="line"/>
      <point x="814" y="133"/>
      <point x="756" y="127"/>
      <point x="687" y="127" type="curve" smooth="yes"/>
      <point x="642" y="127"/>
      <point x="610" y="129"/>
      <point x="569" y="137" type="curve"/>
      <point x="569" y="241" type="line"/>
      <point x="833" y="241" type="line"/>
      <point x="833" y="372" type="line"/>
      <point x="569" y="372" type="line"/>
      <point x="569" y="483" type="line"/>
      <point x="884" y="483" type="line"/>
      <point x="884" y="620" type="line"/>
      <point x="449" y="620" type="line"/>
      <point x="418" y="627"/>
      <point x="381" y="630"/>
      <point x="348" y="630" type="curve" smooth="yes"/>
      <point x="153" y="630"/>
      <point x="42" y="520"/>
      <point x="42" y="300" type="curve" smooth="yes"/>
      <point x="42" y="99"/>
      <point x="132" y="-9"/>
      <point x="307" y="-9" type="curve" smooth="yes"/>
      <point x="378" y="-9"/>
      <point x="431" y="6"/>
      <point x="468" y="38" type="curve"/>
      <point x="478" y="38" type="line"/>
      <point x="523" y="5"/>
      <point x="595" y="-10"/>
      <point x="682" y="-10" type="curve" smooth="yes"/>
    </contour>
    <contour>
      <point x="214" y="129"/>
      <point x="190" y="194"/>
      <point x="190" y="315" type="curve" smooth="yes"/>
      <point x="190" y="378"/>
      <point x="197" y="424"/>
      <point x="218" y="474" type="curve"/>
      <point x="248" y="486"/>
      <point x="280" y="492"/>
      <point x="327" y="492" type="curve" smooth="yes"/>
      <point x="372" y="492"/>
      <point x="406" y="487"/>
      <point x="429" y="479" type="curve"/>
      <point x="429" y="140" type="line"/>
      <point x="404" y="132"/>
      <point x="376" y="129"/>
      <point x="338" y="129" type="curve" smooth="yes"/>
    </contour>
  </outline>
</glyph>
<glyph name="oe" format="1">
  <advance width="869"/>
  <unicode hex="0153"/>
  <note>
	oe
  </note>
  <outline>
    <contour>
      <point x="340" y="-9"/>
      <point x="400" y="13"/>
      <point x="442" y="52" type="curve"/>
      <point x="450" y="52" type="line"/>
      <point x="493" y="13"/>
      <point x="554" y="-6"/>
      <point x="627" y="-6" type="curve" smooth="yes"/>
      <point x="725" y="-6"/>
      <point x="784" y="15"/>
      <point x="831" y="46" type="curve"/>
      <point x="795" y="160" type="line"/>
      <point x="753" y="136"/>
      <point x="706" y="119"/>
      <point x="632" y="119" type="curve" smooth="yes"/>
      <point x="552" y="119"/>
      <point x="525" y="144"/>
      <point x="525" y="189" type="curve"/>
      <point x="757" y="187" type="line"/>
      <point x="830" y="259" type="line"/>
      <point x="840" y="395"/>
      <point x="764" y="482"/>
      <point x="618" y="482" type="curve" smooth="yes"/>
      <point x="553" y="482"/>
      <point x="499" y="464"/>
      <point x="459" y="430" type="curve"/>
      <point x="450" y="430" type="line"/>
      <point x="413" y="463"/>
      <point x="362" y="482"/>
      <point x="295" y="482" type="curve" smooth="yes"/>
      <point x="133" y="482"/>
      <point x="40" y="374"/>
      <point x="40" y="226" type="curve" smooth="yes"/>
      <point x="40" y="82"/>
      <point x="101" y="-9"/>
      <point x="262" y="-9" type="curve" smooth="yes"/>
    </contour>
    <contour>
      <point x="210" y="116"/>
      <point x="186" y="144"/>
      <point x="186" y="233" type="curve" smooth="yes"/>
      <point x="186" y="278"/>
      <point x="191" y="315"/>
      <point x="203" y="345" type="curve"/>
      <point x="227" y="351"/>
      <point x="252" y="354"/>
      <point x="277" y="354" type="curve" smooth="yes"/>
      <point x="348" y="354"/>
      <point x="371" y="324"/>
      <point x="371" y="237" type="curve" smooth="yes"/>
      <point x="371" y="192"/>
      <point x="366" y="156"/>
      <point x="354" y="126" type="curve"/>
      <point x="330" y="119"/>
      <point x="305" y="116"/>
      <point x="280" y="116" type="curve" smooth="yes"/>
    </contour>
    <contour>
      <point x="527" y="327"/>
      <point x="548" y="358"/>
      <point x="615" y="358" type="curve" smooth="yes"/>
      <point x="660" y="358"/>
      <point x="693" y="338"/>
      <point x="693" y="304" type="curve" smooth="yes"/>
      <point x="693" y="298"/>
      <point x="692" y="293"/>
      <point x="690" y="286" type="curve"/>
      <point x="524" y="282" type="line"/>
    </contour>
  </outline>
</glyph>
<glyph name="rcommaaccent" format="1">
  <advance width="424"/>
  <unicode hex="0157"/>
  <note>
	rcommaaccent
  </note>
  <outline>
    <contour>
      <point x="212" y="0" type="line"/>
      <point x="212" y="278" type="line"/>
      <point x="247" y="310"/>
      <point x="296" y="323"/>
      <point x="347" y="323" type="curve" smooth="yes"/>
      <point x="389" y="323" type="line"/>
      <point x="404" y="452" type="line"/>
      <point x="395" y="463"/>
      <point x="373" y="476"/>
      <point x="362" y="476" type="curve" smooth="yes"/>
      <point x="290" y="476"/>
      <point x="248" y="437"/>
      <point x="215" y="376" type="curve"/>
      <point x="205" y="376" type="line"/>
      <point x="199" y="472" type="line"/>
      <point x="64" y="472" type="line"/>
      <point x="64" y="0" type="line"/>
    </contour>
    <contour>
      <point x="209" y="-211"/>
      <point x="234" y="-163"/>
      <point x="234" y="-117" type="curve" smooth="yes"/>
      <point x="234" y="-59"/>
      <point x="204" y="-31"/>
      <point x="141" y="-31" type="curve" smooth="yes"/>
      <point x="111" y="-31"/>
      <point x="78" y="-37"/>
      <point x="56" y="-45" type="curve"/>
      <point x="56" y="-146" type="line"/>
      <point x="109" y="-146" type="line"/>
      <point x="106" y="-173"/>
      <point x="98" y="-194"/>
      <point x="79" y="-224" type="curve"/>
      <point x="175" y="-245" type="line"/>
    </contour>
  </outline>
</glyph>
<glyph name="scircumflex" format="1">
  <advance width="481"/>
  <unicode hex="015D"/>
  <note>
	scircumflex
  </note>
  <outline>
    <contour>
      <point x="384" y="-8"/>
      <point x="445" y="42"/>
      <point x="445" y="134" type="curve" smooth="yes"/>
      <point x="445" y="242"/>
      <point x="380" y="265"/>
      <point x="277" y="286" type="curve" smooth="yes"/>
      <point x="219" y="298"/>
      <point x="186" y="304"/>
      <point x="186" y="332" type="curve" smooth="yes"/>
      <point x="186" y="353"/>
      <point x="200" y="365"/>
      <point x="238" y="365" type="curve" smooth="yes"/>
      <point x="258" y="365"/>
      <point x="268" y="364"/>
      <point x="283" y="361" type="curve"/>
      <point x="291" y="316" type="line"/>
      <point x="411" y="316" type="line"/>
      <point x="419" y="336"/>
      <point x="424" y="392"/>
      <point x="424" y="415" type="curve" smooth="yes"/>
      <point x="424" y="448" type="line"/>
      <point x="383" y="466"/>
      <point x="316" y="482"/>
      <point x="248" y="482" type="curve" smooth="yes"/>
      <point x="96" y="482"/>
      <point x="38" y="423"/>
      <point x="38" y="335" type="curve" smooth="yes"/>
      <point x="38" y="225"/>
      <point x="107" y="201"/>
      <point x="225" y="173" type="curve" smooth="yes"/>
      <point x="279" y="160"/>
      <point x="298" y="156"/>
      <point x="298" y="138" type="curve" smooth="yes"/>
      <point x="298" y="131"/>
      <point x="297" y="125"/>
      <point x="293" y="120" type="curve"/>
      <point x="275" y="117"/>
      <point x="254" y="115"/>
      <point x="221" y="115" type="curve" smooth="yes"/>
      <point x="178" y="115"/>
      <point x="124" y="126"/>
      <point x="76" y="146" type="curve"/>
      <point x="34" y="31" type="line"/>
      <point x="89" y="4"/>
      <point x="152" y="-8"/>
      <point x="226" y="-8" type="curve" smooth="yes"/>
    </contour>
    <contour>
      <point x="232" y="580" type="line"/>
      <point x="239" y="580" type="line"/>
      <point x="309" y="520" type="line"/>
      <point x="392" y="535" type="line"/>
      <point x="297" y="678" type="line"/>
      <point x="174" y="678" type="line"/>
      <point x="78" y="535" type="line"/>
      <point x="159" y="520" type="line"/>
    </contour>
  </outline>
</glyph>
<glyph name="tbar" format="1">
  <advance width="439"/>
  <unicode hex="0167"/>
  <note>
	tbar
  </note>
  <outline>
    <contour>
      <point x="350" y="-10"/>
      <point x="387" y="3"/>
      <point x="417" y="22" type="curve"/>
      <point x="395" y="151" type="line"/>
      <point x="367" y="135"/>
      <point x="336" y="128"/>
      <point x="300" y="128" type="curve" smooth="yes"/>
      <point x="284" y="128"/>
      <point x="269" y="130"/>
      <point x="256" y="134" type="curve"/>
      <point x="252" y="148"/>
      <point x="251" y="163"/>
      <point x="251" y="179" type="curve" smooth="yes"/>
      <point x="251" y="186" type="line"/>
      <point x="358" y="186" type="line"/>
      <point x="358" y="296" type="line"/>
      <point x="251" y="296" type="line"/>
      <point x="251" y="338" type="line"/>
      <point x="388" y="338" type="line"/>
      <point x="406" y="460" type="line"/>
      <point x="251" y="460" type="line"/>
      <point x="251" y="596" type="line"/>
      <point x="102" y="596" type="line"/>
      <point x="102" y="460" type="line"/>
      <point x="28" y="460" type="line"/>
      <point x="10" y="338" type="line"/>
      <point x="102" y="338" type="line"/>
      <point x="102" y="296" type="line"/>
      <point x="27" y="296" type="line"/>
      <point x="27" y="186" type="line"/>
      <point x="102" y="186" type="line"/>
      <point x="102" y="115" type="line" smooth="yes"/>
      <point x="102" y="73"/>
      <point x="140" y="33"/>
      <point x="182" y="3" type="curve"/>
      <point x="211" y="-5"/>
      <point x="251" y="-10"/>
      <point x="289" y="-10" type="curve" smooth="yes"/>
    </contour>
  </outline>
</glyph>
<glyph name="Utilde" format="1">
  <advance width="653"/>
  <unicode hex="0168"/>
  <note>
	Utilde
  </note>
  <outline>
    <contour>
      <point x="469" y="-10"/>
      <point x="590" y="31"/>
      <point x="590" y="135" type="curve" smooth="yes"/>
      <point x="590" y="620" type="line"/>
      <point x="440" y="620" type="line"/>
      <point x="440" y="144" type="line"/>
      <point x="407" y="133"/>
      <point x="378" y="128"/>
      <point x="324" y="128" type="curve" smooth="yes"/>
      <point x="238" y="128"/>
      <point x="213" y="159"/>
      <point x="213" y="253" type="curve" smooth="yes"/>
      <point x="213" y="620" type="line"/>
      <point x="63" y="620" type="line"/>
      <point x="63" y="220" type="line" smooth="yes"/>
      <point x="63" y="81"/>
      <point x="130" y="-10"/>
      <point x="317" y="-10" type="curve" smooth="yes"/>
    </contour>
    <contour>
      <point x="251" y="685"/>
      <point x="254" y="706"/>
      <point x="280" y="706" type="curve" smooth="yes"/>
      <point x="315" y="706"/>
      <point x="351" y="665"/>
      <point x="398" y="665" type="curve" smooth="yes"/>
      <point x="471" y="665"/>
      <point x="494" y="720"/>
      <point x="495" y="803" type="curve"/>
      <point x="403" y="828" type="line"/>
      <point x="402" y="800"/>
      <point x="399" y="779"/>
      <point x="373" y="779" type="curve" smooth="yes"/>
      <point x="344" y="779"/>
      <point x="310" y="820"/>
      <point x="260" y="820" type="curve" smooth="yes"/>
      <point x="182" y="820"/>
      <point x="159" y="765"/>
      <point x="158" y="682" type="curve"/>
      <point x="250" y="657" type="line"/>
    </contour>
  </outline>
</glyph>
<glyph name="utilde" format="1">
  <advance width="567"/>
  <unicode hex="0169"/>
  <note>
	utilde
  </note>
  <outline>
    <contour>
      <point x="276" y="-8"/>
      <point x="318" y="22"/>
      <point x="357" y="72" type="curve"/>
      <point x="365" y="72" type="line"/>
      <point x="371" y="0" type="line"/>
      <point x="503" y="0" type="line"/>
      <point x="503" y="472" type="line"/>
      <point x="353" y="472" type="line"/>
      <point x="353" y="162" type="line"/>
      <point x="329" y="137"/>
      <point x="297" y="128"/>
      <point x="259" y="128" type="curve" smooth="yes"/>
      <point x="240" y="128"/>
      <point x="225" y="130"/>
      <point x="208" y="136" type="curve"/>
      <point x="208" y="472" type="line"/>
      <point x="58" y="472" type="line"/>
      <point x="58" y="141" type="line" smooth="yes"/>
      <point x="58" y="41"/>
      <point x="110" y="-8"/>
      <point x="201" y="-8" type="curve" smooth="yes"/>
    </contour>
    <contour>
      <point x="205" y="575"/>
      <point x="208" y="596"/>
      <point x="234" y="596" type="curve" smooth="yes"/>
      <point x="269" y="596"/>
      <point x="305" y="555"/>
      <point x="352" y="555" type="curve" smooth="yes"/>
      <point x="425" y="555"/>
      <point x="448" y="610"/>
      <point x="449" y="693" type="curve"/>
      <point x="357" y="718" type="line"/>
      <point x="356" y="690"/>
      <point x="353" y="669"/>
      <point x="327" y="669" type="curve" smooth="yes"/>
      <point x="298" y="669"/>
      <point x="264" y="710"/>
      <point x="214" y="710" type="curve" smooth="yes"/>
      <point x="136" y="710"/>
      <point x="113" y="655"/>
      <point x="112" y="572" type="curve"/>
      <point x="204" y="547" type="line"/>
    </contour>
  </outline>
</glyph>
<glyph name="Ubreve" format="1">
  <advance width="653"/>
  <unicode hex="016C"/>
  <note>
	Ubreve
  </note>
  <outline>
    <contour>
      <point x="469" y="-10"/>
      <point x="590" y="31"/>
      <point x="590" y="135" type="curve" smooth="yes"/>
      <point x="590" y="620" type="line"/>
      <point x="440" y="620" type="line"/>
      <point x="440" y="144" type="line"/>
      <point x="407" y="133"/>
      <point x="378" y="128"/>
      <point x="324" y="128" type="curve" smooth="yes"/>
      <point x="238" y="128"/>
      <point x="213" y="159"/>
      <point x="213" y="253" type="curve" smooth="yes"/>
      <point x="213" y="620" type="line"/>
      <point x="63" y="620" type="line"/>
      <point x="63" y="220" type="line" smooth="yes"/>
      <point x="63" y="81"/>
      <point x="130" y="-10"/>
      <point x="317" y="-10" type="curve" smooth="yes"/>
    </contour>
    <contour>
      <point x="437" y="665"/>
      <point x="482" y="712"/>
      <point x="490" y="807" type="curve"/>
      <point x="364" y="826" type="line"/>
      <point x="363" y="799"/>
      <point x="352" y="781"/>
      <point x="326" y="781" type="curve" smooth="yes"/>
      <point x="300" y="781"/>
      <point x="289" y="799"/>
      <point x="288" y="826" type="curve"/>
      <point x="162" y="807" type="line"/>
      <point x="170" y="712"/>
      <point x="215" y="665"/>
      <point x="326" y="665" type="curve" smooth="yes"/>
    </contour>
  </outline>
</glyph>
<glyph name="uring" format="1">
  <advance width="567"/>
  <unicode hex="016F"/>
  <note>
	uring
  </note>
  <outline>
    <contour>
      <point x="276" y="-8"/>
      <point x="318" y="22"/>
      <point x="357" y="72" type="curve"/>
      <point x="365" y="72" type="line"/>
      <point x="371" y="0" type="line"/>
      <point x="503" y="0" type="line"/>
      <point x="503" y="472" type="line"/>
      <point x="353" y="472" type="line"/>
      <point x="353" y="162" type="line"/>
      <point x="329" y="137"/>
      <point x="297" y="128"/>
      <point x="259" y="128" type="curve" smooth="yes"/>
      <point x="240" y="128"/>
      <point x="225" y="130"/>
      <point x="208" y="136" type="curve"/>
      <point x="208" y="472" type="line"/>
      <point x="58" y="472" type="line"/>
      <point x="58" y="141" type="line" smooth="yes"/>
      <point x="58" y="41"/>
      <point x="110" y="-8"/>
      <point x="201" y="-8" type="curve" smooth="yes"/>
    </contour>
    <contour>
      <point x="377" y="515"/>
      <point x="434" y="560"/>
      <point x="434" y="631" type="curve" smooth="yes"/>
      <point x="434" y="695"/>
      <point x="392" y="743"/>
      <point x="309" y="743" type="curve" smooth="yes"/>
      <point x="198" y="743"/>
      <point x="152" y="684"/>
      <point x="152" y="622" type="curve" smooth="yes"/>
      <point x="152" y="562"/>
      <point x="191" y="515"/>
      <point x="277" y="515" type="curve" smooth="yes"/>
    </contour>
    <contour>
      <point x="268" y="599"/>
      <point x="257" y="612"/>
      <point x="257" y="628" type="curve" smooth="yes"/>
      <point x="257" y="639"/>
      <point x="258" y="645"/>
      <point x="261" y="655" type="curve"/>
      <point x="272" y="658"/>
      <point x="281" y="659"/>
      <point x="295" y="659" type="curve" smooth="yes"/>
      <point x="321" y="659"/>
      <point x="329" y="645"/>
      <point x="329" y="622" type="curve" smooth="yes"/>
      <point x="329" y="616"/>
      <point x="328" y="609"/>
      <point x="326" y="604" type="curve"/>
      <point x="314" y="600"/>
      <point x="307" y="599"/>
      <point x="292" y="599" type="curve" smooth="yes"/>
    </contour>
  </outline>
</glyph>
<glyph name="Ycircumflex" format="1">
  <advance width="655"/>
  <unicode hex="0176"/>
  <note>
	Ycircumflex
  </note>
  <outline>
    <contour>
      <point x="402" y="0" type="line"/>
      <point x="402" y="185" type="line"/>
      <point x="426" y="185" type="line"/>
      <point x="512" y="312"/>
      <point x="577" y="442"/>
      <point x="637" y="595" type="curve"/>
      <point x="489" y="625" type="line"/>
      <point x="441" y="493"/>
      <point x="394" y="392"/>
      <point x="339" y="303" type="curve"/>
      <point x="316" y="303" type="line"/>
      <point x="260" y="392"/>
      <point x="214" y="493"/>
      <point x="166" y="625" type="curve"/>
      <point x="18" y="595" type="line"/>
      <point x="78" y="442"/>
      <point x="143" y="312"/>
      <point x="229" y="185" type="curve"/>
      <point x="253" y="185" type="line"/>
      <point x="253" y="0" type="line"/>
    </contour>
    <contour>
      <point x="324" y="725" type="line"/>
      <point x="331" y="725" type="line"/>
      <point x="401" y="665" type="line"/>
      <point x="484" y="680" type="line"/>
      <point x="389" y="823" type="line"/>
      <point x="266" y="823" type="line"/>
      <point x="170" y="680" type="line"/>
      <point x="251" y="665" type="line"/>
    </contour>
  </outline>
</glyph>
<glyph name="zdotaccent" format="1">
  <advance width="497"/>
  <unicode hex="017C"/>
  <note>
	zdotaccent
  </note>
  <outline>
    <contour>
      <point x="463" y="0" type="line"/>
      <point x="463" y="46" type="line" smooth="yes"/>
      <point x="463" y="85"/>
      <point x="459" y="130"/>
      <point x="450" y="163" type="curve"/>
      <point x="340" y="163" type="line"/>
      <point x="332" y="117" type="line"/>
      <point x="204" y="117" type="line"/>
      <point x="204" y="124" type="line"/>
      <point x="451" y="310" type="line"/>
      <point x="451" y="472" type="line"/>
      <point x="45" y="472" type="line"/>
      <point x="45" y="423" type="line" smooth="yes"/>
      <point x="45" y="377"/>
      <point x="49" y="328"/>
      <point x="58" y="295" type="curve"/>
      <point x="168" y="295" type="line"/>
      <point x="176" y="348" type="line"/>
      <point x="306" y="348" type="line"/>
      <point x="306" y="342" type="line"/>
      <point x="36" y="137" type="line"/>
      <point x="36" y="0" type="line"/>
    </contour>
    <contour>
      <point x="305" y="520"/>
      <point x="335" y="549"/>
      <point x="335" y="596" type="curve" smooth="yes"/>
      <point x="335" y="647"/>
      <point x="305" y="675"/>
      <point x="254" y="675" type="curve" smooth="yes"/>
      <point x="202" y="675"/>
      <point x="172" y="647"/>
      <point x="172" y="596" type="curve" smooth="yes"/>
      <point x="172" y="549"/>
      <point x="202" y="520"/>
      <point x="254" y="520" type="curve" smooth="yes"/>
    </contour>
  </outline>
</glyph>
<glyph name="florin" format="1">
  <advance width="516"/>
  <unicode hex="0192"/>
  <note>
	florin
  </note>
  <outline>
    <contour>
      <point x="197" y="-150"/>
      <point x="247" y="-91"/>
      <point x="263" y="22" type="curve" smooth="yes"/>
      <point x="309" y="346" type="line"/>
      <point x="409" y="346" type="line"/>
      <point x="445" y="472" type="line"/>
      <point x="326" y="468" type="line"/>
      <point x="328" y="480" type="line" smooth="yes"/>
      <point x="330" y="493"/>
      <point x="334" y="503"/>
      <point x="339" y="509" type="curve"/>
      <point x="354" y="517"/>
      <point x="373" y="521"/>
      <point x="397" y="521" type="curve" smooth="yes"/>
      <point x="421" y="521"/>
      <point x="438" y="517"/>
      <point x="461" y="506" type="curve"/>
      <point x="511" y="620" type="line"/>
      <point x="482" y="637"/>
      <point x="443" y="661"/>
      <point x="382" y="661" type="curve" smooth="yes"/>
      <point x="370" y="661"/>
      <point x="344" y="660"/>
      <point x="318" y="657" type="curve"/>
      <point x="268" y="631"/>
      <point x="204" y="593"/>
      <point x="196" y="539" type="curve" smooth="yes"/>
      <point x="186" y="472" type="line"/>
      <point x="129" y="472" type="line"/>
      <point x="93" y="346" type="line"/>
      <point x="169" y="346" type="line"/>
      <point x="129" y="62" type="line" smooth="yes"/>
      <point x="125" y="35"/>
      <point x="118" y="13"/>
      <point x="106" y="-1" type="curve"/>
      <point x="94" y="-7"/>
      <point x="78" y="-10"/>
      <point x="56" y="-10" type="curve" smooth="yes"/>
      <point x="43" y="-10"/>
      <point x="22" y="-9"/>
      <point x="6" y="-6" type="curve"/>
      <point x="-20" y="-127" type="line"/>
      <point x="-1" y="-137"/>
      <point x="37" y="-150"/>
      <point x="88" y="-150" type="curve" smooth="yes"/>
    </contour>
  </outline>
</glyph>
<glyph name="icaron" format="1">
  <advance width="274"/>
  <unicode hex="01D0"/>
  <note>
	icaron
  </note>
  <outline>
    <contour>
      <point x="211" y="0" type="line"/>
      <point x="211" y="472" type="line"/>
      <point x="63" y="472" type="line"/>
      <point x="63" y="0" type="line"/>
    </contour>
    <contour>
      <point x="198" y="520" type="line"/>
      <point x="293" y="663" type="line"/>
      <point x="210" y="678" type="line"/>
      <point x="140" y="618" type="line"/>
      <point x="133" y="618" type="line"/>
      <point x="60" y="678" type="line"/>
      <point x="-21" y="663" type="line"/>
      <point x="75" y="520" type="line"/>
    </contour>
  </outline>
</glyph>
<glyph name="Ucaron" format="1">
  <advance width="653"/>
  <unicode hex="01D3"/>
  <note>
	Ucaron
  </note>
  <outline>
    <contour>
      <point x="469" y="-10"/>
      <point x="590" y="31"/>
      <point x="590" y="135" type="curve" smooth="yes"/>
      <point x="590" y="620" type="line"/>
      <point x="440" y="620" type="line"/>
      <point x="440" y="144" type="line"/>
      <point x="407" y="133"/>
      <point x="378" y="128"/>
      <point x="324" y="128" type="curve" smooth="yes"/>
      <point x="238" y="128"/>
      <point x="213" y="159"/>
      <point x="213" y="253" type="curve" smooth="yes"/>
      <point x="213" y="620" type="line"/>
      <point x="63" y="620" type="line"/>
      <point x="63" y="220" type="line" smooth="yes"/>
      <point x="63" y="81"/>
      <point x="130" y="-10"/>
      <point x="317" y="-10" type="curve" smooth="yes"/>
    </contour>
    <contour>
      <point x="388" y="665" type="line"/>
      <point x="483" y="808" type="line"/>
      <point x="400" y="823" type="line"/>
      <point x="330" y="763" type="line"/>
      <point x="323" y="763" type="line"/>
      <point x="250" y="823" type="line"/>
      <point x="169" y="808" type="line"/>
      <point x="265" y="665" type="line"/>
    </contour>
  </outline>
</glyph>
<glyph name="Udieresismacron" format="1">
  <advance width="653"/>
  <unicode hex="01D5"/>
  <note>
	Udieresismacron
  </note>
  <outline>
    <contour>
      <point x="469" y="-10"/>
      <point x="590" y="31"/>
      <point x="590" y="135" type="curve" smooth="yes"/>
      <point x="590" y="620" type="line"/>
      <point x="440" y="620" type="line"/>
      <point x="440" y="144" type="line"/>
      <point x="407" y="133"/>
      <point x="378" y="128"/>
      <point x="324" y="128" type="curve" smooth="yes"/>
      <point x="238" y="128"/>
      <point x="213" y="159"/>
      <point x="213" y="253" type="curve" smooth="yes"/>
      <point x="213" y="620" type="line"/>
      <point x="63" y="620" type="line"/>
      <point x="63" y="220" type="line" smooth="yes"/>
      <point x="63" y="81"/>
      <point x="130" y="-10"/>
      <point x="317" y="-10" type="curve" smooth="yes"/>
    </contour>
    <contour>
      <point x="291" y="665"/>
      <point x="318" y="691"/>
      <point x="318" y="733" type="curve" smooth="yes"/>
      <point x="318" y="779"/>
      <point x="291" y="804"/>
      <point x="245" y="804" type="curve" smooth="yes"/>
      <point x="199" y="804"/>
      <point x="172" y="779"/>
      <point x="172" y="733" type="curve" smooth="yes"/>
      <point x="172" y="691"/>
      <point x="199" y="665"/>
      <point x="245" y="665" type="curve" smooth="yes"/>
    </contour>
    <contour>
      <point x="469" y="665"/>
      <point x="496" y="691"/>
      <point x="496" y="733" type="curve" smooth="yes"/>
      <point x="496" y="779"/>
      <point x="469" y="804"/>
      <point x="423" y="804" type="curve" smooth="yes"/>
      <point x="377" y="804"/>
      <point x="350" y="779"/>
      <point x="350" y="733" type="curve" smooth="yes"/>
      <point x="350" y="691"/>
      <point x="377" y="665"/>
      <point x="423" y="665" type="curve" smooth="yes"/>
    </contour>
    <contour>
      <point x="520" y="839" type="line"/>
      <point x="520" y="977" type="line"/>
      <point x="148" y="977" type="line"/>
      <point x="148" y="839" type="line"/>
    </contour>
  </outline>
</glyph>
<glyph name="Udieresiscaron" format="1">
  <advance width="653"/>
  <unicode hex="01D9"/>
  <note>
	Udieresiscaron
  </note>
  <outline>
    <contour>
      <point x="469" y="-10"/>
      <point x="590" y="31"/>
      <point x="590" y="135" type="curve" smooth="yes"/>
      <point x="590" y="620" type="line"/>
      <point x="440" y="620" type="line"/>
      <point x="440" y="144" type="line"/>
      <point x="407" y="133"/>
      <point x="378" y="128"/>
      <point x="324" y="128" type="curve" smooth="yes"/>
      <point x="238" y="128"/>
      <point x="213" y="159"/>
      <point x="213" y="253" type="curve" smooth="yes"/>
      <point x="213" y="620" type="line"/>
      <point x="63" y="620" type="line"/>
      <point x="63" y="220" type="line" smooth="yes"/>
      <point x="63" y="81"/>
      <point x="130" y="-10"/>
      <point x="317" y="-10" type="curve" smooth="yes"/>
    </contour>
    <contour>
      <point x="285" y="665"/>
      <point x="312" y="691"/>
      <point x="312" y="733" type="curve" smooth="yes"/>
      <point x="312" y="779"/>
      <point x="285" y="804"/>
      <point x="239" y="804" type="curve" smooth="yes"/>
      <point x="193" y="804"/>
      <point x="166" y="779"/>
      <point x="166" y="733" type="curve" smooth="yes"/>
      <point x="166" y="691"/>
      <point x="193" y="665"/>
      <point x="239" y="665" type="curve" smooth="yes"/>
    </contour>
    <contour>
      <point x="463" y="665"/>
      <point x="490" y="691"/>
      <point x="490" y="733" type="curve" smooth="yes"/>
      <point x="490" y="779"/>
      <point x="463" y="804"/>
      <point x="417" y="804" type="curve" smooth="yes"/>
      <point x="371" y="804"/>
      <point x="344" y="779"/>
      <point x="344" y="733" type="curve" smooth="yes"/>
      <point x="344" y="691"/>
      <point x="371" y="665"/>
      <point x="417" y="665" type="curve" smooth="yes"/>
    </contour>
    <contour>
      <point x="388" y="838" type="line"/>
      <point x="483" y="977" type="line"/>
      <point x="404" y="992" type="line"/>
      <point x="334" y="932" type="line"/>
      <point x="327" y="932" type="line"/>
      <point x="254" y="992" type="line"/>
      <point x="177" y="977" type="line"/>
      <point x="273" y="838" type="line"/>
    </contour>
  </outline>
</glyph>
<glyph name="Udieresisgrave" format="1">
  <advance width="653"/>
  <unicode hex="01DB"/>
  <note>
	Udieresisgrave
  </note>
  <outline>
    <contour>
      <point x="469" y="-10"/>
      <point x="590" y="31"/>
      <point x="590" y="135" type="curve" smooth="yes"/>
      <point x="590" y="620" type="line"/>
      <point x="440" y="620" type="line"/>
      <point x="440" y="144" type="line"/>
      <point x="407" y="133"/>
      <point x="378" y="128"/>
      <point x="324" y="128" type="curve" smooth="yes"/>
      <point x="238" y="128"/>
      <point x="213" y="159"/>
      <point x="213" y="253" type="curve" smooth="yes"/>
      <point x="213" y="620" type="line"/>
      <point x="63" y="620" type="line"/>
      <point x="63" y="220" type="line" smooth="yes"/>
      <point x="63" y="81"/>
      <point x="130" y="-10"/>
      <point x="317" y="-10" type="curve" smooth="yes"/>
    </contour>
    <contour>
      <point x="288" y="665"/>
      <point x="315" y="691"/>
      <point x="315" y="733" type="curve" smooth="yes"/>
      <point x="315" y="779"/>
      <point x="288" y="804"/>
      <point x="242" y="804" type="curve" smooth="yes"/>
      <point x="196" y="804"/>
      <point x="169" y="779"/>
      <point x="169" y="733" type="curve" smooth="yes"/>
      <point x="169" y="691"/>
      <point x="196" y="665"/>
      <point x="242" y="665" type="curve" smooth="yes"/>
    </contour>
    <contour>
      <point x="466" y="665"/>
      <point x="493" y="691"/>
      <point x="493" y="733" type="curve" smooth="yes"/>
      <point x="493" y="779"/>
      <point x="466" y="804"/>
      <point x="420" y="804" type="curve" smooth="yes"/>
      <point x="374" y="804"/>
      <point x="347" y="779"/>
      <point x="347" y="733" type="curve" smooth="yes"/>
      <point x="347" y="691"/>
      <point x="374" y="665"/>
      <point x="420" y="665" type="curve" smooth="yes"/>
    </contour>
    <contour>
      <point x="383" y="847" type="line"/>
      <point x="321" y="962" type="line"/>
      <point x="190" y="942" type="line"/>
      <point x="299" y="827" type="line"/>
    </contour>
  </outline>
</glyph>
<glyph name="aringacute" format="1">
  <advance width="522"/>
  <unicode hex="01FB"/>
  <note>
	aringacute
  </note>
  <outline>
    <contour>
      <point x="245" y="-8"/>
      <point x="286" y="18"/>
      <point x="321" y="66" type="curve"/>
      <point x="329" y="66" type="line"/>
      <point x="338" y="0" type="line"/>
      <point x="464" y="0" type="line"/>
      <point x="464" y="331" type="line" smooth="yes"/>
      <point x="464" y="430"/>
      <point x="395" y="478"/>
      <point x="274" y="478" type="curve" smooth="yes"/>
      <point x="179" y="478"/>
      <point x="120" y="457"/>
      <point x="66" y="428" type="curve"/>
      <point x="66" y="403" type="line" smooth="yes"/>
      <point x="66" y="371"/>
      <point x="70" y="343"/>
      <point x="79" y="313" type="curve"/>
      <point x="203" y="313" type="line"/>
      <point x="213" y="361" type="line"/>
      <point x="229" y="364"/>
      <point x="242" y="365"/>
      <point x="261" y="365" type="curve" smooth="yes"/>
      <point x="300" y="365"/>
      <point x="314" y="357"/>
      <point x="314" y="322" type="curve" smooth="yes"/>
      <point x="314" y="278" type="line"/>
      <point x="292" y="280"/>
      <point x="283" y="281"/>
      <point x="262" y="281" type="curve" smooth="yes"/>
      <point x="124" y="281"/>
      <point x="30" y="239"/>
      <point x="30" y="126" type="curve" smooth="yes"/>
      <point x="30" y="39"/>
      <point x="73" y="-8"/>
      <point x="171" y="-8" type="curve" smooth="yes"/>
    </contour>
    <contour>
      <point x="196" y="113"/>
      <point x="183" y="125"/>
      <point x="183" y="148" type="curve" smooth="yes"/>
      <point x="183" y="160"/>
      <point x="184" y="170"/>
      <point x="189" y="182" type="curve"/>
      <point x="209" y="187"/>
      <point x="224" y="189"/>
      <point x="248" y="189" type="curve" smooth="yes"/>
      <point x="280" y="189"/>
      <point x="294" y="188"/>
      <point x="316" y="184" type="curve"/>
      <point x="316" y="149" type="line"/>
      <point x="291" y="127"/>
      <point x="264" y="113"/>
      <point x="223" y="113" type="curve" smooth="yes"/>
    </contour>
    <contour>
      <point x="360" y="520"/>
      <point x="417" y="565"/>
      <point x="417" y="636" type="curve" smooth="yes"/>
      <point x="417" y="700"/>
      <point x="375" y="748"/>
      <point x="292" y="748" type="curve" smooth="yes"/>
      <point x="181" y="748"/>
      <point x="135" y="689"/>
      <point x="135" y="627" type="curve" smooth="yes"/>
      <point x="135" y="567"/>
      <point x="174" y="520"/>
      <point x="260" y="520" type="curve" smooth="yes"/>
    </contour>
    <contour>
      <point x="251" y="604"/>
      <point x="240" y="617"/>
      <point x="240" y="633" type="curve" smooth="yes"/>
      <point x="240" y="644"/>
      <point x="241" y="650"/>
      <point x="244" y="660" type="curve"/>
      <point x="255" y="663"/>
      <point x="264" y="664"/>
      <point x="278" y="664" type="curve" smooth="yes"/>
      <point x="304" y="664"/>
      <point x="312" y="650"/>
      <point x="312" y="627" type="curve" smooth="yes"/>
      <point x="312" y="621"/>
      <point x="311" y="614"/>
      <point x="309" y="609" type="curve"/>
      <point x="297" y="605"/>
      <point x="290" y="604"/>
      <point x="275" y="604" type="curve" smooth="yes"/>
    </contour>
    <contour>
      <point x="460" y="947" type="line"/>
      <point x="304" y="963" type="line"/>
      <point x="222" y="798" type="line"/>
      <point x="326" y="778" type="line"/>
    </contour>
  </outline>
</glyph>
<glyph name="AEacute" format="1">
  <advance width="972"/>
  <unicode hex="01FC"/>
  <note>
	AEacute
  </note>
  <outline>
    <contour>
      <point x="805" y="-10"/>
      <point x="876" y="-1"/>
      <point x="927" y="12" type="curve"/>
      <point x="908" y="146" type="line"/>
      <point x="852" y="133"/>
      <point x="794" y="127"/>
      <point x="725" y="127" type="curve" smooth="yes"/>
      <point x="680" y="127"/>
      <point x="648" y="129"/>
      <point x="607" y="137" type="curve"/>
      <point x="607" y="241" type="line"/>
      <point x="871" y="241" type="line"/>
      <point x="871" y="372" type="line"/>
      <point x="607" y="372" type="line"/>
      <point x="607" y="483" type="line"/>
      <point x="922" y="483" type="line"/>
      <point x="922" y="620" type="line"/>
      <point x="318" y="620" type="line"/>
      <point x="208" y="428"/>
      <point x="99" y="221"/>
      <point x="5" y="26" type="curve"/>
      <point x="147" y="-6" type="line"/>
      <point x="176" y="53"/>
      <point x="205" y="111"/>
      <point x="234" y="170" type="curve"/>
      <point x="457" y="170" type="line"/>
      <point x="457" y="121" type="line" smooth="yes"/>
      <point x="457" y="16"/>
      <point x="568" y="-10"/>
      <point x="720" y="-10" type="curve" smooth="yes"/>
    </contour>
    <contour>
      <point x="335" y="366"/>
      <point x="367" y="424"/>
      <point x="399" y="479" type="curve"/>
      <point x="457" y="479" type="line"/>
      <point x="457" y="305" type="line"/>
      <point x="303" y="305" type="line"/>
    </contour>
    <contour>
      <point x="755" y="834" type="line"/>
      <point x="599" y="850" type="line"/>
      <point x="517" y="685" type="line"/>
      <point x="621" y="665" type="line"/>
    </contour>
  </outline>
</glyph>
<glyph name="ascript" format="1">
  <advance width="561"/>
  <unicode hex="0251"/>
  <note>
	ascript
  </note>
  <outline>
    <contour>
      <point x="284" y="-10"/>
      <point x="318" y="17"/>
      <point x="353" y="64" type="curve"/>
      <point x="361" y="64" type="line"/>
      <point x="367" y="-1" type="line"/>
      <point x="501" y="0" type="line"/>
      <point x="501" y="472" type="line"/>
      <point x="367" y="472" type="line"/>
      <point x="361" y="404" type="line"/>
      <point x="354" y="404" type="line"/>
      <point x="325" y="450"/>
      <point x="287" y="482"/>
      <point x="221" y="482" type="curve" smooth="yes"/>
      <point x="77" y="482"/>
      <point x="40" y="369"/>
      <point x="40" y="222" type="curve" smooth="yes"/>
      <point x="40" y="96"/>
      <point x="69" y="-10"/>
      <point x="209" y="-10" type="curve" smooth="yes"/>
    </contour>
    <contour>
      <point x="203" y="119"/>
      <point x="188" y="157"/>
      <point x="188" y="232" type="curve" smooth="yes"/>
      <point x="188" y="302"/>
      <point x="202" y="354"/>
      <point x="264" y="354" type="curve" smooth="yes"/>
      <point x="308" y="354"/>
      <point x="330" y="336"/>
      <point x="355" y="303" type="curve"/>
      <point x="355" y="167" type="line"/>
      <point x="331" y="138"/>
      <point x="302" y="119"/>
      <point x="256" y="119" type="curve" smooth="yes"/>
    </contour>
  </outline>
</glyph>
<glyph name="uni02BB" format="1">
  <advance width="264"/>
  <unicode hex="02BB"/>
  <note>
	uni02BB
  </note>
  <outline>
    <contour>
      <point x="153" y="412"/>
      <point x="186" y="418"/>
      <point x="208" y="426" type="curve"/>
      <point x="208" y="527" type="line"/>
      <point x="155" y="527" type="line"/>
      <point x="158" y="554"/>
      <point x="166" y="575"/>
      <point x="185" y="605" type="curve"/>
      <point x="89" y="626" type="line"/>
      <point x="55" y="592"/>
      <point x="30" y="544"/>
      <point x="30" y="498" type="curve" smooth="yes"/>
      <point x="30" y="440"/>
      <point x="60" y="412"/>
      <point x="123" y="412" type="curve" smooth="yes"/>
    </contour>
  </outline>
</glyph>
<glyph name="uni02BC" format="1">
  <advance width="264"/>
  <unicode hex="02BC"/>
  <note>
	uni02BC
  </note>
  <outline>
    <contour>
      <point x="193" y="446"/>
      <point x="218" y="494"/>
      <point x="218" y="540" type="curve" smooth="yes"/>
      <point x="218" y="598"/>
      <point x="188" y="626"/>
      <point x="125" y="626" type="curve" smooth="yes"/>
      <point x="95" y="626"/>
      <point x="62" y="620"/>
      <point x="40" y="612" type="curve"/>
      <point x="40" y="511" type="line"/>
      <point x="93" y="511" type="line"/>
      <point x="90" y="484"/>
      <point x="82" y="463"/>
      <point x="63" y="433" type="curve"/>
      <point x="159" y="412" type="line"/>
    </contour>
  </outline>
</glyph>
<glyph name="uni02BE" format="1">
  <advance width="176"/>
  <unicode hex="02BE"/>
  <note>
	uni02BE
  </note>
  <outline>
    <contour>
      <point x="115" y="426"/>
      <point x="166" y="455"/>
      <point x="166" y="526" type="curve" smooth="yes"/>
      <point x="166" y="595"/>
      <point x="118" y="626"/>
      <point x="4" y="626" type="curve"/>
      <point x="4" y="541" type="line"/>
      <point x="34" y="541"/>
      <point x="47" y="537"/>
      <point x="47" y="520" type="curve" smooth="yes"/>
      <point x="47" y="513"/>
      <point x="45" y="508"/>
      <point x="41" y="503" type="curve"/>
      <point x="32" y="501"/>
      <point x="16" y="501"/>
      <point x="4" y="502" type="curve"/>
      <point x="4" y="426" type="line"/>
    </contour>
  </outline>
</glyph>
<glyph name="uni02BF" format="1">
  <advance width="196"/>
  <unicode hex="02BF"/>
  <note>
	uni02BF
  </note>
  <outline>
    <contour>
      <point x="166" y="502" type="line"/>
      <point x="154" y="501"/>
      <point x="138" y="501"/>
      <point x="129" y="503" type="curve"/>
      <point x="125" y="508"/>
      <point x="123" y="513"/>
      <point x="123" y="520" type="curve" smooth="yes"/>
      <point x="123" y="537"/>
      <point x="136" y="541"/>
      <point x="166" y="541" type="curve"/>
      <point x="166" y="626" type="line"/>
      <point x="52" y="626"/>
      <point x="4" y="595"/>
      <point x="4" y="526" type="curve" smooth="yes"/>
      <point x="4" y="455"/>
      <point x="55" y="426"/>
      <point x="166" y="426" type="curve"/>
    </contour>
  </outline>
</glyph>
<glyph name="uni02C8" format="1">
  <advance width="175"/>
  <unicode hex="02C8"/>
  <note>
	uni02C8
  </note>
  <outline>
    <contour>
      <point x="148" y="472" type="line"/>
      <point x="148" y="683" type="line"/>
      <point x="27" y="683" type="line"/>
      <point x="27" y="472" type="line"/>
    </contour>
  </outline>
</glyph>
<glyph name="uni02C9" format="1">
  <advance width="307"/>
  <unicode hex="02C9"/>
  <note>
	uni02C9
  </note>
  <outline>
    <contour>
      <point x="287" y="472" type="line"/>
      <point x="287" y="578" type="line"/>
      <point x="20" y="578" type="line"/>
      <point x="20" y="472" type="line"/>
    </contour>
  </outline>
</glyph>
<glyph name="dotaccent" format="1">
  <advance width="318"/>
  <unicode hex="02D9"/>
  <note>
	dotaccent
  </note>
  <outline>
    <contour>
      <point x="211" y="471"/>
      <point x="241" y="500"/>
      <point x="241" y="547" type="curve" smooth="yes"/>
      <point x="241" y="598"/>
      <point x="211" y="626"/>
      <point x="160" y="626" type="curve" smooth="yes"/>
      <point x="108" y="626"/>
      <point x="78" y="598"/>
      <point x="78" y="547" type="curve" smooth="yes"/>
      <point x="78" y="500"/>
      <point x="108" y="471"/>
      <point x="160" y="471" type="curve" smooth="yes"/>
    </contour>
  </outline>
</glyph>
<glyph name="ring" format="1">
  <advance width="330"/>
  <unicode hex="02DA"/>
  <note>
	ring
  </note>
  <outline>
    <contour>
      <point x="247" y="424"/>
      <point x="304" y="469"/>
      <point x="304" y="540" type="curve" smooth="yes"/>
      <point x="304" y="604"/>
      <point x="262" y="652"/>
      <point x="179" y="652" type="curve" smooth="yes"/>
      <point x="68" y="652"/>
      <point x="22" y="593"/>
      <point x="22" y="531" type="curve" smooth="yes"/>
      <point x="22" y="471"/>
      <point x="61" y="424"/>
      <point x="147" y="424" type="curve" smooth="yes"/>
    </contour>
    <contour>
      <point x="138" y="508"/>
      <point x="127" y="521"/>
      <point x="127" y="537" type="curve" smooth="yes"/>
      <point x="127" y="548"/>
      <point x="128" y="554"/>
      <point x="131" y="564" type="curve"/>
      <point x="142" y="567"/>
      <point x="151" y="568"/>
      <point x="165" y="568" type="curve" smooth="yes"/>
      <point x="191" y="568"/>
      <point x="199" y="554"/>
      <point x="199" y="531" type="curve" smooth="yes"/>
      <point x="199" y="525"/>
      <point x="198" y="518"/>
      <point x="196" y="513" type="curve"/>
      <point x="184" y="509"/>
      <point x="177" y="508"/>
      <point x="162" y="508" type="curve" smooth="yes"/>
    </contour>
  </outline>
</glyph>
<glyph name="ogonek" format="1">
  <advance width="299"/>
  <unicode hex="02DB"/>
  <note>
	ogonek
  </note>
  <outline>
    <contour>
      <point x="208" y="-187"/>
      <point x="242" y="-179"/>
      <point x="264" y="-168" type="curve"/>
      <point x="240" y="-70" type="line"/>
      <point x="227" y="-75"/>
      <point x="216" y="-77"/>
      <point x="204" y="-77" type="curve" smooth="yes"/>
      <point x="190" y="-77"/>
      <point x="181" y="-76"/>
      <point x="171" y="-73" type="curve"/>
      <point x="169" y="-67"/>
      <point x="168" y="-63"/>
      <point x="168" y="-56" type="curve" smooth="yes"/>
      <point x="168" y="-34"/>
      <point x="177" y="-18"/>
      <point x="214" y="0" type="curve"/>
      <point x="137" y="18" type="line"/>
      <point x="62" y="-9"/>
      <point x="35" y="-46"/>
      <point x="35" y="-97" type="curve" smooth="yes"/>
      <point x="35" y="-154"/>
      <point x="73" y="-187"/>
      <point x="171" y="-187" type="curve" smooth="yes"/>
    </contour>
  </outline>
</glyph>
<glyph name="gravecomb" format="1">
  <advance width="0"/>
  <unicode hex="0300"/>
  <note>
	gravecomb
  </note>
  <outline>
    <contour>
      <point x="-72" y="622" type="line"/>
      <point x="-228" y="638" type="line"/>
      <point x="-310" y="473" type="line"/>
      <point x="-206" y="453" type="line"/>
    </contour>
  </outline>
</glyph>
<glyph name="uni0302" format="1">
  <advance width="0"/>
  <unicode hex="0302"/>
  <note>
	uni0302
  </note>
  <outline>
    <contour>
      <point x="-228" y="522" type="line"/>
      <point x="-221" y="522" type="line"/>
      <point x="-151" y="462" type="line"/>
      <point x="-68" y="477" type="line"/>
      <point x="-163" y="620" type="line"/>
      <point x="-286" y="620" type="line"/>
      <point x="-382" y="477" type="line"/>
      <point x="-301" y="462" type="line"/>
    </contour>
  </outline>
</glyph>
<glyph name="uni0306" format="1">
  <advance width="0"/>
  <unicode hex="0306"/>
  <note>
	uni0306
  </note>
  <outline>
    <contour>
      <point x="-109" y="459"/>
      <point x="-64" y="506"/>
      <point x="-56" y="601" type="curve"/>
      <point x="-182" y="620" type="line"/>
      <point x="-183" y="593"/>
      <point x="-194" y="575"/>
      <point x="-220" y="575" type="curve" smooth="yes"/>
      <point x="-246" y="575"/>
      <point x="-257" y="593"/>
      <point x="-258" y="620" type="curve"/>
      <point x="-384" y="601" type="line"/>
      <point x="-376" y="506"/>
      <point x="-331" y="459"/>
      <point x="-220" y="459" type="curve" smooth="yes"/>
    </contour>
  </outline>
</glyph>
<glyph name="uni0307" format="1">
  <advance width="0"/>
  <unicode hex="0307"/>
  <note>
	uni0307
  </note>
  <outline>
    <contour>
      <point x="-111" y="471"/>
      <point x="-81" y="500"/>
      <point x="-81" y="547" type="curve" smooth="yes"/>
      <point x="-81" y="598"/>
      <point x="-111" y="626"/>
      <point x="-162" y="626" type="curve" smooth="yes"/>
      <point x="-214" y="626"/>
      <point x="-244" y="598"/>
      <point x="-244" y="547" type="curve" smooth="yes"/>
      <point x="-244" y="500"/>
      <point x="-214" y="471"/>
      <point x="-162" y="471" type="curve" smooth="yes"/>
    </contour>
  </outline>
</glyph>
<glyph name="uni0308" format="1">
  <advance width="0"/>
  <unicode hex="0308"/>
  <note>
	uni0308
  </note>
  <outline>
    <contour>
      <point x="-181" y="443"/>
      <point x="-154" y="469"/>
      <point x="-154" y="511" type="curve" smooth="yes"/>
      <point x="-154" y="557"/>
      <point x="-181" y="582"/>
      <point x="-227" y="582" type="curve" smooth="yes"/>
      <point x="-273" y="582"/>
      <point x="-300" y="557"/>
      <point x="-300" y="511" type="curve" smooth="yes"/>
      <point x="-300" y="469"/>
      <point x="-273" y="443"/>
      <point x="-227" y="443" type="curve" smooth="yes"/>
    </contour>
    <contour>
      <point x="-359" y="443"/>
      <point x="-332" y="469"/>
      <point x="-332" y="511" type="curve" smooth="yes"/>
      <point x="-332" y="557"/>
      <point x="-359" y="582"/>
      <point x="-405" y="582" type="curve" smooth="yes"/>
      <point x="-451" y="582"/>
      <point x="-478" y="557"/>
      <point x="-478" y="511" type="curve" smooth="yes"/>
      <point x="-478" y="469"/>
      <point x="-451" y="443"/>
      <point x="-405" y="443" type="curve" smooth="yes"/>
    </contour>
  </outline>
</glyph>
<glyph name="hookabovecomb" format="1">
  <advance width="0"/>
  <unicode hex="0309"/>
  <note>
	hookabovecomb
  </note>
  <outline>
    <contour>
      <point x="-146" y="482" type="line"/>
      <point x="-146" y="533" type="line"/>
      <point x="-87" y="540"/>
      <point x="-52" y="570"/>
      <point x="-52" y="628" type="curve" smooth="yes"/>
      <point x="-52" y="688"/>
      <point x="-101" y="727"/>
      <point x="-179" y="727" type="curve" smooth="yes"/>
      <point x="-223" y="727"/>
      <point x="-259" y="721"/>
      <point x="-304" y="703" type="curve"/>
      <point x="-272" y="622" type="line"/>
      <point x="-253" y="628"/>
      <point x="-230" y="632"/>
      <point x="-212" y="632" type="curve" smooth="yes"/>
      <point x="-182" y="632"/>
      <point x="-174" y="628"/>
      <point x="-174" y="616" type="curve" smooth="yes"/>
      <point x="-174" y="599"/>
      <point x="-204" y="596"/>
      <point x="-264" y="596" type="curve"/>
      <point x="-264" y="541" type="line"/>
      <point x="-243" y="482" type="line"/>
    </contour>
  </outline>
</glyph>
<glyph name="uni031B" format="1">
  <advance width="0"/>
  <unicode hex="031B"/>
  <note>
	uni031B
  </note>
  <outline>
    <contour>
      <point x="194" y="315"/>
      <point x="264" y="366"/>
      <point x="264" y="450" type="curve" smooth="yes"/>
      <point x="264" y="517"/>
      <point x="227" y="550"/>
      <point x="160" y="550" type="curve" smooth="yes"/>
      <point x="129" y="550"/>
      <point x="104" y="545"/>
      <point x="76" y="536" type="curve"/>
      <point x="76" y="460" type="line"/>
      <point x="131" y="460" type="line"/>
      <point x="131" y="438"/>
      <point x="114" y="428"/>
      <point x="40" y="428" type="curve"/>
      <point x="40" y="328" type="line"/>
    </contour>
  </outline>
</glyph>
<glyph name="uni0326" format="1">
  <advance width="0"/>
  <unicode hex="0326"/>
  <note>
	uni0326
  </note>
  <outline>
    <contour>
      <point x="148" y="-161" type="line"/>
      <point x="264" y="-30" type="line"/>
      <point x="89" y="-30" type="line"/>
      <point x="27" y="-161" type="line"/>
    </contour>
  </outline>
</glyph>
<glyph name="uni0327" format="1">
  <advance width="0"/>
  <unicode hex="0327"/>
  <note>
	uni0327
  </note>
  <outline>
    <contour>
      <point x="-64" y="-251"/>
      <point x="-22" y="-203"/>
      <point x="-22" y="-132" type="curve" smooth="yes"/>
      <point x="-22" y="-72"/>
      <point x="-52" y="-35"/>
      <point x="-104" y="-35" type="curve" smooth="yes"/>
      <point x="-122" y="-35"/>
      <point x="-132" y="-37"/>
      <point x="-145" y="-42" type="curve"/>
      <point x="-111" y="4" type="line"/>
      <point x="-200" y="23" type="line"/>
      <point x="-286" y="-70" type="line"/>
      <point x="-237" y="-124" type="line"/>
      <point x="-227" y="-119"/>
      <point x="-210" y="-116"/>
      <point x="-195" y="-116" type="curve" smooth="yes"/>
      <point x="-168" y="-116"/>
      <point x="-154" y="-121"/>
      <point x="-154" y="-137" type="curve" smooth="yes"/>
      <point x="-154" y="-143"/>
      <point x="-155" y="-148"/>
      <point x="-157" y="-152" type="curve"/>
      <point x="-168" y="-154"/>
      <point x="-175" y="-154"/>
      <point x="-189" y="-154" type="curve" smooth="yes"/>
      <point x="-214" y="-154"/>
      <point x="-236" y="-149"/>
      <point x="-258" y="-140" type="curve"/>
      <point x="-287" y="-227" type="line"/>
      <point x="-251" y="-244"/>
      <point x="-210" y="-251"/>
      <point x="-164" y="-251" type="curve" smooth="yes"/>
    </contour>
  </outline>
</glyph>
<glyph name="pi" format="1">
  <advance width="651"/>
  <unicode hex="03C0"/>
  <note>
	pi
  </note>
  <outline>
    <contour>
      <point x="553" y="-11"/>
      <point x="576" y="-7"/>
      <point x="599" y="2" type="curve"/>
      <point x="599" y="126" type="line"/>
      <point x="586" y="124"/>
      <point x="572" y="123"/>
      <point x="557" y="123" type="curve" smooth="yes"/>
      <point x="544" y="123"/>
      <point x="532" y="124"/>
      <point x="521" y="126" type="curve"/>
      <point x="518" y="137"/>
      <point x="517" y="148"/>
      <point x="517" y="166" type="curve" smooth="yes"/>
      <point x="517" y="335" type="line"/>
      <point x="606" y="335" type="line"/>
      <point x="606" y="472" type="line"/>
      <point x="25" y="472" type="line"/>
      <point x="25" y="335" type="line"/>
      <point x="111" y="335" type="line"/>
      <point x="111" y="0" type="line"/>
      <point x="259" y="0" type="line"/>
      <point x="259" y="335" type="line"/>
      <point x="369" y="335" type="line"/>
      <point x="369" y="129" type="line" smooth="yes"/>
      <point x="369" y="49"/>
      <point x="444" y="-11"/>
      <point x="515" y="-11" type="curve" smooth="yes"/>
    </contour>
  </outline>
</glyph>
<glyph name="koKai-thai" format="1">
  <advance width="604"/>
  <unicode hex="0E01"/>
  <note>
	koKai-thai
  </note>
  <outline>
    <contour>
      <point x="213" y="0" type="line"/>
      <point x="249" y="236" type="line" smooth="yes"/>
      <point x="255" y="273"/>
      <point x="253" y="295"/>
      <point x="230" y="320" type="curve"/>
      <point x="188" y="372" type="line"/>
      <point x="188" y="376" type="line"/>
      <point x="225" y="388"/>
      <point x="252" y="392"/>
      <point x="295" y="392" type="curve" smooth="yes"/>
      <point x="336" y="392"/>
      <point x="363" y="387"/>
      <point x="388" y="376" type="curve"/>
      <point x="388" y="0" type="line"/>
      <point x="540" y="0" type="line"/>
      <point x="540" y="388" type="line" smooth="yes"/>
      <point x="540" y="465"/>
      <point x="463" y="530"/>
      <point x="316" y="530" type="curve" smooth="yes"/>
      <point x="212" y="530"/>
      <point x="113" y="498"/>
      <point x="44" y="452" type="curve"/>
      <point x="44" y="354" type="line"/>
      <point x="104" y="274" type="line"/>
      <point x="63" y="0" type="line"/>
    </contour>
  </outline>
</glyph>
<glyph name="choChang-thai" format="1">
  <advance width="563"/>
  <unicode hex="0E0A"/>
  <note>
	choChang-thai
  </note>
  <outline>
    <contour>
      <point x="417" y="-10"/>
      <point x="499" y="69"/>
      <point x="499" y="161" type="curve" smooth="yes"/>
      <point x="499" y="234" type="line" smooth="yes"/>
      <point x="499" y="296"/>
      <point x="481" y="329"/>
      <point x="425" y="348" type="curve"/>
      <point x="425" y="352" type="line"/>
      <point x="470" y="369"/>
      <point x="486" y="390"/>
      <point x="498" y="425" type="curve" smooth="yes"/>
      <point x="507" y="450"/>
      <point x="514" y="484"/>
      <point x="517" y="514" type="curve"/>
      <point x="362" y="530" type="line"/>
      <point x="360" y="496"/>
      <point x="356" y="471"/>
      <point x="350" y="446" type="curve" smooth="yes"/>
      <point x="342" y="413"/>
      <point x="333" y="402"/>
      <point x="301" y="402" type="curve"/>
      <point x="301" y="292" type="line"/>
      <point x="329" y="288"/>
      <point x="350" y="276"/>
      <point x="350" y="246" type="curve" smooth="yes"/>
      <point x="350" y="138" type="line"/>
      <point x="330" y="132"/>
      <point x="311" y="128"/>
      <point x="278" y="128" type="curve" smooth="yes"/>
      <point x="223" y="128"/>
      <point x="196" y="146"/>
      <point x="196" y="191" type="curve" smooth="yes"/>
      <point x="196" y="209" type="line" smooth="yes"/>
      <point x="196" y="283"/>
      <point x="271" y="276"/>
      <point x="271" y="400" type="curve" smooth="yes"/>
      <point x="271" y="477"/>
      <point x="227" y="516"/>
      <point x="145" y="516" type="curve" smooth="yes"/>
      <point x="44" y="516" type="line"/>
      <point x="44" y="390" type="line"/>
      <point x="89" y="390" type="line" smooth="yes"/>
      <point x="112" y="390"/>
      <point x="122" y="382"/>
      <point x="122" y="356" type="curve" smooth="yes"/>
      <point x="122" y="310"/>
      <point x="47" y="299"/>
      <point x="47" y="209" type="curve" smooth="yes"/>
      <point x="47" y="168" type="line" smooth="yes"/>
      <point x="47" y="61"/>
      <point x="107" y="-10"/>
      <point x="268" y="-10" type="curve" smooth="yes"/>
    </contour>
  </outline>
</glyph>
